<?xml version="1.0" standalone="no"?>
<!DOCTYPE svg PUBLIC "-//W3C//DTD SVG 1.1//EN" "http://www.w3.org/Graphics/SVG/1.1/DTD/svg11.dtd" >
<svg xmlns="http://www.w3.org/2000/svg" xmlns:xlink="http://www.w3.org/1999/xlink" version="1.1">
<metadata></metadata>
<defs>
<font id="sarati_eldamar_rtl_bar_glaeRg" horiz-adv-x="0" >
<font-face units-per-em="1000" ascent="800" descent="-200" />
<missing-glyph horiz-adv-x="350" />
<glyph unicode="&#xd;" horiz-adv-x="333" />
<glyph unicode=" "  horiz-adv-x="350" />
<glyph unicode="&#x09;" horiz-adv-x="350" />
<glyph unicode="&#xa0;" horiz-adv-x="350" />
<glyph unicode="!" horiz-adv-x="350" d="M-184 480h609l109 -90h-609z" />
<glyph unicode="&#x22;" horiz-adv-x="504" d="M-93 480h582l109 -90h-303q29 -51 61.5 -115.5t59.5 -129.5t45 -124.5t18 -99.5q0 -27 -13.5 -57t-35.5 -54.5t-50 -40.5t-56 -16q-24 0 -55.5 10.5t-64.5 29t-65.5 42.5t-57.5 51t-40.5 55t-15.5 54q0 8 7 18t15 19q10 11 22 22l65 -57q-13 -17 -22 -36t-9 -40t11 -38.5 t27.5 -29.5t37 -19t38.5 -7q32 0 65.5 14t61 37.5t45 54.5t17.5 64q0 29 -12 78.5t-30.5 106t-40.5 112t-41 96.5h-266z" />
<glyph unicode="#" horiz-adv-x="517" d="M-94 480h596l109 -90h-303q29 -51 61.5 -115.5t59.5 -129.5t45 -124.5t18 -99.5q0 -27 -13.5 -57t-35.5 -54.5t-50 -40.5t-56 -16q-24 0 -55.5 9.5t-65 26.5t-66 39.5t-58 47.5t-41.5 52.5t-16 53.5q0 9 6 18h-16q-15 0 -40 2.5t-51 12.5t-48.5 28.5t-31.5 51.5 q70 -15 140.5 -22t141.5 -7h272q-9 35 -22 78t-29 87t-32 85.5t-31 73.5h-279zM115 -80q0 -21 11 -38.5t28.5 -29.5t37.5 -18.5t38 -6.5q32 0 65.5 14t60.5 37t44.5 54t17.5 65l-4.5 0.5t-30 1t-81.5 1t-159 0.5q-11 -16 -19.5 -38.5t-8.5 -41.5z" />
<glyph unicode="$" horiz-adv-x="544" d="M-94 480h623l109 -90h-303q29 -51 61.5 -115.5t59.5 -129.5t45 -124.5t18 -99.5q0 -27 -13.5 -57t-35.5 -54.5t-50 -40.5t-56 -16q-24 0 -55.5 9.5t-65 26.5t-66 39.5t-58 47.5t-41.5 52.5t-16 53.5q0 9 6 18h-16q-15 0 -40 2.5t-51 12.5t-48.5 28.5t-31.5 51.5 q70 -15 140.5 -22t141.5 -7h272q-5 23 -13.5 51t-17.5 57q-66 -3 -140.5 -6.5t-140.5 -3.5q-24 0 -40.5 7t-28 19.5t-18 29.5t-11.5 38q40 -8 84 -13.5t89 -8.5t89.5 -4.5t86.5 -2.5h11q-16 45 -32.5 86.5t-30.5 74.5h-307zM142 -80q0 -21 11 -38.5t28.5 -29.5t37.5 -18.5 t38 -6.5q32 0 65.5 14t60.5 37t44.5 54t17.5 65l-4.5 0.5t-30 1t-81.5 1t-159 0.5q-11 -16 -19.5 -38.5t-8.5 -41.5z" />
<glyph unicode="%" horiz-adv-x="504" d="M-93 480h582l109 -90h-281q27 -32 56 -70.5t52.5 -78.5t38.5 -80.5t15 -77.5q0 -23 -9 -46t-24 -44t-34 -38t-38 -27q24 -24 43 -45.5t33 -45.5t21.5 -52t7.5 -63q0 -28 -13.5 -55.5t-35.5 -49t-50 -35t-56 -13.5q-24 0 -55.5 10.5t-64.5 29t-65.5 42.5t-57.5 51 t-40.5 55t-15.5 54q0 8 7 18t15 19q10 11 22 22l65 -57q-13 -17 -22 -36t-9 -40t11 -38.5t27.5 -29.5t37 -19t38.5 -7q31 0 64 11.5t61 32t46 49t18 62.5q0 11 -8 31t-20.5 39.5t-27 33.5t-26.5 14q-24 0 -55.5 10.5t-64.5 29t-65.5 42.5t-57.5 51t-40.5 55t-15.5 54 q0 8 7 18t15 19q10 11 22 22l65 -57q-13 -17 -22 -36t-9 -40t11 -38.5t27.5 -29.5t37 -19t38.5 -7q31 0 64.5 14t61.5 37t45.5 54t17.5 64q0 26 -10 56t-26 60.5t-35.5 60t-37.5 54.5h-281z" />
<glyph unicode="&#x26;" horiz-adv-x="807" d="M-95 480h887l109 -90h-303q29 -51 61.5 -115.5t59.5 -129.5t45 -124.5t18 -99.5q0 -27 -13.5 -57t-35.5 -54.5t-50 -40.5t-56 -16q-35 0 -83.5 20t-96.5 52q-23 -30 -53.5 -50.5t-63.5 -20.5q-24 0 -55.5 9.5t-65.5 26t-67 39t-59 48t-42 52.5t-16 53q0 9 6 18h-16 q-15 0 -40 2.5t-51 12.5t-48.5 28.5t-31.5 51.5q70 -15 140.5 -22t141.5 -7h572q-9 35 -22 78t-29 87t-32 85.5t-31 73.5h-570zM433 0q-11 -16 -19.5 -38.5t-8.5 -41.5q0 -21 11 -38.5t28.5 -29.5t37.5 -18.5t38 -6.5q32 0 65.5 14t60.5 37.5t44.5 55t17.5 66.5h-275z M105 -80q0 -21 11 -38.5t28.5 -29.5t37.5 -18.5t38 -6.5q38 0 76.5 19t67.5 50q-18 21 -28.5 43t-10.5 43q0 9 6 18h-198q-11 -16 -19.5 -38.5t-8.5 -41.5z" />
<glyph unicode="'" horiz-adv-x="807" d="M-94 480h886l109 -90h-303q29 -51 61.5 -115.5t59.5 -129.5t45 -124.5t18 -99.5q0 -27 -13.5 -57t-35.5 -54.5t-50 -40.5t-56 -16q-35 0 -83.5 20t-96.5 52q-23 -30 -53.5 -50.5t-63.5 -20.5q-24 0 -55.5 9.5t-65.5 26t-67 39t-59 48t-42 52.5t-16 53q0 9 6 18 q-44 -2 -82 7q-16 4 -32.5 10.5t-30.5 17t-25 25.5t-17 35q70 -15 140.5 -22t141.5 -7h572q-5 23 -13.5 51t-17.5 57q-22 -1 -60 -2t-83 -2t-94.5 -2.5t-94.5 -2t-82.5 -1t-59.5 -0.5q-24 0 -40.5 7t-28 19.5t-18 29.5t-11.5 38q27 -6 71 -10t96 -7t108.5 -5t108.5 -3.5 t96.5 -2t72.5 -1.5q-16 45 -32.5 86.5t-30.5 74.5h-570zM405 -80q0 -21 11 -38.5t28.5 -29.5t37.5 -18.5t38 -6.5q33 0 66.5 14t61 38t44.5 55t16 66h-275q-11 -16 -19.5 -38.5t-8.5 -41.5zM105 -80q0 -21 11 -38.5t28.5 -29.5t37.5 -18.5t38 -6.5q38 0 76.5 19t67.5 50 q-18 21 -28.5 43t-10.5 43q0 9 6 18h-198q-11 -16 -19.5 -38.5t-8.5 -41.5z" />
<glyph unicode="(" horiz-adv-x="802" d="M-94 480h881l109 -90h-234q23 -26 44 -53t36.5 -57t25 -63t9.5 -72q0 -27 -12.5 -53t-33 -46.5t-47 -33.5t-54.5 -13l-494 1q-58 0 -84.5 -33t-26.5 -87q0 -29 13 -60q-14 9 -33 21.5t-36.5 28.5t-30 33t-12.5 35q0 48 18.5 73t48.5 36t66.5 12.5t72.5 1.5l388 -1 q32 0 65 11.5t60 31.5t44 48t17 60q0 60 -13 101t-41 78h-637z" />
<glyph unicode=")" horiz-adv-x="802" d="M-94 480h881l109 -90h-203q33 -30 58 -63t25 -67q0 -18 -14 -31t-37 -21q23 -25 37.5 -51t14.5 -52q0 -27 -12.5 -46.5t-33 -33t-47 -20t-54.5 -6.5l-494 1q-58 0 -84.5 -33t-26.5 -87q0 -29 13 -60q-14 9 -33 21.5t-36.5 28.5t-30 33t-12.5 35q0 48 18.5 73t48.5 36 t66.5 12.5t72.5 1.5l388 -1q32 0 65 3.5t60 14.5t44 31t17 52q0 22 -6 40q-22 -5 -46 -8t-46.5 -4t-41.5 -1h-30q-46 1 -85.5 17t-68.5 64q13 -3 42.5 -9t65 -11t73.5 -7.5t69.5 1.5t51.5 16.5t20 37.5q0 28 -10 51t-24 42h-655z" />
<glyph unicode="*" horiz-adv-x="802" d="M-94 480h881l109 -90h-234q23 -26 44 -53t36.5 -57t25 -63t9.5 -72q0 -27 -12.5 -53t-33 -46.5t-47 -33.5t-54.5 -13l-494 1q-58 0 -84.5 -33t-26.5 -87q0 -29 13 -60q-14 9 -33 21.5t-36.5 28.5t-30 33t-12.5 35q0 48 18.5 73t48.5 36t66.5 12.5t72.5 1.5l388 -1 q31 0 64 11t60 31t44 47t18 59l-365 1q-17 0 -34 -4t-30.5 -13t-22.5 -23t-9 -33q0 -10 3 -20q-13 10 -26.5 21.5t-24.5 25t-18 29t-7 33.5q0 16 9.5 24.5t23 12.5t29 5t26.5 1l435 1l8 -8q-5 39 -17.5 69.5t-33.5 59.5h-637z" />
<glyph unicode="+" horiz-adv-x="802" d="M-94 480h881l109 -90h-234q23 -26 44 -53t36.5 -57t25 -63t9.5 -72q0 -27 -12.5 -53t-33 -46.5t-47 -33.5t-54.5 -13l-494 1q-58 0 -84.5 -33t-26.5 -87q0 -29 13 -60q-14 9 -33 21.5t-36.5 28.5t-30 33t-12.5 35q0 48 18.5 73t48.5 36t66.5 12.5t72.5 1.5l121 -1v330 h-238zM520 60q32 0 65 11.5t60 31.5t44 48t17 60q0 60 -13 101t-41 78h-302q0 -50 -0.5 -90.5t-0.5 -78t2 -76.5t7 -85h162z" />
<glyph unicode="," horiz-adv-x="802" d="M-94 480h881l109 -90h-234q23 -26 44 -53t36.5 -57t25 -63t9.5 -72q0 -27 -12.5 -53t-33 -46.5t-47 -33.5t-54.5 -13l-494 1q-58 0 -84.5 -33t-26.5 -87q0 -29 13 -60q-14 9 -33 21.5t-36.5 28.5t-30 33t-12.5 35q0 48 18.5 73t48.5 36t66.5 12.5t72.5 1.5l121 -1v149 h-118q-17 0 -34 -4t-30.5 -13t-22.5 -23t-9 -33q0 -10 3 -20q-13 10 -26.5 21.5t-24.5 25t-18 29t-7 33.5q0 16 9.5 24.5t23 12.5t29 5t26.5 1h190l9 -7v129h-238zM520 60q32 0 65 11.5t60 31.5t44 48t17 60q0 60 -13 101t-41 78h-302q0 -50 -0.5 -90.5t-0.5 -78t2 -76.5 t7 -85h162z" />
<glyph unicode="-" horiz-adv-x="802" d="M-94 480h881l109 -90h-234q23 -26 44 -53t36.5 -57t25 -63t9.5 -72q0 -27 -12.5 -53t-33 -46.5t-47 -33.5t-54.5 -13l-494 1q-58 0 -84.5 -33t-26.5 -87q0 -29 13 -60q-14 9 -33 21.5t-36.5 28.5t-30 33t-12.5 35q0 48 18.5 73t48.5 36t66.5 12.5t72.5 1.5h21v329h-138z M520 60q32 0 65 11.5t60 31.5t44 48t17 60q0 60 -13 101t-41 78h-202q0 -50 -0.5 -90.5t-0.5 -78t2 -76.5t7 -85h62zM353 60v330h-103q0 -50 -0.5 -90.5t-0.5 -78t2 -76.5t7 -85h95z" />
<glyph unicode="." horiz-adv-x="888" d="M-94 480h967l109 -90h-234q23 -26 44 -53t36.5 -57t25 -63t9.5 -72q0 -27 -12.5 -53t-33 -46.5t-47 -33.5t-54.5 -13l-494 1q-58 0 -84.5 -33t-26.5 -87q0 -29 13 -60q-14 9 -33 21.5t-36.5 28.5t-30 33t-12.5 35q0 48 18.5 73t48.5 36t66.5 12.5t72.5 1.5h21v148h-118 q-17 0 -34 -4t-30.5 -13t-22.5 -23t-9 -33q0 -10 3 -20q-13 10 -26.5 21.5t-24.5 25t-18 29t-7 33.5q0 16 9.5 24.5t23 12.5t29 5t26.5 1h190l9 -7v129h-224zM606 60q32 0 65 11.5t60 31.5t44 48t17 60q0 60 -13 101t-41 78h-202q0 -50 -0.5 -90.5t-0.5 -78t2 -76.5t7 -85 h62zM439 60v330h-103q0 -50 -0.5 -90.5t-0.5 -78t2 -76.5t7 -85h95z" />
<glyph unicode="/" horiz-adv-x="888" d="M-94 480h967l109 -90h-234q23 -26 44 -53t36.5 -57t25 -63t9.5 -72q0 -27 -12.5 -53t-33 -46.5t-47 -33.5t-54.5 -13l-494 1q-58 0 -84.5 -33t-26.5 -87q0 -29 13 -60q-14 9 -33 21.5t-36.5 28.5t-30 33t-12.5 35q0 48 18.5 73t48.5 36t66.5 12.5t72.5 1.5h21v148h-118 q-17 0 -34 -4t-30.5 -13t-22.5 -23t-9 -33q0 -10 3 -20q-13 10 -26.5 21.5t-24.5 25t-18 29t-7 33.5q0 16 9.5 24.5t23 12.5t29 5t26.5 1h199v122h-224zM606 60q32 0 65 11.5t60 31.5t44 48t17 60q0 60 -13 101t-41 78h-202q0 -50 -0.5 -90.5t-0.5 -78t2 -76.5t7 -85h62z M335 209q0 -20 0.5 -37.5t1.5 -34.5t2.5 -35.5t4.5 -41.5h95v149h-104zM430 268l9 -7v129h-103q0 -34 -0.5 -64t-0.5 -58h95z" />
<glyph unicode="0" horiz-adv-x="848" d="M-94 480h927l109 -90h-392q0 -50 -0.5 -90.5t-0.5 -78t2 -76.5t7 -85h148q33 0 65 -18t57.5 -46.5t41.5 -62.5t16 -67q0 -26 -13 -50l-89 66q14 15 26.5 38t12.5 45q0 14 -8 22t-20 12t-25 5t-23 1q-25 0 -50 -2t-51 -2l-380 -1q-18 0 -43.5 12t-52 31.5t-52.5 44t-47 50 t-33.5 50t-12.5 42.5q0 45 9.5 85t33.5 75h-53zM453 60v330h-226q-32 -23 -56.5 -40.5t-41 -39.5t-25 -51.5t-8.5 -76.5q0 -23 10 -44.5t27 -39t39 -28t47 -10.5h234z" />
<glyph unicode="1" horiz-adv-x="848" d="M-94 480h927l109 -90h-392v-46.5t-1 -42.5h104q31 0 63 -16.5t57.5 -43t42 -59t16.5 -64.5q0 -29 -13 -51l-69 65q13 13 26 28t13 35q0 14 -8 22t-19.5 12t-24.5 5t-23 1h-165q0 -24 0.5 -44.5t1 -40.5t2.5 -41.5t5 -48.5h148q33 0 65 -18t57.5 -46.5t41.5 -62.5t16 -67 q0 -26 -13 -50l-89 66q14 15 26.5 38t12.5 45q0 14 -8 22t-20 12t-25 5t-23 1q-25 0 -50 -2t-51 -2l-380 -1q-18 0 -43.5 12t-52 31.5t-52.5 44t-47 50t-33.5 50t-12.5 42.5q0 45 9.5 85t33.5 75h-53zM453 60v330h-226q-32 -23 -56.5 -40.5t-41 -39.5t-25 -51.5t-8.5 -76.5 q0 -23 10 -44.5t27 -39t39 -28t47 -10.5h234z" />
<glyph unicode="2" horiz-adv-x="582" d="M-94 480h661l109 -90h-187q27 -30 47.5 -64t20.5 -64q0 -56 -13 -105.5t-41.5 -86.5t-72.5 -58.5t-105 -21.5q-60 0 -114 29.5t-95.5 76.5t-66 105t-24.5 115q0 19 4 37.5t11 36.5h-25zM106 242q0 -33 6 -67t20.5 -61.5t39 -45.5t62.5 -18q68 0 114 19.5t73.5 55.5t39 87 t11.5 114q0 14 -4.5 30.5t-11.5 33.5h-315l15 -13q-9 -13 -18 -30t-16 -35t-11.5 -36t-4.5 -34z" />
<glyph unicode="3" horiz-adv-x="582" d="M-94 480h661l109 -90h-187q27 -30 47.5 -64t20.5 -64q0 -56 -13 -105.5t-41.5 -86.5t-72.5 -58.5t-105 -21.5h-4q0 -24 0.5 -48t0.5 -49v-65.5t-8 -58.5t-27 -42.5t-57 -16.5q-26 0 -65 22.5t-75.5 55t-62.5 68t-26 62.5q0 14 12 23t23 15l74 -57q-11 -14 -21 -29.5 t-10 -34.5q0 -17 11 -29t27.5 -19.5t34 -10.5t31.5 -3q27 0 42 17.5t21.5 43t8 55t1.5 53.5q0 15 -1 29.5t-2 29.5q-48 16 -89.5 49t-72 76t-48.5 92.5t-18 97.5q0 19 4 37.5t11 36.5h-25zM106 242q0 -33 6 -67t20.5 -61.5t39 -45.5t62.5 -18q68 0 114 19.5t73.5 55.5t39 87 t11.5 114q0 14 -4.5 30.5t-11.5 33.5h-315l15 -13q-9 -13 -18 -30t-16 -35t-11.5 -36t-4.5 -34z" />
<glyph unicode="4" horiz-adv-x="582" d="M-94 480h661l109 -90h-187q27 -30 47.5 -64t20.5 -64q0 -56 -13 -105.5t-41.5 -86.5t-72.5 -58.5t-105 -21.5h-4q-2 -21 -3.5 -42t-1.5 -43q0 -21 2.5 -49t11.5 -53.5t25.5 -43t45.5 -17.5q35 0 62 17t38 51l72 -55q-3 -17 -15.5 -27.5t-28 -16.5t-33 -8t-30.5 -2 q-38 0 -76 18t-68.5 47.5t-49.5 65.5t-19 72v97q-48 16 -89.5 49t-72 76t-48.5 92.5t-18 97.5q0 19 4 37.5t11 36.5h-25zM106 242q0 -33 6 -67t20.5 -61.5t39 -45.5t62.5 -18q68 0 114 19.5t73.5 55.5t39 87t11.5 114q0 14 -4.5 30.5t-11.5 33.5h-315l15 -13q-9 -13 -18 -30 t-16 -35t-11.5 -36t-4.5 -34z" />
<glyph unicode="5" horiz-adv-x="1028" d="M-94 480h1107l109 -90h-633q18 -20 33.5 -41.5t24.5 -42.5l250 -397q10 -15 25 -27.5t32 -12.5q32 0 56 17t24 46q0 13 -6 27q33 -22 54 -49.5t21 -69.5q0 -16 -8.5 -28.5t-21 -21t-28 -13t-28.5 -4.5q-31 0 -58.5 17t-43.5 43l-258 419q-1 -55 -15 -102.5t-42 -83 t-71.5 -56t-103.5 -20.5t-114 29.5t-95.5 76.5t-66 105t-24.5 115q0 19 4 37.5t11 36.5h-25zM106 242q0 -33 6 -67t20.5 -61.5t39 -45.5t62.5 -18q68 0 114 19.5t73.5 55.5t39 87t11.5 114q0 14 -4.5 30.5t-11.5 33.5h-315l15 -13q-9 -13 -18 -30t-16 -35t-11.5 -36 t-4.5 -34z" />
<glyph unicode="6" horiz-adv-x="582" d="M-94 480h661l109 -90h-187q27 -30 47.5 -64t20.5 -64q0 -56 -13 -105.5t-41.5 -86.5t-72.5 -58.5t-105 -21.5h-4q26 -32 44.5 -70t18.5 -81q0 -29 -9.5 -45.5t-25 -25t-37 -11t-45.5 -2.5h-175q-16 0 -36.5 -1.5t-38.5 -7.5t-30.5 -18.5t-12.5 -34.5q0 -13 5 -30 q-14 9 -27.5 19.5t-24.5 23.5t-18 28.5t-7 32.5q0 15 7 24t18 14.5t23.5 7.5t24.5 2h182q30 0 58 3.5t49.5 15t35 33.5t13.5 58q0 14 -6.5 33t-10.5 34q-55 7 -104.5 38.5t-86.5 77t-58.5 100t-21.5 108.5q0 19 4 37.5t11 36.5h-25zM106 242q0 -33 6 -67t20.5 -61.5 t39 -45.5t62.5 -18q68 0 114 19.5t73.5 55.5t39 87t11.5 114q0 14 -4.5 30.5t-11.5 33.5h-315l15 -13q-9 -13 -18 -30t-16 -35t-11.5 -36t-4.5 -34z" />
<glyph unicode="7" horiz-adv-x="582" d="M-94 480h661l109 -90h-187q27 -30 47.5 -64t20.5 -64q0 -56 -13 -105.5t-41.5 -86.5t-72.5 -58.5t-105 -21.5h-4q0 -26 -0.5 -52t-0.5 -53q0 -16 6 -34t17 -33.5t25.5 -25.5t32.5 -10q35 0 62 17.5t38 50.5l72 -55q-3 -17 -15 -27.5t-28 -16.5t-33 -8t-31 -2q-29 0 -50 5 t-37.5 15.5t-31.5 26.5t-33 37q-7 -37 -26.5 -56t-57.5 -19q-27 0 -65.5 21.5t-73.5 53.5q-2 2 -2 5q0 7 6 7q18 -14 39.5 -19t38.5 -5q22 0 37 15t24.5 36t14 44.5t4.5 41.5v51q-48 16 -89.5 49t-72 76t-48.5 92.5t-18 97.5q0 19 4 37.5t11 36.5h-25zM106 242q0 -33 6 -67 t20.5 -61.5t39 -45.5t62.5 -18q68 0 114 19.5t73.5 55.5t39 87t11.5 114q0 14 -4.5 30.5t-11.5 33.5h-315l15 -13q-9 -13 -18 -30t-16 -35t-11.5 -36t-4.5 -34z" />
<glyph unicode="8" horiz-adv-x="582" d="M-93 480h660l109 -90h-187q27 -30 47.5 -64t20.5 -64q0 -56 -13 -105.5t-41.5 -86.5t-72.5 -58.5t-105 -21.5q-60 0 -113.5 29t-95.5 76q0 -63 -7 -127.5t-31.5 -117.5t-72.5 -86.5t-131 -33.5q-26 0 -58.5 19.5t-61 48.5t-48 61.5t-19.5 58.5q0 13 11.5 23t22.5 15 l74 -57q-11 -14 -21 -29.5t-10 -34.5q0 -17 8 -27.5t20.5 -16t27 -7t28.5 -1.5q42 0 72 17.5t51 46t33.5 65t19.5 75.5t9 77t2 69q0 34 -2 68t-4 69q-2 11 -3 23t-1 23q0 19 4 37.5t11 36.5h-24zM106 242q0 -33 6 -67t20.5 -61.5t39 -45.5t62.5 -18q68 0 114 19.5t73.5 55.5 t39 87t11.5 114q0 14 -4.5 30.5t-11.5 33.5h-315l15 -13q-9 -13 -18 -30t-16 -35t-11.5 -36t-4.5 -34z" />
<glyph unicode="9" horiz-adv-x="944" d="M-95 480h1024l109 -90h-187q27 -30 47.5 -64t20.5 -64q0 -56 -13 -105.5t-41.5 -86.5t-72.5 -58.5t-105 -21.5q-60 0 -113 29t-95 75q-18 -38 -41.5 -57.5t-51 -27.5t-59.5 -8.5t-66 -0.5q-30 0 -55 -4.5t-43 -17t-28.5 -36.5t-10.5 -63q0 -29 13 -60q-17 11 -36.5 25 t-36.5 29t-28 31.5t-11 33.5q0 39 12.5 63t34 36.5t50.5 17t61 4.5h51q30 0 58 10.5t49.5 31.5t34.5 52.5t13 73.5q0 24 -1 44t-1 45q0 19 4 37.5t11 36.5h-388zM468 242q0 -33 6 -67t20.5 -61.5t39 -45.5t62.5 -18q68 0 114 19.5t73.5 55.5t39 87t11.5 114q0 14 -4.5 30.5 t-11.5 33.5h-315l15 -13q-9 -13 -18 -30t-16 -35t-11.5 -36t-4.5 -34z" />
<glyph unicode=":" horiz-adv-x="942" d="M479 93q-18 -38 -41.5 -57.5t-51 -27t-59.5 -7.5h-66q-30 0 -55 -4.5t-43 -17t-28.5 -36.5t-10.5 -63q0 -29 13 -60q-17 11 -36.5 25t-36.5 29t-28 31.5t-11 33.5q0 39 12.5 63t34 36.5t50.5 17t61 4.5h51q30 0 58 8.5t49.5 27t34.5 47.5t13 71h-145q-19 0 -36 -7 t-30.5 -19t-21.5 -29t-8 -36q0 -12 3 -22q-13 11 -26 24.5t-24 29t-18 32.5t-7 35t10 28t25 15.5t31.5 7t29.5 1.5h217q0 14 -0.5 29.5t-0.5 32.5q0 27 3 54h-379l-109 90h1024l109 -90h-187q27 -30 47.5 -64t20.5 -64q0 -56 -13 -105.5t-41.5 -86.5t-72.5 -58.5t-105 -21.5 q-60 0 -112.5 28.5t-93.5 74.5zM469 242q8 -93 36 -142.5t89 -49.5q68 0 114 19.5t73.5 55.5t39 87t11.5 114q0 14 -4.5 30.5t-11.5 33.5h-320q-7 -14 -12 -33.5t-8.5 -40.5t-5 -40.5t-1.5 -33.5z" />
<glyph unicode=";" horiz-adv-x="1042" d="M-94 480h1121l109 -90h-187q27 -30 47.5 -64t20.5 -64q0 -56 -13 -105.5t-41.5 -86.5t-72.5 -58.5t-105 -21.5q-60 0 -112.5 28.5t-93.5 74.5q-17 -39 -53.5 -66.5t-82.5 -27.5l-208 1q-58 0 -84.5 -33t-26.5 -88q0 -29 13 -60q-14 9 -33 23.5t-36.5 32t-30 36.5 t-12.5 37q0 42 13 63.5t35.5 31.5t52 12t63.5 4v331h-174zM569 242q8 -92 36 -142t89 -50q68 0 114 19.5t73.5 55.5t39 87t11.5 114q0 14 -4.5 30.5t-11.5 33.5h-320q-7 -14 -12 -33.5t-8.5 -40t-5 -40.5t-1.5 -34zM334 59q31 0 59 11t49.5 32t34 52t12.5 73q0 24 -1 48 t-1 48q0 15 1 32.5t3 34.5h-205q0 -50 -0.5 -90.5t-0.5 -78.5t2 -77t7 -85h40z" />
<glyph unicode="&#x3c;" horiz-adv-x="1042" d="M-94 480h1121l109 -90h-187q27 -30 47.5 -64t20.5 -64q0 -56 -13 -105.5t-41.5 -86.5t-72.5 -58.5t-105 -21.5q-60 0 -112.5 28.5t-93.5 74.5q-17 -39 -53.5 -66.5t-82.5 -27.5l-208 1q-58 0 -84.5 -33t-26.5 -88q0 -29 13 -60q-14 9 -33 23.5t-36.5 32t-30 36.5 t-12.5 37q0 42 13 63.5t35.5 31.5t52 12t63.5 4v150h-118q-17 0 -34 -4t-30.5 -13t-22.5 -23t-9 -33q0 -10 3 -20q-13 10 -26.5 21.5t-24.5 25t-18 29t-7 33.5q0 16 9.5 24.5t23 12.5t29 5t26.5 1h190l9 -7v129h-174zM569 242q8 -92 36 -142t89 -50q68 0 114 19.5t73.5 55.5 t39 87t11.5 114q0 14 -4.5 30.5t-11.5 33.5h-320q-7 -14 -12 -33.5t-8.5 -40t-5 -40.5t-1.5 -34zM334 59q31 0 59 11t49.5 32t34 52t12.5 73q0 24 -1 48t-1 48q0 15 1 32.5t3 34.5h-205q0 -50 -0.5 -90.5t-0.5 -78.5t2 -77t7 -85h40z" />
<glyph unicode="=" horiz-adv-x="1170" d="M-94 480h1249l109 -90h-774q11 -13 21.5 -25.5t18.5 -26.5q25 -18 60 -46t75.5 -59t85 -62t87.5 -56t83.5 -40.5t73.5 -15.5q21 0 39 10.5t18 35.5q0 11 -4 22.5t-9 22.5q34 -15 59 -40.5t25 -66.5q0 -24 -10 -38t-36 -14q-34 0 -76 15t-88.5 39.5t-95 56.5t-96 66.5 t-91.5 68.5t-81 63q4 -9 5 -16q45 -57 93 -118t99.5 -118.5t107.5 -109.5t118 -92q11 -7 21.5 -11.5t22.5 -4.5q18 0 29 6.5t18 17.5t9.5 25t2.5 29q0 5 -1 10t-3 10q18 -11 32 -21.5t23.5 -22.5t14 -28.5t4.5 -39.5q0 -26 -12 -43t-40 -17q-34 0 -80 27t-98 70t-106 96.5 t-102.5 105.5t-88 98t-62.5 74q-4 -50 -19 -93t-43.5 -75t-70 -50.5t-98.5 -18.5q-60 0 -114 29.5t-95.5 76.5t-66 105t-24.5 115q0 19 4 37.5t11 36.5h-25zM106 242q0 -33 6 -67t20.5 -61.5t39 -45.5t62.5 -18q68 0 114 19.5t73.5 55.5t39 87t11.5 114q0 14 -4.5 30.5 t-11.5 33.5h-315l15 -13q-9 -13 -18 -30t-16 -35t-11.5 -36t-4.5 -34z" />
<glyph unicode="&#x3e;" horiz-adv-x="1240" d="M-94 480h1319l109 -90h-187q27 -30 47.5 -64t20.5 -64q0 -56 -13 -105.5t-41.5 -86.5t-72.5 -58.5t-105 -21.5q-39 0 -76 13t-70 36t-61 54t-48 67q-36 -96 -77 -177t-98 -139.5t-137 -91t-195 -32.5q-26 0 -59.5 21t-64 52t-51.5 65t-21 60q0 13 11.5 23t22.5 15l63 -47 q-11 -14 -20.5 -30t-9.5 -34q0 -17 11 -30.5t27 -22.5t34 -14t31 -5q72 0 128 16.5t100 49.5t79 82t65 113q-76 -56 -159 -79t-177 -23q-26 0 -59.5 21t-64 52t-51.5 65t-21 60q0 13 11.5 23t22.5 15l64 -47q-12 -14 -21.5 -30t-9.5 -34q0 -17 11 -30.5t27 -22.5t34 -14 t31 -5q83 0 142.5 15t102 41.5t73 64t57 82.5t52.5 96t60 106h-677zM764 242q0 -33 6 -67t20.5 -61.5t39 -45.5t62.5 -18q68 0 114 19.5t73.5 55.5t39 87t11.5 114q0 14 -4.5 30.5t-11.5 33.5h-315l15 -13q-9 -13 -18 -30t-16 -35t-11.5 -36t-4.5 -34z" />
<glyph unicode="?" horiz-adv-x="582" d="M-94 480h661l109 -90h-187q27 -30 47.5 -64t20.5 -64q0 -56 -13 -105.5t-41.5 -86.5t-72.5 -58.5t-105 -21.5q-60 0 -114 29.5t-95.5 76.5t-66 105t-24.5 115q0 19 4 37.5t11 36.5h-25zM264 245v145h-123l15 -13q-9 -13 -18 -30t-16 -35t-11.5 -36t-4.5 -34q0 -33 6 -67 t20.5 -61.5t39 -45.5t62.5 -18q68 0 114 19.5t73.5 55.5t39 87t11.5 114q0 14 -4.5 30.5t-11.5 33.5h-140l8 -7v-193z" />
<glyph unicode="@" horiz-adv-x="582" d="M-94 480h661l109 -90h-187q27 -30 47.5 -64t20.5 -64q0 -56 -13 -105.5t-41.5 -86.5t-72.5 -58.5t-105 -21.5h-4q0 -24 0.5 -48t0.5 -49v-65.5t-8 -58.5t-27 -42.5t-57 -16.5q-26 0 -65 22.5t-75.5 55t-62.5 68t-26 62.5q0 14 12 23t23 15l74 -57q-11 -14 -21 -29.5 t-10 -34.5q0 -17 11 -29t27.5 -19.5t34 -10.5t31.5 -3q27 0 42 17.5t21.5 43t8 55t1.5 53.5q0 15 -1 29.5t-2 29.5q-48 16 -89.5 49t-72 76t-48.5 92.5t-18 97.5q0 19 4 37.5t11 36.5h-25zM264 245v145h-123l15 -13q-9 -13 -18 -30t-16 -35t-11.5 -36t-4.5 -34q0 -33 6 -67 t20.5 -61.5t39 -45.5t62.5 -18q68 0 114 19.5t73.5 55.5t39 87t11.5 114q0 14 -4.5 30.5t-11.5 33.5h-140l8 -7v-193z" />
<glyph unicode="A" horiz-adv-x="582" d="M-94 480h661l109 -90h-187q27 -30 47.5 -64t20.5 -64q0 -56 -13 -105.5t-41.5 -86.5t-72.5 -58.5t-105 -21.5h-4q-2 -21 -3.5 -42t-1.5 -43q0 -21 2.5 -49t11.5 -53.5t25.5 -43t45.5 -17.5q35 0 62 17t38 51l72 -55q-3 -17 -15.5 -27.5t-28 -16.5t-33 -8t-30.5 -2 q-38 0 -76 18t-68.5 47.5t-49.5 65.5t-19 72v97q-48 16 -89.5 49t-72 76t-48.5 92.5t-18 97.5q0 19 4 37.5t11 36.5h-25zM264 245v145h-123l15 -13q-9 -13 -18 -30t-16 -35t-11.5 -36t-4.5 -34q0 -33 6 -67t20.5 -61.5t39 -45.5t62.5 -18q68 0 114 19.5t73.5 55.5t39 87 t11.5 114q0 14 -4.5 30.5t-11.5 33.5h-140l8 -7v-193z" />
<glyph unicode="B" horiz-adv-x="1028" d="M-94 480h1107l109 -90h-633q18 -20 33.5 -41.5t24.5 -42.5l250 -397q10 -15 25 -27.5t32 -12.5q32 0 56 17t24 46q0 13 -6 27q33 -22 54 -49.5t21 -69.5q0 -16 -8.5 -28.5t-21 -21t-28 -13t-28.5 -4.5q-31 0 -58.5 17t-43.5 43l-258 419q-1 -55 -15 -102.5t-42 -83 t-71.5 -56t-103.5 -20.5t-114 29.5t-95.5 76.5t-66 105t-24.5 115q0 19 4 37.5t11 36.5h-25zM264 245v145h-123l15 -13q-9 -13 -18 -30t-16 -35t-11.5 -36t-4.5 -34q0 -33 6 -67t20.5 -61.5t39 -45.5t62.5 -18q68 0 114 19.5t73.5 55.5t39 87t11.5 114q0 14 -4.5 30.5 t-11.5 33.5h-140l8 -7v-193z" />
<glyph unicode="C" horiz-adv-x="582" d="M-94 480h661l109 -90h-187q27 -30 47.5 -64t20.5 -64q0 -56 -13 -105.5t-41.5 -86.5t-72.5 -58.5t-105 -21.5h-4q26 -32 44.5 -70t18.5 -81q0 -29 -9.5 -45.5t-25 -25t-37 -11t-45.5 -2.5h-175q-16 0 -36.5 -1.5t-38.5 -7.5t-30.5 -18.5t-12.5 -34.5q0 -13 5 -30 q-14 9 -27.5 19.5t-24.5 23.5t-18 28.5t-7 32.5q0 15 7 24t18 14.5t23.5 7.5t24.5 2h182q30 0 58 3.5t49.5 15t35 33.5t13.5 58q0 14 -6.5 33t-10.5 34q-55 7 -104.5 38.5t-86.5 77t-58.5 100t-21.5 108.5q0 19 4 37.5t11 36.5h-25zM264 245v145h-123l15 -13q-9 -13 -18 -30 t-16 -35t-11.5 -36t-4.5 -34q0 -33 6 -67t20.5 -61.5t39 -45.5t62.5 -18q68 0 114 19.5t73.5 55.5t39 87t11.5 114q0 14 -4.5 30.5t-11.5 33.5h-140l8 -7v-193z" />
<glyph unicode="D" horiz-adv-x="582" d="M-94 480h661l109 -90h-187q27 -30 47.5 -64t20.5 -64q0 -56 -13 -105.5t-41.5 -86.5t-72.5 -58.5t-105 -21.5h-4q0 -26 -0.5 -52t-0.5 -53q0 -16 6 -34t17 -33.5t25.5 -25.5t32.5 -10q35 0 62 17.5t38 50.5l72 -55q-3 -17 -15 -27.5t-28 -16.5t-33 -8t-31 -2q-29 0 -50 5 t-37.5 15.5t-31.5 26.5t-33 37q-7 -37 -26.5 -56t-57.5 -19q-27 0 -65.5 21.5t-73.5 53.5q-2 2 -2 5q0 7 6 7q18 -14 39.5 -19t38.5 -5q22 0 37 15t24.5 36t14 44.5t4.5 41.5v51q-48 16 -89.5 49t-72 76t-48.5 92.5t-18 97.5q0 19 4 37.5t11 36.5h-25zM264 245v145h-123 l15 -13q-9 -13 -18 -30t-16 -35t-11.5 -36t-4.5 -34q0 -33 6 -67t20.5 -61.5t39 -45.5t62.5 -18q68 0 114 19.5t73.5 55.5t39 87t11.5 114q0 14 -4.5 30.5t-11.5 33.5h-140l8 -7v-193z" />
<glyph unicode="E" horiz-adv-x="582" d="M-94 480h661l109 -90h-187q27 -30 47.5 -64t20.5 -64q0 -56 -13 -105.5t-41.5 -86.5t-72.5 -58.5t-105 -21.5h-9v-85q0 -21 2.5 -49t11.5 -53.5t25.5 -43t45.5 -17.5q35 0 62 17t38 51l72 -55q-3 -17 -15.5 -27.5t-28 -16.5t-33 -8t-30.5 -2q-26 0 -52.5 5.5t-46.5 22.5 q-20 16 -40 35t-36.5 41t-27 47t-10.5 52l2 97q-48 15 -90 48t-73 76t-49 93t-18 98q0 19 4 37.5t11 36.5h-25zM106 242q0 -33 6 -67t20.5 -61.5t39 -45.5t62.5 -18h22v340h-115l15 -13q-9 -13 -18 -30t-16 -35t-11.5 -36t-4.5 -34zM316 59q44 11 74 34.5t48 58t26 78.5 t8 96q0 14 -4.5 30.5t-11.5 33.5h-148l8 -7v-324z" />
<glyph unicode="F" horiz-adv-x="582" d="M-94 480h661l109 -90h-187q27 -30 47.5 -64t20.5 -64q0 -56 -13 -105.5t-41.5 -86.5t-72.5 -58.5t-105 -21.5q-60 0 -114 29.5t-95.5 76.5t-66 105t-24.5 115q0 19 4 37.5t11 36.5h-25zM106 242q0 -28 4 -56.5t15 -54.5l281 259h-265l15 -13q-9 -13 -18 -30t-16 -35 t-11.5 -36t-4.5 -34zM471 342q-35 -31 -78.5 -70t-85.5 -78t-78.5 -72.5t-57.5 -53.5q13 -8 28.5 -13t34.5 -5q68 0 114 19.5t73.5 55.5t39 87t11.5 114v8t-1 8z" />
<glyph unicode="G" horiz-adv-x="851" d="M-95 480h931l109 -90h-187q27 -30 47.5 -64t20.5 -64q0 -56 -13 -105.5t-41.5 -86.5t-72.5 -58.5t-105 -21.5q-45 0 -87.5 17.5t-79.5 46.5q-13 -13 -33.5 -33t-43 -38.5t-42.5 -32t-32 -13.5q-47 0 -83.5 21t-72.5 48q-19 14 -36 29.5t-30 33t-21 38t-8 46.5q0 7 5 14.5 t12 14t15 12t14 8.5l75 -57q-13 -17 -27 -30.5t-14 -34.5q0 -42 28.5 -62.5t66.5 -20.5q17 0 40.5 12.5t47.5 30t46 37t37 33.5l1 1q-36 45 -57 98.5t-21 106.5q0 19 4 37.5t11 36.5h-295zM375 242q0 -28 4 -56.5t15 -54.5l281 259h-265l15 -13q-9 -13 -18 -30t-16 -35 t-11.5 -36t-4.5 -34zM444 72q0 -1 -1 -2l-2 -2q24 -18 62 -18q68 0 114 19.5t73.5 55.5t39 87t11.5 114v8t-1 8q-35 -31 -79.5 -71.5t-87 -79.5t-78 -71.5t-51.5 -47.5z" />
<glyph unicode="H" horiz-adv-x="582" d="M-94 480h661l109 -90h-187q27 -30 47.5 -64t20.5 -64q0 -56 -13 -105.5t-41.5 -86.5t-72.5 -58.5t-105 -21.5h-4q-2 -21 -3.5 -42t-1.5 -43q0 -21 2.5 -49t11.5 -53.5t25.5 -43t45.5 -17.5q35 0 62 17t38 51l72 -55q-3 -17 -15.5 -27.5t-28 -16.5t-33 -8t-30.5 -2 q-38 0 -76 18t-68.5 47.5t-49.5 65.5t-19 72v97q-48 16 -89.5 49t-72 76t-48.5 92.5t-18 97.5q0 19 4 37.5t11 36.5h-25zM106 242q0 -28 4 -56.5t15 -54.5l281 259h-265l15 -13q-9 -13 -18 -30t-16 -35t-11.5 -36t-4.5 -34zM471 342q-35 -31 -78.5 -70t-85.5 -78 t-78.5 -72.5t-57.5 -53.5q13 -8 28.5 -13t34.5 -5q68 0 114 19.5t73.5 55.5t39 87t11.5 114v8t-1 8z" />
<glyph unicode="I" horiz-adv-x="1028" d="M-94 480h1107l109 -90h-633q18 -20 33.5 -41.5t24.5 -42.5l250 -397q10 -15 25 -27.5t32 -12.5q32 0 56 17t24 46q0 13 -6 27q33 -22 54 -49.5t21 -69.5q0 -16 -8.5 -28.5t-21 -21t-28 -13t-28.5 -4.5q-31 0 -58.5 17t-43.5 43l-258 419q-1 -55 -15 -102.5t-42 -83 t-71.5 -56t-103.5 -20.5t-114 29.5t-95.5 76.5t-66 105t-24.5 115q0 19 4 37.5t11 36.5h-25zM106 242q0 -28 4 -56.5t15 -54.5l281 259h-265l15 -13q-9 -13 -18 -30t-16 -35t-11.5 -36t-4.5 -34zM471 342q-35 -31 -78.5 -70t-85.5 -78t-78.5 -72.5t-57.5 -53.5 q13 -8 28.5 -13t34.5 -5q68 0 114 19.5t73.5 55.5t39 87t11.5 114v8t-1 8z" />
<glyph unicode="J" horiz-adv-x="623" d="M-93 480h701l109 -90h-187q27 -30 47.5 -64t20.5 -64q0 -56 -13 -105.5t-41.5 -86.5t-72.5 -58.5t-105 -21.5q-46 0 -88.5 17.5t-78.5 47.5h-1q-14 -14 -33.5 -35.5t-37 -45t-29.5 -46.5t-12 -40q0 -38 15 -61.5t57 -23.5q21 0 40 9t35 22l47 -65q-3 -6 -8.5 -14t-12 -15 t-14 -12t-14.5 -5q-26 0 -46.5 8t-38 21t-32.5 30t-29 36q-28 36 -44 67.5t-16 79.5q0 12 13.5 31.5t32.5 40.5t39 41t33 32l1 1q-36 45 -57 98.5t-21 106.5q0 19 4 37.5t11 36.5h-65zM147 242q0 -28 4 -56.5t15 -54.5l281 259h-265l15 -13q-9 -13 -18 -30t-16 -35 t-11.5 -36t-4.5 -34zM512 342q-35 -31 -79.5 -71.5t-87 -79.5t-78 -71.5t-51.5 -47.5l-3 -4q13 -8 28 -13t34 -5q68 0 114 19.5t73.5 55.5t39 87t11.5 114v8t-1 8z" />
<glyph unicode="K" horiz-adv-x="1069" d="M-93 480h1147l109 -90h-633q18 -20 33.5 -41.5t24.5 -42.5l250 -397q10 -15 25 -27.5t32 -12.5q32 0 56 17t24 46q0 13 -6 27q33 -22 54 -49.5t21 -69.5q0 -16 -8.5 -28.5t-21 -21t-28 -13t-28.5 -4.5q-31 0 -58.5 17t-43.5 43l-258 419q-1 -55 -15 -102.5t-42 -83 t-71.5 -56t-103.5 -20.5q-46 0 -88.5 17.5t-78.5 47.5h-1q-14 -14 -33.5 -35.5t-37 -45t-29.5 -46.5t-12 -40q0 -38 15 -61.5t57 -23.5q21 0 40 9t35 22l47 -65q-3 -6 -8.5 -14t-12 -15t-14 -12t-14.5 -5q-39 0 -76.5 25t-66 61.5t-46 78.5t-17.5 77q0 12 13.5 31.5 t32.5 40.5t39 41t33 32l1 1q-36 45 -57 98.5t-21 106.5q0 19 4 37.5t11 36.5h-65zM147 242q0 -28 4 -56.5t15 -54.5l281 259h-265l15 -13q-9 -13 -18 -30t-16 -35t-11.5 -36t-4.5 -34zM213 68q13 -8 28 -13t34 -5q68 0 114 19.5t73.5 55.5t39 87t11.5 114v8t-1 8 q-35 -31 -79.5 -71.5t-87 -79.5t-78 -71.5t-51.5 -47.5z" />
<glyph unicode="L" horiz-adv-x="623" d="M-93 480h701l109 -90h-187q27 -30 47.5 -64t20.5 -64q0 -56 -13 -105.5t-41.5 -86.5t-72.5 -58.5t-105 -21.5h-4q-2 -21 -3.5 -42t-1.5 -43q0 -21 2.5 -49t11.5 -53.5t25.5 -43t45.5 -17.5q35 0 62 17t38 51l72 -55q-3 -17 -15.5 -27.5t-28 -16.5t-33 -8t-30.5 -2 q-38 0 -76 18t-68.5 47.5t-49.5 65.5t-19 72v97q-26 8 -50 22t-46 32q-14 -14 -33.5 -35.5t-37 -45t-29.5 -46.5t-12 -40q0 -38 15 -61.5t57 -23.5q21 0 40 9t35 22l47 -65q-3 -6 -8.5 -14t-12 -15t-14 -12t-14.5 -5q-39 0 -76.5 25t-66 61.5t-46 78.5t-17.5 77 q0 12 13.5 31.5t32.5 40.5t39 41t33 32h1q-36 46 -57 99t-21 107q0 19 4 37.5t11 36.5h-65zM147 242q0 -28 4 -56.5t15 -54.5l281 259h-265l15 -13q-9 -13 -18 -30t-16 -35t-11.5 -36t-4.5 -34zM512 342q-35 -31 -79.5 -71.5t-87 -79.5t-78 -71.5t-51.5 -47.5l-3 -4 q13 -8 28 -13t34 -5q68 0 114 19.5t73.5 55.5t39 87t11.5 114v8t-1 8z" />
<glyph unicode="M" horiz-adv-x="582" d="M-94 480h661l109 -90h-187q27 -30 47.5 -64t20.5 -64q0 -56 -13 -105.5t-41.5 -86.5t-72.5 -58.5t-105 -21.5q-60 0 -114 29.5t-95.5 76.5t-66 105t-24.5 115q0 19 4 37.5t11 36.5h-25zM205 245v145h-64l15 -13q-9 -13 -18 -30t-16 -35t-11.5 -36t-4.5 -34q0 -33 6 -67 t20.5 -61.5t39 -45.5t62.5 -18q68 0 114 19.5t73.5 55.5t39 87t11.5 114q0 14 -4.5 30.5t-11.5 33.5h-70v-190l-60 45v145h-61v-190z" />
<glyph unicode="N" horiz-adv-x="582" d="M-93 480h658l109 -90h-185q27 -30 47.5 -64t20.5 -64q0 -56 -13 -105.5t-41.5 -86.5t-72.5 -58.5t-105 -21.5h-4q-2 -21 -3.5 -42t-1.5 -43q0 -21 2.5 -49t11.5 -53.5t25.5 -43t45.5 -17.5q35 0 62 17t38 51l72 -55q-3 -17 -15.5 -27.5t-28 -16.5t-33 -8t-30.5 -2 q-38 0 -76 18t-68.5 47.5t-49.5 65.5t-19 72v97q-48 16 -89.5 49t-72 76t-48.5 92.5t-18 97.5q0 19 4 37.5t11 36.5h-24zM205 245v145h-64l15 -13q-9 -13 -18 -30t-16 -35t-11.5 -36t-4.5 -34q0 -33 6 -67t20.5 -61.5t39 -45.5t62.5 -18q68 0 114 19.5t73.5 55.5t39 87 t11.5 114q0 14 -4.5 30.5t-11.5 33.5h-70v-190l-60 45v145h-61v-190z" />
<glyph unicode="O" horiz-adv-x="951" d="M-95 480h1031l109 -90h-387q38 -36 61 -83.5t23 -98.5q0 -21 2 -51.5t10.5 -58.5t25.5 -47.5t47 -19.5q35 0 61.5 17.5t37.5 50.5l71 -55q-3 -17 -14.5 -27.5t-27.5 -16.5t-33 -8t-31 -2q-35 0 -56.5 6.5t-38.5 19t-32.5 30t-38.5 39.5q-7 -36 -24 -74t-43 -69.5 t-60.5 -51.5t-75.5 -20q-40 0 -79 20.5t-73 52t-61 69t-44 70.5q-5 -45 -21.5 -67.5t-65.5 -22.5q-18 0 -40 5.5t-43 15t-39.5 22t-30.5 26.5q16 -5 32.5 -7.5t33.5 -2.5q43 0 68.5 21.5t38 54t16 70t3.5 70.5q0 35 2 64.5t13 58.5h-218zM304 202q0 -33 6 -78.5t22 -86 t44.5 -69t74.5 -28.5q58 0 97 32.5t62.5 80.5t33 103.5t9.5 102.5q0 26 -6 62.5t-17 68.5h-292l17 -13q-23 -36 -37 -84.5t-14 -90.5z" />
<glyph unicode="P" horiz-adv-x="1015" d="M-94 480h1094l109 -90h-186q27 -30 47 -64.5t20 -63.5q0 -56 -13 -105.5t-41 -86.5t-72 -58.5t-106 -21.5q-35 0 -67.5 10.5t-62 28.5t-55 42t-45.5 51q-28 -66 -81 -99t-124 -33q-60 0 -114 29.5t-95 76.5t-65 104.5t-24 114.5q0 37 16 75h-26zM667 50q68 0 114 19.5 t73.5 55.5t39.5 87t12 114q0 14 -4.5 30.5t-12.5 33.5h-347v-189q0 -26 8.5 -53t25 -49t39.5 -35.5t52 -13.5zM106 251q0 -44 6 -81t21 -63.5t39 -41.5t60 -15q80 0 126 26.5t69 72t28.5 105.5t5.5 127v9h-301l6 -4q-9 -13 -19.5 -30t-19.5 -35t-15 -36t-6 -34z" />
<glyph unicode="Q" horiz-adv-x="1015" d="M-94 480h1094l109 -90h-186q27 -30 47 -64.5t20 -63.5q0 -56 -13 -105.5t-41 -86.5t-72 -58.5t-106 -21.5q-32 0 -61.5 9t-57 24t-52 35.5t-44.5 44.5q0 -133 1.5 -214t3.5 -129.5t4.5 -73.5l4.5 -45q-14 5 -31 15.5t-33.5 22.5t-32 24.5t-27.5 22.5q3 22 6.5 56.5t6 75 t5 84.5t4.5 86q-56 -38 -132 -38q-60 0 -114 29.5t-95 76.5t-65 104.5t-24 114.5q0 37 16 75h-26zM667 50q68 0 114 19.5t73.5 55.5t39.5 87t12 114q0 14 -4.5 30.5t-12.5 33.5h-347l1 -203q0 -25 9 -49.5t25.5 -44t39.5 -31.5t50 -12zM106 251q0 -44 6 -81t21 -63.5 t39 -41.5t60 -15q70 0 114.5 20.5t69.5 56t34.5 84t9.5 104.5v75h-300l6 -4q-9 -13 -19.5 -30t-19.5 -35t-15 -36t-6 -34z" />
<glyph unicode="R" horiz-adv-x="1015" d="M-94 480h1094l109 -90h-186q27 -30 47 -64.5t20 -63.5q0 -56 -13 -105.5t-41 -86.5t-72 -58.5t-106 -21.5q-33 0 -63.5 9.5t-58.5 26t-52.5 38t-45.5 46.5q-1 -30 -1.5 -63.5t-1 -62.5t-0.5 -50.5v-28.5q0 -21 2.5 -49t11 -53.5t25.5 -43t46 -17.5q35 0 61.5 17t37.5 51 l72 -55q-3 -17 -15 -27.5t-27.5 -16.5t-33 -8t-31.5 -2q-38 0 -75.5 18t-67.5 47.5t-49.5 65.5t-20.5 72l-3 135q-29 -25 -65.5 -37t-79.5 -12q-60 0 -114 29.5t-95 76.5t-65 104.5t-24 114.5q0 37 16 75h-26zM667 50q68 0 114 19.5t73.5 55.5t39.5 87t12 114 q0 14 -4.5 30.5t-12.5 33.5h-347v-189q0 -26 8.5 -53t25 -49t39.5 -35.5t52 -13.5zM106 251q0 -44 6 -81t21 -63.5t39 -41.5t60 -15q80 0 126 26.5t69 72t28.5 105.5t5.5 127v9h-301l6 -4q-9 -13 -19.5 -30t-19.5 -35t-15 -36t-6 -34z" />
<glyph unicode="S" horiz-adv-x="1463" d="M-94 480h1542l109 -90h-635q11 -13 22 -26.5t19 -27.5l269 -427q10 -15 25 -27.5t32 -12.5q19 0 36.5 6.5t28.5 18.5t14 28.5t-5 36.5q33 -22 54 -49.5t21 -69.5q0 -16 -8.5 -28.5t-21 -21t-28 -13t-28.5 -4.5q-31 0 -58.5 17t-43.5 43l-260 421q-1 -55 -14.5 -103 t-41.5 -84t-71.5 -56.5t-104.5 -20.5q-35 0 -67.5 10.5t-62 28.5t-55 42t-45.5 51q-28 -66 -81 -99t-124 -33q-60 0 -114 29.5t-95 76.5t-65 104.5t-24 114.5q0 37 16 75h-26zM585 86q7 -6 17 -12.5t21.5 -11.5t23 -8.5t20.5 -3.5q68 0 114 19.5t73.5 55.5t39.5 87t12 114 q0 14 -4.5 30.5t-12.5 33.5h-347v-189q0 -11 3.5 -27.5t9.5 -33.5t13.5 -31.5t16.5 -22.5zM106 251q0 -44 6 -81t21 -63.5t39 -41.5t60 -15q80 0 126 26.5t69 72t28.5 105.5t5.5 127v9h-301l6 -4q-9 -13 -19.5 -30t-19.5 -35t-15 -36t-6 -34z" />
<glyph unicode="T" horiz-adv-x="1279" d="M290 226q0 24 -1 47.5t-1 48.5q0 15 0.5 32.5t2.5 35.5h-276l-109 90h1358l109 -90h-186q27 -30 47 -64.5t20 -63.5q0 -56 -13 -105.5t-41 -86.5t-72 -58.5t-106 -21.5q-35 0 -67.5 10.5t-62 28.5t-55 42t-45.5 51q-28 -66 -81 -99t-124 -33q-60 0 -113 30t-94 73 q-18 -38 -41.5 -57.5t-51 -27.5t-59.5 -8.5t-66 -0.5q-30 0 -55 -4.5t-43 -17t-28.5 -36.5t-10.5 -63q0 -29 13 -60q-17 11 -36.5 25t-36.5 29t-28 31.5t-11 33.5q0 39 12.5 63t34 36.5t50.5 17t61 4.5h51q30 0 58 10.5t49.5 31.5t34.5 52.5t13 73.5zM931 50q68 0 114 19.5 t73.5 55.5t39.5 87t12 114q0 14 -4.5 30.5t-12.5 33.5h-347v-189q0 -26 8.5 -53t25 -49t39.5 -35.5t52 -13.5zM370 240q0 -34 6.5 -66t21.5 -57.5t39 -41t59 -15.5q80 0 126 25t69 68.5t28.5 102t5.5 125.5v9h-327q-7 -14 -12.5 -34t-9 -41t-5 -41t-1.5 -34z" />
<glyph unicode="U" horiz-adv-x="1279" d="M145 214q-19 0 -36 -7t-30.5 -19t-21.5 -29t-8 -36q0 -12 3 -22q-13 11 -26 24.5t-24 29t-18 32.5t-7 35t10 28t25 15.5t31.5 7t29.5 1.5h216q0 25 -0.5 55.5t2.5 60.5h-276l-109 90h1358l109 -90h-186q27 -30 47 -64.5t20 -63.5q0 -56 -13 -105.5t-41 -86.5t-72 -58.5 t-106 -21.5q-35 0 -67.5 10.5t-62 28.5t-55 42t-45.5 51q-28 -66 -81 -99t-124 -33q-60 0 -113 30t-94 73q-18 -38 -41.5 -57.5t-51 -27t-59.5 -7.5h-66q-30 0 -55 -4.5t-43 -17t-28.5 -36.5t-10.5 -63q0 -29 13 -60q-17 11 -36.5 25t-36.5 29t-28 31.5t-11 33.5 q0 39 12.5 63t34 36.5t50.5 17t61 4.5h51q30 0 58 8.5t49.5 27t34.5 47.5t13 71h-145zM931 50q68 0 114 19.5t73.5 55.5t39.5 87t12 114q0 14 -4.5 30.5t-12.5 33.5h-347v-189q0 -26 8.5 -53t25 -49t39.5 -35.5t52 -13.5zM370 240q0 -34 6.5 -66t21.5 -57.5t39 -41t59 -15.5 q80 0 126 25t69 68.5t28.5 102t5.5 125.5v9h-327q-7 -14 -12.5 -34t-9 -41t-5 -41t-1.5 -34z" />
<glyph unicode="V" horiz-adv-x="1015" d="M-94 480h1094l109 -90h-186q27 -30 47 -64.5t20 -63.5q0 -56 -13 -105.5t-41 -86.5t-72 -58.5t-106 -21.5q-35 0 -67.5 10.5t-62 28.5t-55 42t-45.5 51q-28 -66 -81 -99t-124 -33q-62 0 -115.5 31t-94.5 75q0 -42 -2.5 -86t-11 -85t-24.5 -77t-43 -63t-66.5 -42.5 t-94.5 -15.5q-26 0 -58.5 19.5t-61 48.5t-48 61.5t-19.5 58.5q0 14 11.5 23.5t22.5 14.5l74 -56q-11 -14 -21 -30t-10 -35q0 -17 8 -27t20.5 -15.5t27 -7.5t28.5 -2q42 0 72 17.5t51 46t33.5 65t19.5 75.5t9 77.5t2 69.5q0 46 -3.5 91.5t-3.5 91.5q0 38 16 76h-26zM667 50 q68 0 114 19.5t73.5 55.5t39.5 87t12 114q0 14 -4.5 30.5t-12.5 33.5h-347v-189q0 -26 8.5 -53t25 -49t39.5 -35.5t52 -13.5zM106 251q0 -44 6 -81t21 -63.5t39 -41.5t60 -15q80 0 126 26.5t69 72t28.5 105.5t5.5 127v9h-301l6 -4q-9 -13 -19.5 -30t-19.5 -35t-15 -36 t-6 -34z" />
<glyph unicode="W" horiz-adv-x="1463" d="M-94 480h1542l109 -90h-635q11 -13 22 -26.5t19 -27.5l268 -427q10 -15 25 -27.5t33 -12.5q19 0 36 6.5t28 18.5t14.5 28.5t-5.5 36.5q33 -22 54.5 -49.5t21.5 -69.5q0 -16 -8.5 -28.5t-21 -21t-28 -13t-29.5 -4.5q-31 0 -58 17t-43 43l-261 421q-1 -55 -14.5 -103 t-41.5 -84t-71.5 -56.5t-104.5 -20.5q-35 0 -67.5 10.5t-61.5 28.5t-54.5 42t-45.5 51q-29 -66 -81.5 -98t-124.5 -32q-62 0 -115 31t-94 76q0 -64 -7 -129.5t-31.5 -119t-72.5 -87.5t-131 -34q-26 0 -58.5 19.5t-61.5 48.5t-48.5 61.5t-19.5 58.5q0 14 12 23.5t23 14.5 l73 -56q-11 -14 -20.5 -30t-9.5 -35q0 -17 8 -27t20.5 -15.5t27 -7.5t27.5 -2q42 0 72.5 17.5t51 46t33.5 65.5t19.5 76t9 77t2.5 69q0 46 -3.5 91.5t-3.5 91.5q0 38 15 74h-25zM666 50q69 0 114.5 19.5t73.5 55.5t39.5 87t11.5 114q0 14 -4.5 30.5t-11.5 33.5h-348v-189 q0 -26 9 -53t25 -49t39 -35.5t52 -13.5zM105 251q0 -44 6.5 -81t21 -63.5t38.5 -41.5t60 -15q80 0 126 26.5t69 72t29 105.5t6 127v9h-302l6 -4q-9 -13 -19.5 -30t-19.5 -35t-15 -36t-6 -34z" />
<glyph unicode="X" horiz-adv-x="1463" d="M-94 480h1542l109 -90h-635q11 -13 22 -26.5t19 -27.5l268 -427q10 -15 25 -27.5t33 -12.5q19 0 36 6.5t28 18.5t14.5 28.5t-5.5 36.5q33 -22 54.5 -49.5t21.5 -69.5q0 -16 -8.5 -28.5t-21 -21t-28 -13t-29.5 -4.5q-31 0 -58 17t-43 43l-261 421q-1 -55 -14.5 -103 t-41.5 -84t-71.5 -56.5t-104.5 -20.5q-32 0 -61.5 9t-57 24t-52 35.5t-44.5 44.5q0 -133 1.5 -214t3.5 -129.5t4.5 -73.5l4.5 -45q-14 5 -31 15.5t-33.5 22.5t-32 24.5t-27.5 22.5q3 22 6.5 56.5t6 75t5 84.5t4.5 86q-28 -19 -61 -28.5t-71 -7.5q-62 0 -115 31t-94 76 q0 -64 -7 -129.5t-31.5 -119t-72.5 -87.5t-131 -34q-26 0 -58.5 19.5t-61.5 48.5t-48.5 61.5t-19.5 58.5q0 14 12 23.5t23 14.5l73 -56q-11 -14 -20.5 -30t-9.5 -35q0 -17 8 -27t20.5 -15.5t27 -7.5t27.5 -2q42 0 72.5 17.5t51 46t33.5 65.5t19.5 76t9 77t2.5 69 q0 46 -3.5 91.5t-3.5 91.5q0 38 15 74h-25zM666 50q69 0 114.5 19.5t73.5 55.5t39.5 87t11.5 114q0 14 -4.5 30.5t-11.5 33.5h-348l1 -203q0 -25 9 -49.5t25.5 -44t39.5 -31.5t50 -12zM231 50q70 0 114.5 20.5t69.5 56t34.5 84t9.5 104.5v75h-300l6 -4q-9 -13 -19.5 -30 t-19.5 -35t-15 -36t-6 -34q0 -44 6.5 -81t21 -63.5t38.5 -41.5t60 -15z" />
<glyph unicode="Y" horiz-adv-x="1271" d="M744 -8q-64 0 -118.5 33t-96.5 79q0 -133 1.5 -214.5t3.5 -130t4.5 -73.5l4.5 -45q-14 5 -31 15.5t-33.5 22.5t-32 24.5t-27.5 22.5q3 22 6.5 56.5t6 75.5t5 85.5t4.5 86.5q-59 -37 -132 -37q-42 0 -81 15.5t-73 39.5v-75q0 -71 2.5 -141.5t13.5 -141.5q-29 10 -60.5 33 t-55.5 43v624h-39l-109 90h1349l109 -90h-457q5 -5 9 -10.5t8 -10.5q12 -11 38 -39t55.5 -58t57 -53t42.5 -23q16 0 25.5 7t14.5 17.5t6.5 23.5t1.5 25q0 11 -4 19q33 -22 59.5 -54.5t26.5 -74.5q0 -23 -13.5 -38.5t-37.5 -15.5q-29 0 -55.5 19t-45.5 39l-130 139 q5 -20 7.5 -40.5t2.5 -39.5q0 -44 -15.5 -85.5t-45 -73.5t-73 -51.5t-98.5 -19.5zM653 53q61 0 105.5 16.5t74 46.5t44 71t14.5 88q0 27 -5 56t-14 59h-343v-159q0 -29 5.5 -60.5t19.5 -57.5t38 -43t61 -17zM218 53q66 0 110 18.5t70 51t37 75.5t11 92v100h-290v-314 q12 -6 30 -14.5t32 -8.5z" />
<glyph unicode="Z" horiz-adv-x="568" d="M-94 480h647l109 -90h-184q34 -37 49.5 -80t15.5 -88q0 -44 -15.5 -85.5t-45 -73.5t-73 -51.5t-98.5 -19.5q-42 0 -81 16t-73 40v-115q0 -63 3 -127.5t12 -125.5q-29 11 -60.5 33.5t-56.5 42.5v634h-40zM220 52q61 0 105.5 17t74 47t44 71t14.5 88q0 55 -18 115h-283 v-314q0 -4 7 -8t17 -7.5t21 -6t18 -2.5z" />
<glyph unicode="[" horiz-adv-x="568" d="M-94 480h647l109 -90h-184q34 -37 49.5 -80t15.5 -88q0 -44 -15.5 -85.5t-45 -73.5t-73 -51.5t-98.5 -19.5q-42 0 -81 16t-73 40v-5l234 -210q10 -9 21 -15t25 -6q16 0 25.5 7t14.5 17.5t7 23.5t2 25q0 9 -5 19q33 -22 59.5 -54.5t26.5 -74.5q0 -22 -11.5 -36.5 t-34.5 -14.5q-29 0 -57.5 18.5t-49.5 37.5l-257 233v-80q0 -63 3 -127.5t12 -125.5q-29 11 -60.5 33.5t-56.5 42.5l1 634h-41zM220 52q61 0 105.5 17t74 47t44 71t14.5 88q0 55 -18 115h-283v-314q0 -4 7 -8t17 -7.5t21 -6t18 -2.5z" />
<glyph unicode="\" horiz-adv-x="840" d="M-94 480h919l109 -90h-459q5 -5 9 -10.5t8 -10.5q12 -11 38 -39t55.5 -58t57 -53t42.5 -23q16 0 25.5 7t14.5 17.5t6.5 23.5t1.5 25q0 11 -4 19q33 -22 59.5 -54.5t26.5 -74.5q0 -23 -13.5 -38.5t-37.5 -15.5q-29 0 -55.5 19t-45.5 39l-130 139q5 -20 7.5 -40.5 t2.5 -39.5q0 -44 -15.5 -85.5t-45 -73.5t-73 -51.5t-98.5 -19.5q-42 0 -81 16t-73 40v-115q0 -63 3 -127.5t12 -125.5q-29 11 -60.5 33.5t-56.5 42.5v634h-40zM220 52q61 0 105.5 17t74 47t44 71t14.5 88q0 27 -5 56t-14 59h-282v-314q0 -4 7 -8t17 -7.5t21 -6t18 -2.5z" />
<glyph unicode="]" horiz-adv-x="568" d="M-94 480h647l109 -90h-184q34 -37 49.5 -80t15.5 -88q0 -36 -10 -70t-29.5 -63t-47.5 -51t-65 -34v-85q0 -17 1 -36t1 -38q0 -21 -3 -40.5t-12 -34t-25.5 -23.5t-43.5 -9q-17 0 -31.5 8.5t-27.5 21.5t-24 27.5t-19 26.5q22 -11 46 -11q27 0 41.5 10t22 26.5t9 37 t1.5 41.5q0 17 -0.5 33.5t-1.5 32.5h-14q-42 0 -81 16t-73 40v-115q0 -63 3 -127.5t12 -125.5q-29 11 -60.5 33.5t-56.5 42.5v634h-40zM220 52q61 0 105.5 17t74 47t44 71t14.5 88q0 55 -18 115h-283v-314q0 -4 7 -8t17 -7.5t21 -6t18 -2.5z" />
<glyph unicode="^" horiz-adv-x="568" d="M-94 480h647l109 -90h-184q34 -37 49.5 -80t15.5 -88q0 -44 -15.5 -85.5t-45 -73.5t-73 -51.5t-98.5 -19.5q-42 0 -81 16t-73 40v-115q0 -63 3 -127.5t12 -125.5q-29 11 -60.5 33.5t-56.5 42.5v634h-40zM157 76q0 -4 7 -8t17 -7.5t21 -6t18 -2.5q64 0 109.5 16.5t74 47 t41.5 74.5t13 99q0 16 -1 33t-3 34v1q-23 -20 -51.5 -45.5t-57.5 -52.5t-58 -53.5t-54 -50t-45 -42t-31 -28.5v-9zM372 390h-215v-199z" />
<glyph unicode="_" horiz-adv-x="919" d="M-94 480h998l109 -90h-182q32 -35 47.5 -78.5t15.5 -89.5q0 -44 -15.5 -85.5t-44.5 -73.5t-72 -51.5t-98 -19.5q-49 0 -93.5 20.5t-81.5 52.5q-34 -40 -80.5 -56.5t-97.5 -16.5q-42 0 -81 16t-73 40v-115q0 -63 3 -127.5t12 -125.5q-29 11 -60.5 33.5t-56.5 42.5v634h-40 zM220 52q61 0 105.5 17.5t74 47.5t44 70.5t14.5 87.5q0 57 -19 115h-282v-314q0 -4 7 -8t17 -7.5t21 -6t18 -2.5zM809 276q0 27 -4.5 56t-14.5 58h-311q32 -35 48 -79t16 -90q0 -36 -10.5 -72t-31.5 -68q4 -6 13 -11t20 -9t21.5 -6.5t17.5 -2.5q61 0 105.5 17.5t73.5 47.5 t43 71t14 88z" />
<glyph unicode="`" horiz-adv-x="919" d="M-94 480h998l109 -90h-182q32 -35 47.5 -78.5t15.5 -89.5q0 -44 -15.5 -85.5t-44.5 -73.5t-72 -51.5t-98 -19.5q-49 0 -93.5 20.5t-81.5 52.5q-34 -40 -80.5 -56.5t-97.5 -16.5q-42 0 -81 16t-73 40v-5l234 -210q10 -9 21 -15t25 -6q16 0 25.5 7t14.5 17.5t7 23.5t2 25 q0 9 -5 19q33 -22 59.5 -54.5t26.5 -74.5q0 -22 -11.5 -36.5t-34.5 -14.5q-29 0 -57.5 18.5t-49.5 37.5l-257 233v-80q0 -63 3 -127.5t12 -125.5q-29 11 -60.5 33.5t-56.5 42.5v634h-40zM220 52q61 0 105.5 17.5t74 47.5t44 70.5t14.5 87.5q0 57 -19 115h-282v-314 q0 -4 7 -8t17 -7.5t21 -6t18 -2.5zM809 276q0 27 -4.5 56t-14.5 58h-311q32 -35 48 -79t16 -90q0 -36 -10.5 -72t-31.5 -68q4 -6 13 -11t20 -9t21.5 -6.5t17.5 -2.5q61 0 105.5 17.5t73.5 47.5t43 71t14 88z" />
<glyph unicode="a" horiz-adv-x="1191" d="M-94 480h1270l109 -90h-459q5 -5 9 -10.5t8 -10.5q12 -11 38 -39t55.5 -58t57 -53t42.5 -23q16 0 25.5 7t14.5 17.5t6.5 23.5t1.5 25q0 11 -4 19q33 -22 59.5 -54.5t26.5 -74.5q0 -23 -13.5 -38.5t-37.5 -15.5q-29 0 -55.5 19t-45.5 39l-130 139q5 -20 7.5 -40.5 t2.5 -39.5q0 -44 -15.5 -85.5t-44.5 -73.5t-72 -51.5t-98 -19.5q-49 0 -93.5 20.5t-81.5 52.5q-34 -40 -80.5 -56.5t-97.5 -16.5q-42 0 -81 16t-73 40v-115q0 -63 3 -127.5t12 -125.5q-29 11 -60.5 33.5t-56.5 42.5v634h-40zM220 52q61 0 105.5 17.5t74 47.5t44 70.5 t14.5 87.5q0 57 -19 115h-282v-314q0 -4 7 -8t17 -7.5t21 -6t18 -2.5zM543 221q0 -36 -10.5 -72t-31.5 -68q4 -6 13 -11t20 -9t21.5 -6.5t17.5 -2.5q61 0 105.5 17.5t73.5 47.5t43 70.5t14 87.5q0 27 -5 56t-14 59h-311q32 -35 48 -79t16 -90z" />
<glyph unicode="b" horiz-adv-x="919" d="M-94 480h998l109 -90h-182q32 -35 47.5 -78.5t15.5 -89.5q0 -36 -10 -70t-29.5 -63t-47.5 -51t-65 -34v-85q0 -17 1 -36t1 -38q0 -21 -3 -40.5t-12 -34t-25.5 -23.5t-43.5 -9q-17 0 -31.5 8.5t-27.5 21.5t-24 27.5t-19 26.5q22 -11 46 -11q27 0 41.5 10t22 26.5t9 37 t1.5 41.5q0 17 -0.5 33.5t-1.5 32.5h-14q-49 0 -92.5 20.5t-80.5 52.5q-34 -40 -80.5 -56.5t-97.5 -16.5q-42 0 -81 16t-73 40v-115q0 -63 3 -127.5t12 -125.5q-29 11 -60.5 33.5t-56.5 42.5v634h-40zM220 52q61 0 105.5 17.5t74 47.5t44 70.5t14.5 87.5q0 57 -19 115h-282 v-314q0 -4 7 -8t17 -7.5t21 -6t18 -2.5zM543 221q0 -36 -10.5 -72t-31.5 -68q4 -6 13 -11t20 -9t21.5 -6.5t17.5 -2.5q61 0 105.5 17.5t73.5 47.5t43 71t14 88q0 27 -4.5 56t-14.5 58h-311q32 -35 48 -79t16 -90z" />
<glyph unicode="c" horiz-adv-x="919" d="M-94 480h998l109 -90h-182q32 -35 47.5 -78.5t15.5 -89.5q0 -44 -15.5 -85.5t-44.5 -73.5t-72 -51.5t-98 -19.5q-49 0 -93.5 20.5t-81.5 52.5q-34 -40 -80.5 -56.5t-97.5 -16.5q-42 0 -81 16t-73 40v-115q0 -63 3 -127.5t12 -125.5q-29 11 -60.5 33.5t-56.5 42.5v634h-40 zM543 221q0 -36 -10.5 -72t-31.5 -68q4 -6 13 -11t20 -9t21.5 -6.5t17.5 -2.5q61 0 105.5 17.5t73.5 47.5t43 71t14 88q0 27 -4.5 56t-14.5 58h-312q32 -35 48.5 -78.5t16.5 -90.5zM157 76q0 -4 7 -8t17 -7.5t21 -6t18 -2.5q64 0 109.5 16.5t74 47t41.5 74.5t13 99 q0 16 -1 33t-3 34v1q-23 -20 -51.5 -45.5t-57.5 -52.5t-58 -53.5t-54 -50t-45 -42t-31 -28.5v-9zM373 390h-216v-199z" />
<glyph unicode="d" horiz-adv-x="568" d="M-94 480h647l109 -90h-184q34 -37 49.5 -80t15.5 -88q0 -42 -13 -80.5t-39 -69.5q26 -35 39 -74t13 -79q0 -44 -15.5 -85.5t-45 -73.5t-73 -51.5t-98.5 -19.5q-42 0 -81 16t-73 40q0 -63 3 -127.5t12 -125.5q-29 11 -60.5 33.5t-56.5 42.5v822h-40zM220 52q61 0 105.5 17 t74 47t44 71t14.5 88q0 55 -18 115h-283v-314q0 -4 7 -8t17 -7.5t21 -6t18 -2.5zM157 -228q1 -4 8.5 -8t17.5 -7.5t20 -5.5t17 -2q61 0 105.5 17t74 47t44 71t14.5 88q0 30 -6 63q-28 -20 -63 -31.5t-78 -11.5q-42 0 -81 16t-73 40v-276z" />
<glyph unicode="e" horiz-adv-x="592" d="M-70 480h647l109 -90h-184q34 -37 49.5 -80t15.5 -88q0 -42 -13 -80.5t-39 -69.5q26 -35 39 -74t13 -79q0 -44 -15.5 -85.5t-45 -73.5t-73 -51.5t-98.5 -19.5q-42 0 -81 16t-73 40v-5l234 -210q10 -9 21 -15t25 -6q16 0 25.5 7t14.5 17.5t7 23.5t2 25q0 9 -5 19 q33 -22 59.5 -54.5t26.5 -74.5q0 -22 -11.5 -36.5t-34.5 -14.5q-29 0 -57.5 18.5t-49.5 37.5l-257 233q1 -54 4 -109.5t11 -108.5q-29 11 -60.5 33.5t-56.5 42.5v822h-40zM244 52q61 0 105.5 17t74 47t44 71t14.5 88q0 55 -18 115h-283v-314q0 -4 7 -8t17 -7.5t21 -6 t18 -2.5zM181 -227q1 -4 8 -8t17 -7.5t20.5 -6t17.5 -2.5q61 0 105.5 17t74 47t44 71t14.5 88q0 30 -6 63q-28 -20 -63 -31.5t-78 -11.5q-42 0 -81 16t-73 40v-275z" />
<glyph unicode="f" horiz-adv-x="568" d="M-94 480h647l109 -90h-184q34 -37 49.5 -80t15.5 -88q0 -42 -13 -80.5t-39 -69.5q26 -35 39 -74t13 -79q0 -42 -13 -80t-39 -70q26 -34 39 -73.5t13 -79.5q0 -44 -15.5 -85.5t-45 -73.5t-73 -51.5t-98.5 -19.5q-42 0 -81 16t-73 40q0 -63 3 -127.5t12 -125.5 q-29 11 -60.5 33.5t-56.5 42.5v1125h-40zM220 52q61 0 105.5 17t74 47t44 71t14.5 88q0 55 -18 115h-283v-314q0 -4 7 -8t17 -7.5t21 -6t18 -2.5zM311 -311q-42 0 -80.5 16t-72.5 40l-1 -276q1 -4 8.5 -8t17.5 -7.5t20 -5.5t17 -2q61 0 105.5 17t74 47t44 71t14.5 88 q0 31 -6 64q-28 -20 -63 -32t-78 -12zM311 -8q-42 0 -80 15.5t-72 38.5l-1 -275q3 -4 10.5 -8t17 -7t19 -5t15.5 -2q61 0 105.5 17t74 47t44 71t14.5 88q0 30 -6 63q-28 -20 -63 -31.5t-78 -11.5zM158 47l-1 1v-2z" />
<glyph unicode="g" horiz-adv-x="568" d="M-94 480h647l109 -90h-505v-344q14 -15 31.5 -30t38 -27t42 -20t42.5 -8q34 0 62.5 17t49.5 44t33 59.5t12 63.5q0 18 -6.5 38t-19 36.5t-29.5 27.5t-38 11t-40 -9t-36 -21l-48 64q3 6 8.5 13.5t12.5 14t14 11.5t15 5q26 0 54 -15.5t55 -40.5t51 -57t42.5 -65t29 -64.5 t10.5 -55.5q0 -28 -14 -55t-36 -48t-49.5 -33.5t-55.5 -12.5q-39 0 -70.5 10t-58.5 27t-52 40t-51 49v-21q0 -77 2.5 -157.5t13.5 -156.5q-29 11 -60.5 33.5t-56.5 42.5v634h-40z" />
<glyph unicode="h" horiz-adv-x="561" d="M-93 480h639l109 -90h-498v-221q9 -10 27 -27.5t41 -38.5t48 -43t48 -39.5t42.5 -29t31.5 -11.5q18 0 29 7t18 18.5t9.5 25.5t2.5 29q0 12 -4 20q19 -11 34.5 -22.5t27 -26t18 -32t6.5 -41.5q0 -27 -14.5 -45.5t-43.5 -18.5q-30 0 -56 13.5t-48 32.5q-56 47 -111 93.5 t-106 97.5l-1 -165q0 -69 2.5 -143t13.5 -143q-29 11 -60.5 33.5t-56.5 42.5v634h-39z" />
<glyph unicode="i" horiz-adv-x="448" d="M-93 480h524l109 -90h-383v-94q10 -9 26.5 -24.5t34 -31t35 -27t30.5 -11.5q16 0 25.5 6.5t14.5 17t6.5 23.5t1.5 25q0 5 -1 9.5t-3 9.5q33 -22 59.5 -54.5t26.5 -74.5q0 -23 -13 -38t-37 -15q-29 0 -56.5 16t-47.5 36l-102 104v-179q10 -9 27.5 -27t37 -36.5t38.5 -32 t33 -13.5q24 0 35.5 17t11.5 39q0 15 -4 26q34 -20 60.5 -48.5t26.5 -70.5q0 -23 -13.5 -38.5t-37.5 -15.5q-29 0 -56 16.5t-46 36.5l-113 119v-127q0 -63 3 -127.5t12 -125.5q-29 11 -60.5 33.5t-56.5 42.5v634h-39z" />
<glyph unicode="j" horiz-adv-x="448" d="M-93 480h524l109 -90h-383v-29q11 -9 28.5 -27.5t36.5 -36.5t38 -31.5t33 -13.5q17 0 29 11t12 28q0 8 -1 11q23 -14 49.5 -39.5t40.5 -49.5q0 -23 -14 -37.5t-37 -14.5q-29 0 -56 16.5t-46 36.5l-113 118v-133q11 -9 28.5 -27t36.5 -36t38 -31.5t33 -13.5q17 0 29 11 t12 28q0 7 -1 11q23 -15 49.5 -40.5t40.5 -48.5q0 -23 -14 -38t-37 -15q-29 0 -56 16.5t-46 36.5l-113 119v-133q11 -9 28.5 -27.5t36.5 -36.5t38 -31.5t33 -13.5q17 0 29 11.5t12 28.5q0 7 -1 11q23 -15 49.5 -40.5t40.5 -49.5q0 -23 -14 -37.5t-37 -14.5q-29 0 -56 16.5 t-46 36.5l-113 119v-77q0 -63 3 -127.5t12 -125.5q-29 11 -60.5 33.5t-56.5 42.5v634h-39z" />
<glyph unicode="k" horiz-adv-x="440" d="M-93 480h518l109 -90h-376v-79q12 5 22 7t20 2q23 0 44.5 -6.5t41.5 -17.5q28 -16 51.5 -33t41 -38t27 -47.5t9.5 -61.5q0 -21 -9 -35t-23 -23.5t-31.5 -15t-34.5 -7.5q46 -31 72 -67t26 -94q0 -23 -11 -39t-27.5 -25.5t-37 -13.5t-39.5 -4q-38 0 -72.5 13t-60.5 39l-8 6 q2 -40 5 -85t9 -85q-29 11 -61 33.5t-57 42.5v634h-39zM158 -62q0 -45 21 -76t70 -31q20 0 36.5 8.5t28 22t18 31t6.5 36.5q0 57 -37.5 88.5t-92.5 31.5q-14 0 -27 -4t-23 -13v-94zM158 111q6 -7 17.5 -14t25 -12t26.5 -8.5t22 -3.5q20 0 36.5 8.5t28 22t18 31t6.5 36.5 q0 22 -5.5 41t-17 33.5t-28.5 23t-41 8.5q-26 0 -42.5 -10.5t-27 -27t-14.5 -37.5t-4 -43v-48z" />
<glyph unicode="l" horiz-adv-x="651" d="M-94 480h730l109 -90h-588l-1 -283q0 -37 24.5 -62.5t62.5 -25.5q24 0 37 18.5t19.5 44t8 52.5t3.5 44l81 -20q-2 -10 -3.5 -19t-1.5 -18q0 -20 6.5 -38t18 -32.5t28.5 -23t38 -8.5q24 0 37 18.5t19.5 44t8 52.5t2.5 44l81 -20q-2 -29 -6.5 -60t-16.5 -57.5t-33.5 -43.5 t-57.5 -17q-18 0 -38 7t-39.5 18t-37.5 23.5t-31 24.5q-6 -13 -15.5 -26.5t-21 -25t-25.5 -18.5t-30 -7q-12 0 -28.5 6t-33 15t-32 19t-24.5 18v-81q-1 -66 2.5 -136.5t13.5 -136.5q-29 10 -61 33t-56 43v634h-40z" />
<glyph unicode="m" horiz-adv-x="788" d="M-94 480h867l109 -90h-134v-339q0 -63 3 -127.5t12 -125.5q-29 11 -60.5 33.5t-56.5 42.5q-23 27 -50 54.5t-60 61.5q1 -48 4 -96.5t10 -95.5q-29 11 -60.5 33.5t-56.5 42.5v217q-20 19 -47.5 43t-57.5 49v-132q0 -63 3 -127.5t12 -125.5q-29 11 -60.5 33.5t-56.5 42.5 v386q-20 14 -36 21.5t-26 7.5q-18 0 -29 -6.5t-17.5 -18t-9 -25.5t-2.5 -29q0 -11 4 -19q-38 22 -61.5 48.5t-23.5 73.5q0 26 12 42.5t40 16.5q26 0 65 -21.5t84 -53.5v93h-211zM646 390h-111v-366q35 -33 61.5 -59.5l49.5 -49.5v475zM433 390h-105v-174q30 -26 57 -49.5 t48 -42.5v266z" />
<glyph unicode="n" horiz-adv-x="581" d="M-94 480h660l109 -90h-163v-276v-202.5t15 -201.5q-29 11 -60.5 33.5t-56.5 42.5v204q-14 13 -32 28t-38.5 27.5t-41.5 21t-41 8.5q-34 0 -63 -17t-50 -44t-33 -59.5t-12 -63.5q0 -18 7 -38.5t19 -37t29.5 -27.5t38.5 -11t40 9t36 22l57 -65q-11 -12 -22 -22 q-9 -8 -19 -15t-18 -7q-26 0 -54 15.5t-55 40.5t-51 57.5t-42.5 65.5t-29 64.5t-10.5 55.5q0 28 14 54.5t36 47.5t49.5 33.5t54.5 12.5q40 0 71 -9.5t58 -26.5t51.5 -40t50.5 -49v369h-395z" />
<glyph unicode="o" horiz-adv-x="581" d="M-94 480h660l109 -90h-163v-276v-202.5t15 -201.5q-29 11 -60.5 33.5t-56.5 42.5v204q-14 13 -32 28t-38.5 27.5t-41.5 21t-41 8.5q-34 0 -63 -17t-50 -44t-33 -59.5t-12 -63.5q0 -18 7 -38.5t19 -37t29.5 -27.5t38.5 -11t40 9t36 22l57 -65q-11 -12 -22 -22 q-9 -8 -19 -15t-18 -7q-26 0 -54 15.5t-55 40.5t-51 57.5t-42.5 65.5t-29 64.5t-10.5 55.5q0 28 14 54.5t36 47.5t49.5 33.5t54.5 12.5q40 0 71 -9.5t58 -26.5t51.5 -40t50.5 -49v216q-66 -3 -122.5 -7t-121.5 -4q-24 0 -40.5 7t-28 20t-18 30t-11.5 38q83 -17 170 -22 t172 -7v98h-395z" />
<glyph unicode="p" horiz-adv-x="581" d="M-94 480h660l109 -90h-163v-423q0 -78 2 -155t13 -154q-28 10 -60.5 25.5t-59.5 25.5h-355q-19 19 -35 38q-14 16 -27 34.5t-18 32.5q27 -6 63 -9t81 -5q-20 24 -36.5 51t-28.5 53t-19 50.5t-7 43.5q0 28 14 54.5t36 47.5t49.5 33.5t54.5 12.5q40 0 71 -9.5t58 -26.5 t51.5 -40t50.5 -49v369h-395zM99 -109q0 -23 10.5 -48.5t29.5 -43.5h79q48 0 96 0.5t96 0.5v190q-14 13 -32 28t-38.5 27.5t-41.5 21t-41 8.5q-34 0 -63 -17t-50 -44t-33 -59.5t-12 -63.5z" />
<glyph unicode="q" horiz-adv-x="920" d="M-94 480h999l109 -90h-164v-274v-203.5t15 -202.5q-29 11 -60 33.5t-56 42.5v203q-14 13 -31.5 27.5t-37.5 27.5t-40.5 21.5t-40.5 8.5q-34 0 -62 -17.5t-48.5 -44.5t-32 -59.5t-11.5 -62.5q0 -18 6.5 -38t18.5 -37t29 -28t38 -11q20 0 38.5 9t35.5 21l56 -64 q-11 -12 -22 -22q-9 -8 -19 -15t-17 -7q-26 0 -54 15.5t-54 41t-49.5 58t-41 66t-27.5 65t-10 55.5q0 14 -14.5 27.5t-34 24t-40 17t-32.5 6.5q-33 0 -61.5 -17.5t-49.5 -44.5t-32.5 -59.5t-11.5 -62.5q0 -18 6.5 -38t18.5 -37t29 -28t38 -11t39.5 9t35.5 21l56 -64 q-11 -12 -22 -22q-9 -8 -19 -15t-17 -7q-26 0 -53.5 15.5t-54 41t-50 57.5t-41 65t-28 64.5t-10.5 55.5q0 28 13 54.5t34.5 47.5t48.5 33.5t55 12.5q35 0 62.5 -7t51 -20.5t45.5 -32.5t46 -42q11 19 26 37.5t33 32.5t39 23t44 9q39 0 70 -9.5t57 -26.5t50 -40t49 -49v370 h-734z" />
<glyph unicode="r" horiz-adv-x="920" d="M-94 480h999l109 -90h-164v-274v-203.5t15 -202.5q-29 11 -60 33.5t-56 42.5v213q-14 13 -31.5 27.5t-37.5 27.5t-40.5 21.5t-40.5 8.5q-34 0 -62 -17.5t-48.5 -44.5t-32 -59.5t-11.5 -62.5q0 -18 6.5 -38t18.5 -37t29 -28t38 -11q20 0 38.5 9t35.5 21l56 -64 q-11 -12 -22 -22q-9 -8 -19 -15t-17 -7q-26 0 -54 15.5t-54 41t-49.5 58t-41 66t-27.5 65t-10 55.5q0 14 -14.5 27.5t-34 24t-40 17t-32.5 6.5q-33 0 -61.5 -17.5t-49.5 -44.5t-32.5 -59.5t-11.5 -62.5q0 -18 6.5 -38t18.5 -37t29 -28t38 -11t39.5 9t35.5 21l56 -64 q-11 -12 -22 -22q-9 -8 -19 -15t-17 -7q-26 0 -53.5 15.5t-54 41t-50 57.5t-41 65t-28 64.5t-10.5 55.5q0 28 13 54.5t34.5 47.5t48.5 33.5t55 12.5q35 0 62.5 -7t51 -20.5t45.5 -32.5t46 -42q11 19 26 37.5t33 32.5t39 23t44 9q39 0 70 -9.5t57 -26.5t50 -40t49 -49v207 q-22 -1 -58 -2t-79.5 -2.5t-90 -2.5t-89.5 -2t-79 -1.5t-58 -0.5q-24 0 -40.5 7t-28 20t-18 30t-11.5 38q27 -6 71 -10t95.5 -7t108 -5t108.5 -3.5t96.5 -2t72.5 -1.5v98h-734z" />
<glyph unicode="s" horiz-adv-x="920" d="M-94 480h999l109 -90h-164v-423q0 -78 2 -155t13 -154q-28 10 -60.5 25.5t-59.5 25.5h-694q-19 19 -35 38q-14 16 -27 34.5t-18 32.5q17 -4 57 -6.5t91 -4.5q-41 50 -68 102.5t-27 92.5q0 28 13 54.5t34.5 47.5t48.5 33.5t55 12.5q35 0 62.5 -7t51 -20.5t45.5 -32.5 t46 -42q11 19 26 37.5t33 32.5t39 23t44 9q39 0 70 -9.5t57 -26.5t50 -40t49 -49v369h-733zM96 -109q0 -26 12.5 -49t35.5 -40q82 -2 163 -2.5t163 -0.5q-42 51 -70 105.5t-28 95.5q0 14 -14.5 27.5t-34 24t-40 17t-32.5 6.5q-33 0 -61.5 -17.5t-49.5 -44.5t-32.5 -59.5 t-11.5 -62.5zM444 -109q0 -27 14 -51.5t39 -39.5h251v190q-14 13 -31.5 27.5t-37.5 27.5t-40.5 21.5t-40.5 8.5q-34 0 -62 -17.5t-48.5 -44.5t-32 -59.5t-11.5 -62.5z" />
<glyph unicode="t" horiz-adv-x="582" d="M-92 480h659l109 -90h-164v-584q0 -78 2 -155t13 -154q-28 10 -60.5 25.5t-59.5 25.5h-355q-19 19 -35 38q-14 16 -27 34.5t-18 32.5q27 -6 63 -9t81 -5q-20 24 -36.5 51t-28.5 53t-19 50.5t-7 43.5q0 23 9.5 45.5t25.5 41.5t37 33t44 22q-24 25 -45 55t-37 60.5t-25 59 t-9 50.5q0 28 14 54.5t36 47.5t49.5 33.5t54.5 12.5q40 0 71 -9.5t58 -26.5t51.5 -40t50.5 -49v163h-393zM99 97q0 -14 6 -33t17 -36.5t25.5 -30t31.5 -12.5q40 0 71 -9.5t58 -26.5t51.5 -40t50.5 -49v336q-14 13 -32 28t-38.5 27.5t-41.5 21t-41 8.5q-34 0 -63 -17t-50 -44 t-33 -59.5t-12 -63.5zM99 -270q0 -23 10.5 -48.5t29.5 -43.5h79q48 0 96 0.5t96 0.5v190q-14 13 -32 28t-38.5 27.5t-41.5 21t-41 8.5q-34 0 -63 -17t-50 -44t-33 -59.5t-12 -63.5z" />
<glyph unicode="u" horiz-adv-x="581" d="M-93 480h659l109 -90h-163v-640q0 -76 2 -152.5t13 -151.5q-29 11 -60.5 32.5t-56.5 41.5v199q-14 13 -32 28t-38.5 27.5t-41.5 21t-41 8.5q-34 0 -63 -17t-50 -44t-33 -59.5t-12 -63.5q0 -18 7 -38.5t19 -37t29.5 -27.5t38.5 -11t40 9t36 22l57 -65q-11 -12 -22 -22 q-9 -8 -19 -15t-18 -7q-26 0 -54 15.5t-55 40.5t-51 57.5t-42.5 65.5t-29 64.5t-10.5 55.5q0 28 14 54.5t36 47.5t49.5 33.5t54.5 12.5q40 0 71 -9.5t58 -26.5t51.5 -40t50.5 -49v446q-14 13 -32 28t-38.5 27.5t-41.5 21t-41 8.5q-34 0 -63 -17t-50 -44t-33 -59.5t-12 -63.5 q0 -18 7 -38.5t19 -37t29.5 -27.5t38.5 -11t40 9t36 22l57 -65q-11 -12 -22 -22q-9 -8 -19 -15t-18 -7q-26 0 -54 15.5t-55 40.5t-51 57.5t-42.5 65.5t-29 64.5t-10.5 55.5q0 28 14 54.5t36 47.5t49.5 33.5t54.5 12.5q40 0 71 -9.5t58 -26.5t51.5 -40t50.5 -49v163h-394z " />
<glyph unicode="v" horiz-adv-x="598" d="M-94 480h677l109 -90h-163v-453q0 -64 1.5 -129t12.5 -128q-29 11 -60 33t-56 43v183q-11 -15 -30 -34.5t-41.5 -36t-46.5 -28t-45 -11.5q-24 0 -54 9.5t-62 26.5t-62 39t-54 47.5t-38.5 52.5t-14.5 53q0 7 5 14.5t12.5 14t15 12t13.5 8.5l65 -47q-12 -16 -21.5 -35 t-9.5 -39q0 -21 10 -36.5t25 -26t33.5 -15.5t36.5 -5q57 0 99.5 24.5t72.5 64.5t49 92t29.5 106t13 106.5t0.5 94.5h-413z" />
<glyph unicode="w" horiz-adv-x="461" d="M-94 480h540l109 -90h-163v-401q0 -78 2 -155t13 -154q-29 10 -60.5 33t-55.5 43v109q-11 9 -27 24.5t-33.5 31t-35 27t-30.5 11.5q-16 0 -25.5 -6.5t-14.5 -17t-6.5 -23.5t-1.5 -25q0 -5 1 -9.5t3 -9.5q-33 22 -59.5 54.5t-26.5 74.5q0 23 13 38t37 15q29 0 56.5 -16 t47.5 -36l102 -104v179q-11 9 -28 27t-36.5 36.5t-38.5 32t-33 13.5q-24 0 -35.5 -17t-11.5 -39q0 -15 4 -26q-34 20 -60.5 48.5t-26.5 70.5q0 23 13.5 38.5t37.5 15.5q29 0 56 -16.5t46 -36.5l113 -119v289h-276z" />
<glyph unicode="x" horiz-adv-x="461" d="M-94 480h540l109 -90h-163v-401q0 -78 2 -155t13 -154q-29 10 -60.5 33t-55.5 43v44q-11 9 -28.5 27.5t-36.5 36.5t-38 31.5t-33 13.5q-17 0 -29 -11t-12 -28q0 -8 1 -11q-23 14 -49.5 39.5t-40.5 49.5q0 23 14 37.5t37 14.5q29 0 56 -16.5t46 -36.5l113 -118v133 q-11 9 -28.5 27t-36.5 36t-38 31.5t-33 13.5q-17 0 -29 -11t-12 -28q0 -7 1 -11q-23 15 -49.5 40.5t-40.5 48.5q0 23 14 38t37 15q29 0 56 -16.5t46 -36.5l113 -119v133q-11 9 -28.5 27.5t-36.5 36.5t-38 31.5t-33 13.5q-17 0 -29 -11.5t-12 -28.5q0 -7 1 -11 q-23 15 -49.5 40.5t-40.5 49.5q0 23 14 37.5t37 14.5q29 0 56 -16.5t46 -36.5l113 -119v239h-276z" />
<glyph unicode="y" horiz-adv-x="467" d="M-94 480h546l109 -90h-165l1 -401q0 -77 2 -155t14 -154q-32 11 -68 33.5t-64 42.5v233q-20 -9 -42 -9q-40 0 -78.5 17t-68.5 45.5t-48.5 65.5t-18.5 76q0 23 10.5 39t27 25.5t37 13.5t39.5 4t41 -4.5t42 -14t35.5 -23.5t23.5 -33v199h-266zM101 129q0 -44 27 -74.5 t75 -30.5q25 0 40 8t23.5 21.5t11.5 32t3 39.5q0 43 -28.5 73t-73.5 30q-20 0 -34.5 -8.5t-24 -22.5t-14.5 -31.5t-5 -36.5z" />
<glyph unicode="z" horiz-adv-x="467" d="M-94 480h546l109 -90h-165l1 -401q0 -77 2 -155t14 -154q-32 11 -68 33.5t-64 42.5v233q-20 -9 -42 -9q-40 0 -78.5 17t-68.5 45.5t-48.5 65.5t-18.5 76q0 23 10.5 39t27 25.5t37 13.5t39.5 4t41 -4.5t42 -14t35.5 -23.5t23.5 -33v199h-266zM281 125q0 19 -6 37 q-14 -9 -31.5 -25.5t-35 -35t-33 -36t-24.5 -29.5q22 -12 52 -12q25 0 40 8t23.5 21.5t11.5 32t3 39.5zM101 129q0 -9 1.5 -17t3.5 -16q10 15 25 32t32 33.5t33.5 31t29.5 24.5q-22 11 -47 11q-20 0 -34.5 -8.5t-24 -22.5t-14.5 -31.5t-5 -36.5z" />
<glyph unicode="{" horiz-adv-x="467" d="M-94 480h546l109 -90h-165v-401q0 -77 2.5 -155t14.5 -154q-32 11 -68 33.5t-64 42.5v233q-20 -9 -42 -9q-28 0 -54 10.5t-49 24.5q-20 -19 -41.5 -43t-41 -51t-35 -55t-23.5 -54q-1 -2 -1.5 -2t-0.5 2q-1 68 17.5 132.5t60.5 119.5q-24 25 -35 55t-11 65q0 23 10.5 39 t27 25.5t37 13.5t39.5 4t41 -4.5t42 -14t35.5 -23.5t23.5 -33v199h-266zM281 125q0 19 -6 37q-14 -9 -31.5 -25.5t-35 -35t-33 -36t-24.5 -29.5q22 -12 52 -12q25 0 40 8t23.5 21.5t11.5 32t3 39.5zM101 129q0 -9 1.5 -17t3.5 -16q10 15 25 32t32 33.5t33.5 31t29.5 24.5 q-22 11 -47 11q-20 0 -34.5 -8.5t-24 -22.5t-14.5 -31.5t-5 -36.5z" />
<glyph unicode="|" horiz-adv-x="467" d="M-94 480h546l109 -90h-165v-401q0 -77 2.5 -155t14.5 -154q-32 11 -68 33.5t-64 42.5v76q-21 -8 -42 -8q-41 0 -79.5 17t-68.5 45.5t-48 65t-18 76.5q0 21 8.5 35t22.5 23.5t31.5 15t34.5 7.5q-46 31 -71.5 67t-25.5 94q0 23 10.5 38.5t27 25t37 13.5t39.5 4t41 -4.5 t42 -13.5t35.5 -23t23.5 -33v113h-266zM101 215q2 -59 37.5 -89.5t92.5 -30.5q14 0 26.5 4t23.5 13v99q0 44 -22 73t-70 29q-20 0 -36 -8.5t-27.5 -22t-18 -31t-6.5 -36.5zM101 -27q0 -44 22.5 -75t69.5 -31q25 0 42 10.5t27.5 27t14.5 37.5t4 43v48q-6 7 -17.5 14t-25 12 t-27 8.5t-22.5 3.5q-20 0 -36 -8.5t-27.5 -22t-18 -31t-6.5 -36.5z" />
<glyph unicode="}" horiz-adv-x="679" d="M-94 480h758l109 -90h-165v-401q0 -77 2.5 -155t14.5 -154q-16 5 -33.5 13.5t-34.5 19t-33.5 22t-29.5 21.5v235q-9 -4 -18.5 -6.5t-19.5 -2.5q-15 0 -35 8t-40 19.5t-37.5 24.5t-29.5 23q-6 -13 -15.5 -26.5t-21 -25t-25.5 -18.5t-30 -7q-19 0 -36 8.5t-34 18.5 q-27 16 -50 32t-40 36.5t-27 46t-10 59.5l79 -19q-3 -15 -3 -31q0 -20 5 -39t15.5 -33.5t27 -23.5t38.5 -9q28 0 42.5 17t20.5 41.5t6.5 51t2.5 45.5l81 -20q-1 -9 -3 -18t-2 -18q0 -19 6 -37t17 -31.5t27 -22t37 -8.5t35 12t22 29t11.5 37t3.5 37v249h-479z" />
<glyph unicode="~" horiz-adv-x="934" d="M16 390l-109 90h1012l109 -90h-313v-316q13 0 32.5 -11t41 -29t43 -40.5t38.5 -46.5t28 -47t11 -41q0 -29 -13 -53t-45 -24q-42 0 -84 14.5t-76.5 40.5t-56 62t-21.5 80v21h-292q0 -60 -4.5 -101.5t-15.5 -67.5t-29.5 -37.5t-45.5 -11.5q-33 0 -68.5 9.5t-65 28.5 t-48.5 47.5t-19 66.5q0 36 17 62t44 43.5t60.5 26t65.5 8.5h7v316h-203zM613 74v316h-292v-316h292zM92 -101q0 -48 17 -67t47 -19q29 0 46 35.5t17 101.5v50q-56 0 -91.5 -26.5t-35.5 -74.5zM715 -109q0 -35 15.5 -50.5t34.5 -15.5q13 0 27 4t25.5 13t19 23t7.5 34 q0 49 -30 75t-99 26v-109z" />
<glyph unicode="&#xa1;" horiz-adv-x="724" d="M-94 480h803l109 -90h-365v-69q43 -6 87 -22.5t79 -43.5t57.5 -64t22.5 -83q0 -32 -11.5 -54.5t-31 -36.5t-46 -20.5t-57.5 -6.5q-44 0 -87 5t-87 5h-239q-51 0 -77 30t-38 75q81 -16 162 -22t163 -9v142q-40 -3 -79.5 -7.5t-80.5 -4.5q-24 0 -39.5 9t-26 24t-17 33.5 t-11.5 37.5q63 -14 126.5 -20.5t127.5 -8.5v111h-335zM524 274q-23 0 -39 -9.5t-32 -24.5v-66q0 -53 3 -86q1 -19 3 -35q24 3 50.5 12.5t49 25.5t37.5 38.5t15 51.5q0 13 -7.5 29.5t-20 30.5t-28 23.5t-31.5 9.5z" />
<glyph unicode="&#xa2;" horiz-adv-x="1034" d="M-95 480h1114l109 -90h-365v-69q43 -6 87 -22.5t79 -43.5t57.5 -64t22.5 -83q0 -32 -11.5 -54.5t-31 -36.5t-46 -20.5t-57.5 -6.5q-40 0 -80 5t-81 5h-581q-51 0 -77 30t-38 75q81 -16 162 -22t163 -9v316h-317zM661 68v322h-228v-318zM834 274q-23 0 -39 -9.5t-32 -24.5 v-66q0 -53 3 -86q1 -19 3 -35q24 3 50.5 12.5t49 25.5t37.5 38.5t15 51.5q0 13 -7.5 29.5t-20 30.5t-28 23.5t-31.5 9.5z" />
<glyph unicode="&#xa3;" horiz-adv-x="1034" d="M-95 480h1114l109 -90h-365v-69q43 -6 87 -22.5t79 -43.5t57.5 -64t22.5 -83q0 -32 -11.5 -54.5t-31 -36.5t-46 -20.5t-57.5 -6.5q-40 0 -80 5t-81 5h-581q-51 0 -77 30t-38 75q81 -16 162 -22t163 -9v142q-40 -3 -79.5 -7.5t-80.5 -4.5q-24 0 -39.5 9t-26 24t-17 33.5 t-11.5 37.5q63 -14 126.5 -20.5t127.5 -8.5v111h-317zM661 68v322h-228v-318zM834 274q-23 0 -39 -9.5t-32 -24.5v-66q0 -53 3 -86q1 -19 3 -35q24 3 50.5 12.5t49 25.5t37.5 38.5t15 51.5q0 13 -7.5 29.5t-20 30.5t-28 23.5t-31.5 9.5z" />
<glyph unicode="&#xa4;" horiz-adv-x="1034" d="M-95 480h1114l109 -90h-365v-69q43 -6 87 -22.5t79 -43.5t57.5 -64t22.5 -83q0 -32 -11.5 -54.5t-31 -36.5t-46 -20.5t-57.5 -6.5q-40 0 -80 5t-81 5h-671q-51 0 -77 30t-38 75q81 -16 162 -22t163 -9v316h-227zM661 67v323h-111v-321zM448 70v320h-105v-318zM834 274 q-23 0 -39 -9.5t-32 -24.5v-66q0 -53 3 -86q1 -19 3 -35q24 3 50.5 12.5t49 25.5t37.5 38.5t15 51.5q0 13 -7.5 29.5t-20 30.5t-28 23.5t-31.5 9.5z" />
<glyph unicode="&#xa5;" horiz-adv-x="1034" d="M-95 480h1114l109 -90h-365v-69q43 -6 87 -22.5t79 -43.5t57.5 -64t22.5 -83q0 -32 -11.5 -54.5t-31 -36.5t-46 -20.5t-57.5 -6.5q-40 0 -80 5t-81 5h-671q-51 0 -77 30t-38 75q81 -16 162 -22t163 -9v142q-40 -3 -79.5 -7.5t-80.5 -4.5q-24 0 -39.5 9t-26 24t-17 33.5 t-11.5 37.5q63 -14 126.5 -20.5t127.5 -8.5v111h-227zM661 67v323h-111v-321zM448 70v320h-105v-318zM834 274q-23 0 -39 -9.5t-32 -24.5v-66q0 -53 3 -86q1 -19 3 -35q24 3 50.5 12.5t49 25.5t37.5 38.5t15 51.5q0 13 -7.5 29.5t-20 30.5t-28 23.5t-31.5 9.5z" />
<glyph unicode="&#xa6;" horiz-adv-x="725" d="M-93 480h803l109 -90h-365v-69q43 -6 87 -22.5t79 -43.5t57.5 -64t22.5 -83q0 -45 -20.5 -70.5t-55.5 -36.5q40 -31 58 -62.5t18 -79.5q0 -32 -11.5 -54.5t-31 -36.5t-46 -20.5t-57.5 -6.5q-44 0 -87 5t-87 5h-249q-26 0 -43.5 6.5t-29 18.5t-19.5 29.5t-14 40.5 q81 -17 162.5 -22.5t163.5 -9.5v576h-335zM525 25q-23 0 -39 -9.5t-32 -24.5v-66q0 -53 3 -86q1 -19 3 -35q24 3 50.5 12.5t49 25.5t37.5 38.5t15 51.5q0 13 -7.5 29.5t-20 30.5t-28 23.5t-31.5 9.5zM525 274q-23 0 -39 -9.5t-32 -24.5v-167q14 -2 27 -4.5t24 -5.5 q20 7 39.5 17.5t34.5 25.5t24 33.5t9 41.5q0 13 -7.5 29.5t-20 30.5t-28 23.5t-31.5 9.5z" />
<glyph unicode="&#xa7;" horiz-adv-x="725" d="M-93 480h803l109 -90h-365v-69q43 -6 87 -22.5t79 -43.5t57.5 -64t22.5 -83q0 -45 -20.5 -70.5t-55.5 -36.5q40 -31 58 -62.5t18 -79.5q0 -32 -11.5 -54.5t-31 -36.5t-46 -20.5t-57.5 -6.5q-44 0 -87 5t-87 5h-249q-26 0 -43.5 6.5t-29 18.5t-19.5 29.5t-14 40.5 q81 -17 162.5 -22.5t163.5 -9.5v198q-40 -3 -79.5 -7.5t-80.5 -4.5q-24 0 -40 9t-26.5 24t-17 33.5t-10.5 37.5q63 -14 126.5 -20.5t127.5 -8.5v315h-335zM525 25q-23 0 -39 -9.5t-32 -24.5v-66q0 -53 3 -86q1 -19 3 -35q24 3 50.5 12.5t49 25.5t37.5 38.5t15 51.5 q0 13 -7.5 29.5t-20 30.5t-28 23.5t-31.5 9.5zM525 274q-23 0 -39 -9.5t-32 -24.5v-167q14 -2 27 -4.5t24 -5.5q20 7 39.5 17.5t34.5 25.5t24 33.5t9 41.5q0 13 -7.5 29.5t-20 30.5t-28 23.5t-31.5 9.5z" />
<glyph unicode="&#xa8;" horiz-adv-x="849" d="M-94 480h928l109 -90h-365v-69q43 -6 87 -22.5t79 -43.5t57.5 -64t22.5 -83q0 -32 -11.5 -54.5t-31 -36.5t-46 -20.5t-57.5 -6.5q-44 0 -87 5t-87 5h-347v-66q0 -63 3 -127.5t12 -125.5q-29 11 -60.5 33.5t-56.5 42.5v633h-40zM157 85q78 -9 159 -10t159 -1v316h-318 v-305zM649 274q-23 0 -39 -9.5t-32 -24.5v-66q0 -53 3 -86q1 -19 3 -35q24 3 50.5 12.5t49 25.5t37.5 38.5t15 51.5q0 13 -7.5 29.5t-20 30.5t-28 23.5t-31.5 9.5z" />
<glyph unicode="&#xa9;" horiz-adv-x="692" d="M-94 480h771l109 -90h-431v-108q0 -39 -0.5 -67.5t-2 -51t-3.5 -40t-6 -35.5q48 -3 105 -13t105.5 -34t81 -66t32.5 -110q0 -27 -13 -50l-88 66q14 15 26.5 38t12.5 45q0 14 -8 22t-20 12t-25 5t-23 1q-26 0 -50.5 -2t-50.5 -2h-192q-40 0 -78 13.5t-67.5 37.5t-47.5 57 t-18 72q0 38 25 60t60.5 33t74.5 14t68 3v100h-238zM110 130q0 -89 76 -89q24 0 37 15t20 38.5t8.5 51.5t1.5 54v32q-70 -6 -106.5 -29t-36.5 -73z" />
<glyph unicode="&#xaa;" horiz-adv-x="795" d="M-94 480h874l109 -90h-432v-351q28 -25 66.5 -58t76.5 -62t70 -49.5t48 -20.5q18 0 29 6.5t17.5 18t9 25.5t2.5 29q0 11 -4 19q19 -11 34.5 -22.5t26.5 -26t17.5 -32t6.5 -41.5q0 -26 -12 -42.5t-40 -16.5t-72.5 25.5t-94 63t-98 79t-83.5 73.5q1 -53 4 -105.5t11 -103.5 q-29 11 -60.5 33.5t-56.5 42.5v232q-44 45 -78 80t-61 64t-48.5 53t-40.5 45v-297q0 -63 3 -127.5t12 -125.5q-29 11 -60.5 33.5t-56.5 42.5v516h-10zM355 390h-217q18 -23 38.5 -48.5t46 -55.5t58 -65.5t74.5 -79.5v249z" />
<glyph unicode="&#xab;" horiz-adv-x="795" d="M-94 480h874l109 -90h-342v-339q0 -23 0.5 -45.5t1.5 -45.5q25 -21 51 -41t48.5 -35.5t40.5 -25t29 -9.5q18 0 29 6.5t17.5 18t9 25.5t2.5 29q0 11 -4 19q19 -11 34.5 -22.5t26.5 -26t17.5 -32t6.5 -41.5q0 -26 -12 -42.5t-40 -16.5q-20 0 -49.5 14t-63.5 36.5t-71 51 t-71 57.5q3 -66 12 -127q-29 11 -60.5 33.5t-56.5 42.5v143q-27 27 -54.5 54t-56.5 56v-76q0 -63 3 -127.5t12 -125.5q-29 11 -60.5 33.5t-56.5 42.5v358q-33 35 -58 63t-47 53v-297q0 -63 3 -127.5t12 -125.5q-29 11 -60.5 33.5t-56.5 42.5v516h-10zM445 390h-111v-227 q9 -10 19.5 -21t23.5 -24.5t29.5 -30t38.5 -37.5v340zM232 390h-93q20 -26 42 -53.5t51 -60.5v114z" />
<glyph unicode="&#xac;" horiz-adv-x="795" d="M-94 480h874l109 -90h-134v-339q0 -63 3 -127.5t12 -125.5q-29 11 -60.5 33.5t-56.5 42.5q-51 61 -108 118t-120 113v-54q0 -63 3 -127.5t12 -125.5q-29 11 -60.5 33.5t-56.5 42.5v318q-23 19 -46 36.5t-43 31t-36.5 21.5t-26.5 8q-18 0 -29 -6.5t-17.5 -18t-9 -25.5 t-2.5 -29q0 -11 4 -19q-38 22 -61.5 48.5t-23.5 73.5q0 26 12 42.5t40 16.5q19 0 46.5 -12.5t59.5 -33t66 -47t67 -53.5v164h-308zM653 -85v475h-228v-253z" />
<glyph unicode="&#xad;" horiz-adv-x="795" d="M-94 480h874l109 -90h-134v-339q0 -63 3 -127.5t12 -125.5q-29 11 -60.5 33.5t-56.5 42.5q-23 27 -50 54.5t-60 61.5q1 -48 4 -96.5t10 -95.5q-29 11 -60.5 33.5t-56.5 42.5v217q-20 19 -47.5 43t-57.5 49v-132q0 -63 3 -127.5t12 -125.5q-29 11 -60.5 33.5t-56.5 42.5 v386q-20 14 -36 21.5t-26 7.5q-18 0 -29 -6.5t-17.5 -18t-9 -25.5t-2.5 -29q0 -11 4 -19q-38 22 -61.5 48.5t-23.5 73.5q0 26 12 42.5t40 16.5q26 0 65 -21.5t84 -53.5v93h-218zM653 390h-111v-366q35 -33 61.5 -59.5l49.5 -49.5v475zM440 390h-105v-174q30 -26 57 -49.5 t48 -42.5v266z" />
<glyph unicode="&#xae;" horiz-adv-x="527" d="M-94 480h606l109 -90h-134v-339q0 -63 3 -127.5t12 -125.5q-29 11 -60.5 33.5t-56.5 42.5v24q-18 25 -39 51.5t-48 58t-61.5 70t-79.5 87.5v-114q0 -63 3 -127.5t12 -125.5q-29 11 -60.5 33.5t-56.5 42.5v516h-40zM385 106q-44 45 -78 81.5t-61 67.5t-48.5 56.5 t-40.5 46.5v-161q44 -45 78 -82t61 -67.5t48.5 -56t40.5 -46.5v161zM385 390h-217q18 -23 38.5 -48.5t46 -55.5t58 -65.5t74.5 -79.5v249z" />
<glyph unicode="&#xaf;" horiz-adv-x="605" d="M15 390l-109 90h684l109 -90h-134v-339q0 -63 3 -127.5t12 -125.5q-29 11 -60.5 33.5t-56.5 42.5v121v6t1 7q0 4 1 8q-22 -13 -48.5 -18.5t-51.5 -5.5q-57 0 -110.5 21t-97.5 57v-19q0 -63 3 -127.5t12 -125.5q-29 11 -60.5 33.5t-56.5 42.5v516h-40zM273 52q43 0 78 18 t60 47t38.5 67t13.5 78v128h-306v-225q0 -23 10 -43t26.5 -36t37.5 -25t42 -9z" />
<glyph unicode="&#xb0;" horiz-adv-x="949" d="M809 19q-35 -27 -78 -27q-75 0 -125.5 30.5t-93.5 88.5q-9 -22 -22.5 -43.5t-32 -38t-41.5 -27t-49 -10.5q-28 0 -56.5 8t-55.5 21.5t-52 30.5t-46 34v-35q0 -63 3 -127.5t12 -125.5q-29 11 -60.5 33.5t-56.5 42.5v516h-40l-109 90h1028l109 -90h-134v-339 q0 -63 3 -127.5t12 -125.5q-29 11 -60.5 33.5t-56.5 42.5v121v6.5t1 8.5q0 4 1 9zM624 67q31 0 64 12t59 33t43 50t17 62v166h-292v-228q0 -17 11.5 -33.5t28 -30.5t35.5 -22.5t34 -8.5zM260 67q32 0 64.5 14.5t59 39t43 55.5t16.5 64v150h-286v-225q0 -45 30 -71.5 t73 -26.5z" />
<glyph unicode="&#xb1;" horiz-adv-x="828" d="M-93 480h906l109 -90h-134v-339q0 -63 3 -127.5t12 -125.5q-29 11 -60.5 33.5t-56.5 42.5v249h-228q5 -40 13.5 -84.5t8.5 -84.5q0 -27 -14 -54.5t-36.5 -50.5t-51 -37.5t-56.5 -14.5q-24 0 -54.5 9.5t-62.5 26.5t-62.5 39.5t-55 47.5t-39 52t-14.5 53q0 7 5 14.5 t11.5 13.5t14 11.5t13.5 8.5l64 -46q-12 -17 -21 -35.5t-9 -39.5t9.5 -36t24 -25.5t33 -15.5t36.5 -5q31 0 64 14t59.5 38t43.5 54.5t17 63.5q0 87 -3.5 174.5t-9.5 175.5h-370zM446 200q60 -3 121.5 -3t118.5 -1v194h-274q11 -45 18 -92t16 -98z" />
<glyph unicode="&#xb2;" horiz-adv-x="828" d="M-94 480h907l109 -90h-134v-339q0 -63 3 -127.5t12 -125.5q-29 11 -60.5 33.5t-56.5 42.5v156l-217 -8q3 -22 6 -39.5t5 -28.5q0 -27 -14 -54.5t-36.5 -50.5t-51 -37.5t-56.5 -14.5q-24 0 -54.5 9.5t-62.5 26.5t-62.5 39.5t-55 47.5t-39 52t-14.5 53q0 7 5 14.5 t11.5 13.5t14 11.5t13.5 8.5l64 -46q-12 -17 -21 -35.5t-9 -39.5t9.5 -36t24 -25.5t33 -15.5t36.5 -5q31 0 64 14t59.5 38t43.5 54.5t17 63.5q0 87 -3.5 174.5t-9.5 175.5h-371zM425 298q30 -6 63 -10t67 -5.5t67.5 -2.5t63.5 -1v111h-277q4 -20 8 -43.5t8 -48.5zM455 111 q53 -8 115 -10.5t116 -3.5v114q-53 -2 -114 -5t-114 -3q-10 0 -17 3z" />
<glyph unicode="&#xb3;" horiz-adv-x="956" d="M-93 480h1034l109 -90h-134v-339q0 -63 3 -127.5t12 -125.5q-29 11 -60.5 33.5t-56.5 42.5v249h-111v-72q0 -63 3 -127.5t12 -125.5q-29 11 -60.5 33.5t-56.5 42.5v249h-143q5 -40 13.5 -84.5t8.5 -84.5q0 -27 -14 -54.5t-36.5 -50.5t-51 -37.5t-56.5 -14.5 q-24 0 -54.5 9.5t-62.5 26.5t-62.5 39.5t-55 47.5t-39 52t-14.5 53q0 7 5 14.5t11.5 13.5t14 11.5t13.5 8.5l64 -46q-13 -17 -22 -35.5t-9 -39.5t9.5 -36t24.5 -25.5t33.5 -15.5t36.5 -5q31 0 64 14t59 38t43 54.5t17 63.5q0 174 -12 350h-370zM446 206q32 -3 72 -4.5 t83 -3.5v192h-190q11 -45 18.5 -91t16.5 -93zM814 390h-111v-193q38 -1 61.5 -1h49.5v194z" />
<glyph unicode="&#xb4;" horiz-adv-x="907" d="M16 390l-109 90h985l109 -90h-134v-339q0 -63 3 -127.5t12 -125.5q-29 11 -60.5 33.5t-56.5 42.5v249h-208q8 -33 13 -58.5t7.5 -46.5t3.5 -38.5t1 -33.5q0 -26 -13 -52.5t-35.5 -47.5t-53.5 -34.5t-66 -13.5h-172q-57 0 -83.5 -32.5t-26.5 -87.5q0 -32 13 -59 q-14 9 -33 21.5t-36.5 28.5t-30 33t-12.5 35q0 44 16.5 69.5t42.5 38t59.5 15.5t68.5 3h104q39 0 73.5 12.5t59.5 34.5t39.5 51t14.5 61q0 42 -5 88t-13 93.5t-17.5 94.5t-17.5 92h-442zM535 201q58 -3 116 -3.5t114 -1.5v194h-288q16 -48 30 -94.5t28 -94.5z" />
<glyph unicode="&#xb5;" horiz-adv-x="1063" d="M582 -54q0 -26 -13 -52.5t-35.5 -47.5t-53.5 -34.5t-66 -13.5h-172q-57 0 -83.5 -32.5t-26.5 -87.5q0 -32 13 -59q-14 9 -33 21.5t-36.5 28.5t-30 33t-12.5 35q0 44 16.5 69.5t42.5 38t59.5 15.5t68.5 3h104q39 0 73.5 12.5t59.5 34.5t39.5 51t14.5 61q0 42 -5 88 t-13 93.5t-17.5 94.5t-17.5 92h-442l-109 90h1141l109 -90h-134v-339q0 -63 3 -127.5t12 -125.5q-29 11 -60.5 33.5t-56.5 42.5v249h-111v-72q0 -63 3 -127.5t12 -125.5q-29 11 -60.5 33.5t-56.5 42.5v249h-152q9 -40 17.5 -87.5t8.5 -89.5zM534 206q16 -2 37 -3t44.5 -2 t47.5 -1.5t45 -1.5v192h-231q15 -45 29 -90t28 -94zM921 390h-111v-193q38 -1 61.5 -1h49.5v194z" />
<glyph unicode="&#xb6;" horiz-adv-x="605" d="M-94 480h684l109 -90h-258q1 -107 19 -208t55 -179t94.5 -125.5t137.5 -47.5q18 0 31.5 9.5t20.5 24.5t7.5 32t-5.5 32q37 -23 61 -55.5t24 -56.5q0 -26 -17 -43t-45 -17q-65 0 -125 30t-112.5 80.5t-95.5 117t-75 139.5h-265v-72q0 -63 3 -127.5t12 -125.5 q-29 11 -60.5 33.5t-56.5 42.5v516h-34zM387 196q-16 47 -27 96.5t-16 97.5h-193v-190q60 -3 119.5 -3t116.5 -1z" />
<glyph unicode="&#xb7;" horiz-adv-x="686" d="M-94 480h765l109 -90h-258q1 -107 19 -208t55 -179t94.5 -125.5t137.5 -47.5q18 0 31.5 9.5t20.5 24.5t7.5 32t-5.5 32q37 -23 61 -55.5t24 -56.5q0 -26 -17 -43t-45 -17q-65 0 -125 30t-112.5 80.5t-95.5 117t-75 139.5h-139v-72q0 -63 3 -127.5t12 -125.5 q-29 11 -60.5 33.5t-56.5 42.5v249h-105v-72q0 -63 3 -127.5t12 -125.5q-29 11 -60.5 33.5t-56.5 42.5v516h-34zM256 390h-105v-188q25 -2 51 -2.5t54 -1.5v192zM468 196q-16 47 -27 96.5t-16 97.5h-67v-193q19 0 34 -0.5t27.5 -0.5h24h24.5z" />
<glyph unicode="&#xb8;" horiz-adv-x="864" d="M402 334v56h-388l-109 90h944l109 -90h-473v-56h63q49 0 100.5 -26.5t94 -67t69.5 -89.5t27 -95q0 -27 -10 -53t-27 -47t-39 -33.5t-47 -12.5q-6 0 -12 1t-11 3l-89 66q13 -3 28 -3q28 0 52.5 12.5t43 33t29 47t10.5 53.5q0 31 -9.5 58.5t-28.5 48.5t-48 33t-68 12h-297 q-54 0 -92 -19t-62 -49.5t-34.5 -68t-10.5 -74.5q0 -44 23 -66t54 -22q19 0 36 11l100 -76q-16 -10 -38 -10q-41 0 -85.5 23t-82 58t-61.5 77t-24 80q0 36 13 71t37.5 62.5t60.5 44.5t82 17h170z" />
<glyph unicode="&#xb9;" horiz-adv-x="864" d="M839 56q0 -31 -12.5 -60t-33.5 -51.5t-47.5 -36.5t-54.5 -14q-38 0 -67 9.5t-53.5 26t-46 40t-42.5 51.5q-9 -22 -24.5 -44.5t-35.5 -41t-44.5 -30t-50.5 -11.5q-44 0 -94 21.5t-93.5 56.5t-72 78.5t-28.5 88.5q0 36 13 71t37.5 62.5t60.5 44.5t82 17h170v56h-388 l-109 90h944l109 -90h-473v-56h63q49 0 100.5 -26.5t94 -67t69.5 -89.5t27 -95zM767 123q0 31 -9.5 58.5t-28.5 48.5t-48 33t-68 12h-128v-214q0 -16 10.5 -33t25.5 -30.5t32 -22t31 -8.5q31 0 63.5 11.5t59 32.5t43.5 49.5t17 62.5zM316 275q-54 0 -92 -19t-62 -49.5 t-34.5 -68t-10.5 -74.5q0 -45 30 -71t73 -26q30 0 62 12.5t58.5 33.5t44 49t17.5 59v154h-86z" />
<glyph unicode="&#xba;" horiz-adv-x="864" d="M327 -106q-44 0 -94 21.5t-93.5 56.5t-72 78.5t-28.5 88.5q0 36 13 71t37.5 62.5t60.5 44.5t82 17h170v56h-388l-109 90h944l109 -90h-473v-56h63q49 0 100.5 -26.5t94 -67t69.5 -89.5t27 -95q0 -31 -12.5 -60t-33.5 -51.5t-47.5 -36.5t-54.5 -14q-37 0 -66 9t-53 25.5 t-44.5 39t-41.5 49.5q1 -104 2.5 -168.5t3 -104.5t3.5 -62.5t4 -40.5q-14 5 -31 15.5t-33.5 22.5t-32 24.5t-27.5 22.5q5 29 8.5 79t7.5 108q-32 -19 -64 -19zM767 123q0 31 -9.5 58.5t-28.5 48.5t-48 33t-68 12h-128v-214q0 -16 10.5 -33t25.5 -30.5t32 -22t31 -8.5 q31 0 63.5 11.5t59 32.5t43.5 49.5t17 62.5zM316 275q-54 0 -92 -19t-62 -49.5t-34.5 -68t-10.5 -74.5q0 -45 30 -71t73 -26q30 0 62 12.5t58.5 33.5t44 49t17.5 59v154h-86z" />
<glyph unicode="&#xbb;" horiz-adv-x="765" d="M-93 480h843l109 -90h-404q1 -28 5.5 -64.5t12.5 -74.5t19.5 -74.5t26.5 -65t33 -46t40 -17.5q37 0 71 13l78 -72q-14 -7 -29.5 -11t-32.5 -4q-58 0 -100.5 29.5t-73 74t-51 96.5t-33.5 97q-4 -20 -13.5 -50t-24 -63t-32.5 -66t-40 -59t-46.5 -42.5t-50.5 -16.5 q-54 0 -105 15t-84 57l5 -1q15 -12 35 -14.5t42 -2.5q54 0 95 36t70.5 90t47.5 117.5t26 118.5h-330z" />
<glyph unicode="&#xbc;" horiz-adv-x="765" d="M-93 480h843l109 -90h-404q1 -28 5.5 -64.5t12.5 -74.5t19.5 -74.5t26.5 -65t33 -46t40 -17.5q37 0 71 13l78 -72q-14 -7 -29.5 -11t-32.5 -4q-15 0 -30 3q-13 -19 -31 -36t-39 -29.5t-44 -20t-47 -7.5q-29 0 -61 8.5t-63.5 23t-59.5 33t-49 38.5q-21 -13 -41 -13 q-54 0 -105 15t-84 57l5 -1q15 -12 35 -14.5t42 -2.5q54 0 95 36t70.5 90t47.5 117.5t26 118.5h-330zM274 1q7 -14 21.5 -24.5t32 -17.5t36 -10.5t33.5 -3.5q31 0 60 12.5t51 28.5t34.5 31t11.5 19q-48 58 -82 117.5t-51 117.5q-5 -25 -18 -60.5t-32 -73t-43.5 -74 t-53.5 -62.5z" />
<glyph unicode="&#xbd;" horiz-adv-x="765" d="M-93 480h843l109 -90h-404q1 -28 5.5 -64.5t12.5 -74.5t19.5 -74.5t26.5 -65t33 -46t40 -17.5q37 0 71 13l78 -72q-14 -7 -29.5 -11t-32.5 -4q-52 0 -91.5 24.5t-69 62t-50.5 83.5t-35 90v-130q0 -133 1.5 -214.5t3.5 -130t4.5 -73.5l4.5 -45q-14 5 -31 15.5t-33.5 22.5 t-32 24.5t-27.5 22.5q4 26 8 68t7 91.5t5 101.5t4 97q-27 -46 -61 -78t-72 -32q-54 0 -105 15t-84 57l5 -1q15 -12 35 -14.5t42 -2.5q54 0 95 36t70.5 90t47.5 117.5t26 118.5h-330z" />
<glyph unicode="&#xbe;" horiz-adv-x="682" d="M-94 480h761l109 -90h-709q12 -23 44.5 -73.5t77 -112.5t96 -128.5t101.5 -121t94.5 -89.5t74.5 -35q18 0 31.5 9.5t20.5 24.5t7.5 32t-5.5 32q37 -23 61 -55.5t24 -56.5q0 -26 -17 -43t-45 -17q-40 0 -94.5 36t-115 93.5t-123.5 129.5t-120 144t-104.5 137t-76.5 108z " />
<glyph unicode="&#xbf;" horiz-adv-x="682" d="M-94 480h761l109 -90h-707q29 -48 76.5 -105t106 -107t123.5 -83.5t129 -33.5q30 0 45.5 21t15.5 45q0 11 -2.5 21.5t-8.5 19.5q17 -7 35.5 -17.5t33.5 -24.5t24.5 -30.5t9.5 -35.5q0 -29 -21.5 -44.5t-47.5 -15.5q-50 0 -104 20t-108.5 53t-107.5 74.5t-100 85.5 q30 -42 64.5 -88.5t70.5 -91t72 -85t69 -71.5t61.5 -49t49.5 -18q29 0 44.5 21.5t15.5 47.5q0 15 -6 29q37 -23 61 -55.5t24 -56.5q0 -26 -17 -43t-45 -17q-40 0 -94.5 36t-115 93.5t-123.5 129.5t-120 144t-104.5 137t-76.5 108z" />
<glyph unicode="&#xc0;" horiz-adv-x="682" d="M-94 480h761l109 -90h-130l11 -8q-5 -18 -24.5 -49t-47.5 -68.5t-61 -78t-65.5 -77.5t-61.5 -66.5t-48 -45.5q30 -35 59.5 -65.5t56 -53t49.5 -35.5t41 -13t31.5 9.5t20.5 24.5t7.5 32t-5.5 32q37 -23 61 -55.5t24 -56.5q0 -26 -17 -43t-45 -17q-40 0 -94.5 36t-115 93.5 t-123.5 129.5t-120 144t-104.5 137t-76.5 108zM295 62q29 26 65 66t72 85.5t68 91.5t53 85h-486q9 -18 31 -53t53 -79.5t68 -95.5t76 -100z" />
<glyph unicode="&#xc1;" horiz-adv-x="682" d="M-94 480h761l109 -90h-130l11 -8q-5 -15 -20 -40.5t-37.5 -56.5t-50 -65.5t-55.5 -68.5q12 -12 26 -25t27 -23.5t24 -17t18 -6.5t12 4q22 -20 40.5 -33t42.5 -30q0 -8 -8.5 -14t-18.5 -6q-12 0 -26 6.5t-27.5 15.5t-25.5 19.5t-20 18.5l-77 76q-38 -46 -73.5 -83.5 t-58.5 -55.5q30 -35 59.5 -65.5t56 -53t49.5 -35.5t41 -13t31.5 9.5t20.5 24.5t7.5 32t-5.5 32q37 -23 61 -55.5t24 -56.5q0 -26 -17 -43t-45 -17q-40 0 -94.5 36t-115 93.5t-123.5 129.5t-120 144t-104.5 137t-76.5 108zM295 62q29 26 65 66t72 85.5t68 91.5t53 85h-486 q9 -18 31 -53t53 -79.5t68 -95.5t76 -100z" />
<glyph unicode="&#xc2;" horiz-adv-x="682" d="M-94 480h761l109 -90h-130l11 -8q-5 -16 -20 -41.5t-37 -56.5t-49.5 -65.5t-55.5 -68.5q12 -12 25.5 -24.5t26.5 -23t24 -17t18 -6.5t12 4q22 -20 40.5 -33t42.5 -30q0 -8 -8.5 -14t-18.5 -6q-12 0 -26 6.5t-27.5 15.5t-25.5 19.5t-20 18.5l-76 75q-39 -45 -74.5 -82 t-58.5 -56q30 -35 59.5 -65.5t56 -53t49.5 -35.5t41 -13t31.5 9.5t20.5 24.5t7.5 32t-5.5 32q37 -23 61 -55.5t24 -56.5q0 -26 -17 -43t-45 -17q-40 0 -94.5 36t-115 93.5t-123.5 129.5t-120 144t-104.5 137t-76.5 108zM295 62q27 24 60 60t66 78q-47 49 -93.5 100.5 t-79.5 89.5h-181q9 -18 31 -53t53 -79.5t68 -95.5t76 -100zM435 218q35 44 66.5 89t51.5 83h-261q3 -6 16 -22t32 -39t43.5 -51.5t51.5 -59.5z" />
<glyph unicode="&#xc3;" horiz-adv-x="682" d="M-94 480h761l109 -90h-130l11 -8q-5 -18 -24.5 -49t-47.5 -68.5t-61 -78t-65.5 -77.5t-61.5 -66.5t-48 -45.5q30 -35 59.5 -65.5t56 -53t49.5 -35.5t41 -13t31.5 9.5t20.5 24.5t7.5 32t-5.5 32q37 -23 61 -55.5t24 -56.5q0 -26 -17 -43t-45 -17q-40 0 -94.5 36t-115 93.5 t-123.5 129.5t-120 144t-104.5 137t-76.5 108zM235 140q14 -20 29.5 -39t30.5 -39q29 26 65 66t72 85.5t68 91.5t53 85h-157l11 -8q-5 -16 -21 -43t-40 -59.5t-52.5 -68.5t-58.5 -71zM182 213q36 45 68 91.5t53 85.5h-236q12 -23 42.5 -70t72.5 -107z" />
<glyph unicode="&#xc4;" horiz-adv-x="682" d="M-94 480h761l109 -90h-130l11 -8q-5 -15 -20 -40.5t-37.5 -56.5t-50 -65.5t-55.5 -68.5q12 -12 26 -25t27 -23.5t24 -17t18 -6.5t12 4q22 -20 40.5 -33t42.5 -30q0 -8 -8.5 -14t-18.5 -6q-12 0 -26 6.5t-27.5 15.5t-25.5 19.5t-20 18.5l-77 76q-38 -46 -73.5 -83.5 t-58.5 -55.5q30 -35 59.5 -65.5t56 -53t49.5 -35.5t41 -13t31.5 9.5t20.5 24.5t7.5 32t-5.5 32q37 -23 61 -55.5t24 -56.5q0 -26 -17 -43t-45 -17q-40 0 -94.5 36t-115 93.5t-123.5 129.5t-120 144t-104.5 137t-76.5 108zM235 140q14 -20 29.5 -39t30.5 -39q29 26 65 66 t72 85.5t68 91.5t53 85h-157l11 -8q-5 -16 -21 -43t-40 -59.5t-52.5 -68.5t-58.5 -71zM182 213q36 45 68 91.5t53 85.5h-236q12 -23 42.5 -70t72.5 -107z" />
<glyph unicode="&#xc5;" horiz-adv-x="682" d="M15 390l-109 90h761l109 -90h-128q-44 -72 -91.5 -147t-95.5 -145t-95.5 -131.5t-92.5 -107.5t-86.5 -72.5t-77.5 -26.5q-44 0 -84 19.5t-71 48.5t-49 61.5t-18 58.5q0 8 4.5 14.5t11.5 11.5l64 -60q-5 -9 -8.5 -18.5t-3.5 -20.5q0 -17 9.5 -29t24 -19.5t30.5 -10.5 t29 -3q29 0 69 29.5t84 77.5t90 109.5t88.5 125.5t79 125.5t61.5 109.5h-505z" />
<glyph unicode="&#xc6;" horiz-adv-x="682" d="M109 -240q-44 0 -84 19.5t-71 48.5t-49 61.5t-18 58.5q0 8 4.5 14.5t11.5 11.5l64 -60q-5 -9 -8.5 -18.5t-3.5 -20.5q0 -17 9.5 -29t24 -19.5t30.5 -10.5t29 -3q22 0 50.5 17.5t61 47.5t67 70.5t69.5 86.5q-42 49 -82.5 99t-76 97t-64.5 88t-50 71h-8l-109 90h761 l109 -90h-128q-44 -72 -91.5 -147t-95.5 -145t-95.5 -131.5t-92.5 -107.5t-86.5 -72.5t-77.5 -26.5zM311 56q31 43 61.5 87.5t57.5 88t50.5 84t40.5 74.5h-445q3 -9 23.5 -42t52.5 -80t73.5 -102.5t85.5 -109.5z" />
<glyph unicode="&#xc7;" horiz-adv-x="682" d="M296 35q-22 25 -42.5 50t-40.5 50q-20 -16 -40 -36.5t-42 -38.5t-46 -30t-53 -12q-22 0 -43 9.5t-42 32.5q60 11 117 46.5t107 81.5q-46 60 -84 112t-64 90h-8l-109 90h761l109 -90h-128q-44 -72 -91.5 -147t-95.5 -145t-95.5 -131.5t-92.5 -107.5t-86.5 -72.5 t-77.5 -26.5q-44 0 -84 19.5t-71 48.5t-49 61.5t-18 58.5q0 8 4.5 14.5t11.5 11.5l64 -60q-5 -9 -8.5 -18.5t-3.5 -20.5q0 -17 9.5 -29t24 -19.5t30.5 -10.5t29 -3q22 0 50.5 17.5t61 47.5t67 70.5t69.5 86.5zM311 56q31 43 61.5 87.5t57.5 88t50.5 84t40.5 74.5h-445 q3 -9 23.5 -42t52.5 -80t73.5 -102.5t85.5 -109.5z" />
<glyph unicode="&#xc8;" horiz-adv-x="542" d="M40 265q48 -26 108.5 -38t114.5 -12h78q35 0 59.5 20t25.5 56q13 -14 28 -32.5t28 -39t22.5 -41.5t12.5 -40h-352q-30 0 -49.5 11t-33 29t-23 41t-19.5 46zM-92 480h619l109 -90h-619z" />
<glyph unicode="&#xc9;" horiz-adv-x="943" d="M41 259q47 -26 107.5 -38t113.5 -12h481q35 0 59 20.5t26 55.5q13 -14 27.5 -32.5t27.5 -39t22.5 -41.5t12.5 -40h-752q-30 0 -49.5 11t-33 29t-23 41t-19.5 46zM-94 480h1022l109 -90h-1022z" />
<glyph unicode="&#xca;" horiz-adv-x="200" d="M-93 480h278l109 -90h-135q0 -120 -1 -244.5t17 -242.5q-30 11 -61 33.5t-57 42.5v411h-41z" />
<glyph unicode="&#xcb;" horiz-adv-x="203" d="M-94 480h282l109 -90h-135l-1 -369v-215t17 -214q-31 11 -61.5 33t-56.5 42v723h-45z" />
<glyph unicode="&#xcc;" horiz-adv-x="349" d="M-94 480h428l109 -90h-205v-69.5t0.5 -53t1 -53t2 -69.5t4 -103t5.5 -153q9 -23 22 -48t24 -50.5t19 -51.5t8 -51q0 -17 -5 -36.5t-14.5 -36.5t-24.5 -28.5t-34 -11.5q-22 0 -41 13.5t-34 33.5t-25 43t-15 42q12 -11 28.5 -17.5t33.5 -6.5q32 0 57 19t25 54q0 9 -1.5 20 t-5.5 19l-218 487q-16 37 -16 74q0 14 5 34h-24zM83 288q0 -15 6 -35t14.5 -40t17.5 -39t15 -32v226q-19 -12 -36 -34.5t-17 -45.5z" />
<glyph unicode="&#xcd;" horiz-adv-x="450" d="M157 212l68 69l62 -63l-68 -68zM-94 480h529l109 -90h-529z" />
<glyph unicode="&#xce;" horiz-adv-x="450" d="M81 195l60 68l55 -62l-61 -68zM254 195l61 68l54 -62l-60 -68zM-94 480h529l109 -90h-529z" />
<glyph unicode="&#xcf;" horiz-adv-x="450" d="M176 97l49 180q17 -60 27 -120t17 -121zM-94 480h529l109 -90h-529z" />
<glyph unicode="&#xd0;" horiz-adv-x="450" d="M358 248l-49 -180q-17 60 -27 120t-17 121zM184 248l-49 -180q-17 60 -27 120t-17 121zM-94 480h529l109 -90h-529z" />
<glyph unicode="&#xd1;" horiz-adv-x="50" d="M-184 480h1504l108 -90h-1503z" />
<glyph unicode="&#xd2;" d="M-65 676l68 69l62 -63l-68 -68z" />
<glyph unicode="&#xd3;" d="M-65 -389l68 69l62 -62l-68 -69z" />
<glyph unicode="&#xd4;" d="M-144 608l60 68l55 -62l-61 -68zM29 608l61 68l54 -62l-60 -68z" />
<glyph unicode="&#xd5;" d="M-144 -389l60 69l55 -62l-61 -69zM29 -389l61 69l54 -62l-60 -69z" />
<glyph unicode="&#xd6;" d="M-56 731l60 63l54 -57l-59 -62zM-149 606l60 62l55 -56l-61 -62zM34 606l61 62l54 -56l-60 -62z" />
<glyph unicode="&#xd7;" d="M-149 -382l60 62l55 -56l-61 -63zM34 -382l61 62l54 -56l-60 -63zM-58 -508l59 63l55 -57l-60 -62z" />
<glyph unicode="&#xd8;" d="M-149 731l60 63l55 -57l-61 -62zM34 731l61 63l54 -57l-60 -62zM-58 606l59 62l55 -56l-60 -62z" />
<glyph unicode="&#xd9;" d="M-56 -382l60 62l54 -56l-59 -63zM-149 -508l60 63l55 -57l-61 -62zM34 -508l61 63l54 -57l-60 -62z" />
<glyph unicode="&#xda;" d="M-144 608l60 68l55 -62l-61 -68zM29 608l61 68l54 -62l-60 -68zM-144 788l60 68l55 -62l-61 -68zM29 788l61 68l54 -62l-60 -68z" />
<glyph unicode="&#xdb;" d="M-144 -568l60 68l55 -62l-61 -68zM29 -568l61 68l54 -62l-60 -68zM-144 -388l60 68l55 -62l-61 -68zM29 -388l61 68l54 -62l-60 -68z" />
<glyph unicode="&#xdc;" d="M-245 642q6 23 19 61.5t32 81.5t44.5 87t58.5 79.5t73.5 58t89.5 22.5q29 0 58.5 -9.5t48.5 -23.5q19 -20 34 -35q13 -14 23 -24.5t8 -12.5q-2 -1 -13 5.5t-28 15t-38 15.5t-42 7q-51 0 -95 -25t-81 -64t-66.5 -87t-51.5 -94t-35.5 -85t-18.5 -60z" />
<glyph unicode="&#xdd;" d="M270 -584q0 -6 -9 -17t-25 -21.5t-42 -18t-60 -7.5q-56 0 -106 20t-94 52.5t-79 73.5t-61 82.5t-42 79.5t-22 65q0 10 8 10q4 0 6 -5q18 -62 49 -117.5t73 -97.5t95 -66.5t115 -24.5q36 0 58 17.5t36 38.5q16 25 24 56q20 -20 38 -40q14 -17 26 -38.5t12 -41.5z" />
<glyph unicode="&#xde;" d="M-270 906q0 6 9 16.5t25 21t42 18.5t60 8q56 0 106 -20t94 -52.5t79 -73.5t61 -82.5t42 -79.5t22 -65q0 -10 -8 -10q-4 0 -6 5q-18 62 -49 117.5t-73 97.5t-95 66.5t-115 24.5q-36 0 -58 -17.5t-36 -38.5q-16 -25 -24 -56q-20 20 -38 40q-14 17 -26 38.5t-12 41.5z" />
<glyph unicode="&#xdf;" d="M245 -389q-7 -24 -19.5 -62t-31.5 -81t-44.5 -87t-58.5 -79.5t-74 -58t-89 -22.5q-29 0 -58 9.5t-49 23.5q-19 19 -34 35q-13 14 -23 24.5t-8 12.5q1 1 12.5 -5t28.5 -14.5t38 -15.5t42 -7q51 0 95 25t81 63.5t66.5 86.5t51.5 94t35.5 85t18.5 60z" />
<glyph unicode="&#xe0;" d="M-219 600q40 0 90.5 22.5t101 60.5t95 87.5t72.5 103.5q12 22 11 48t-7 48.5t-13.5 39t-10.5 20.5l90 -85q5 -20 8 -39q2 -17 1.5 -37t-7.5 -37q-23 -59 -69 -107.5t-99.5 -83.5t-106.5 -54t-91 -19z" />
<glyph unicode="&#xe1;" d="M-186 -283q-7 2 -5 8.5t10 4.5q27 -5 65 -21t79.5 -42.5t82.5 -61.5t73.5 -78.5t52.5 -94t20 -106.5q0 -27 -6 -49.5t-15 -38.5t-18.5 -25.5t-16.5 -10.5q-21 -4 -43.5 6t-41.5 23q-22 15 -43 36q31 8 56 24q21 14 38.5 36t17.5 57q0 63 -24.5 116t-66.5 95t-97.5 73 t-117.5 49z" />
<glyph unicode="&#xe2;" d="M187 547q6 -2 4.5 -8.5t-9.5 -4.5q-27 5 -65 21t-79.5 42.5t-82.5 61.5t-73.5 78.5t-52.5 94t-20 106.5q0 27 6 49.5t15 38.5t18.5 25.5t16.5 10.5q20 3 43 -6.5t42 -22.5q22 -15 43 -36q-32 -8 -57 -24q-21 -14 -38.5 -36t-17.5 -57q0 -63 24.5 -116t66.5 -95t98 -73 t118 -49z" />
<glyph unicode="&#xe3;" d="M219 -303q-40 0 -90.5 -22.5t-101 -60.5t-95 -87.5t-72.5 -103.5q-12 -23 -11.5 -48.5t6 -48t13 -39t10.5 -20.5l-88 85q-5 19 -8 39q-2 17 -1.5 37t7.5 37q23 59 69 107.5t99.5 83.5t106.5 54t91 19z" />
<glyph unicode="&#xe4;" d="M-254 593q18 29 35 69t35 84t40 88.5t50 83.5q12 15 26 29.5t31 26.5t37 19.5t40 9.5q16 -3 31 -11t29 -19t27 -23t25 -21q-26 3 -54 1t-55 -10t-51 -22t-42 -34q-10 -11 -27 -33t-37 -50.5t-42 -61.5t-42 -64q20 24 43 51.5t47 52.5t47 46t43 33q30 20 62 30.5t61 12 t54 -4t43 -16.5q8 -8 18 -20.5t20 -28t17 -32.5t9 -33q-22 29 -52 42.5t-63 15t-65 -6.5t-58 -21q-58 -29 -109 -67.5t-91 -74t-65 -62t-29 -30.5z" />
<glyph unicode="&#xe5;" d="M-309 -275q-3 8 4 10t9 -5q25 -50 53.5 -84t65 -54.5t84 -29t110.5 -8.5q35 0 56 15.5t32 35.5q13 22 19 51q32 -18 56 -38q20 -17 36 -38.5t13 -41.5q-1 -7 -12 -16.5t-29 -18.5t-42 -15t-51 -6q-71 0 -127 14.5t-100 37.5t-76 51.5t-54 56.5q24 -48 57 -89.5t75 -72.5 t94 -48.5t113 -17.5q35 0 65 8t53 18q26 11 49 26q21 -18 36 -38q13 -17 22.5 -38.5t6.5 -41.5q-1 -7 -16.5 -15t-39.5 -15t-52.5 -11.5t-55.5 -4.5q-56 0 -110 24t-103 62t-91 85t-73.5 94t-51.5 89t-25 69z" />
<glyph unicode="&#xe6;" d="M309 556q2 -8 -4.5 -10t-8.5 5q-25 50 -53.5 84t-65 54.5t-84 29t-110.5 8.5q-35 0 -56 -16t-32 -35q-13 -23 -19 -51q-32 18 -56 38q-20 17 -36.5 38t-12.5 42q1 7 12 16.5t29 18.5t42 15t51 6q70 0 126.5 -14.5t100.5 -37.5t76 -51.5t53 -56.5q-23 48 -56 89.5 t-75 72.5t-94 48.5t-113 17.5q-35 0 -65 -8t-53 -18q-26 -11 -49 -26q-21 18 -36 38q-13 17 -23 38t-6 42q1 7 16.5 15t39.5 15t52.5 11.5t55.5 4.5q56 0 110 -24t103 -62t91 -85t73.5 -94t51.5 -89t25 -69z" />
<glyph unicode="&#xe7;" d="M255 -330q-20 -29 -36.5 -69t-34.5 -84t-39.5 -88.5t-50.5 -83.5q-11 -14 -25.5 -28.5t-32 -26.5t-36.5 -20.5t-39 -9.5q-17 3 -32 11t-28.5 19t-26.5 23t-25 21q26 -3 54 -0.5t55 10.5t51 21.5t42 33.5q10 11 26.5 33.5t36.5 51t41.5 60.5t41.5 64q-20 -24 -43 -51 t-47 -52.5t-46.5 -46.5t-41.5 -33q-32 -20 -63.5 -30.5t-60.5 -12t-54 4t-43 16.5q-8 8 -18 21t-20 28t-17.5 32t-8.5 33q22 -29 52.5 -42.5t63 -15t65 6.5t58.5 22q58 29 109 67.5t90 73.5t64 61t30 31z" />
<glyph unicode="&#xe8;" d="M-244 793q18 -19 40 -38t47 -34.5t53 -25t58 -9.5t64 8.5t64 23.5t55 36t35 47l74 -86q-8 -28 -33 -54.5t-57 -46t-67 -30t-63 -5.5q-34 6 -74 29t-78 54.5t-69 66.5t-51 65z" />
<glyph unicode="&#xe9;" d="M244 -487q-18 19 -40 38t-47 34.5t-53 25t-58 9.5t-64 -8.5t-64 -23.5t-55 -36.5t-35 -46.5l-74 86q8 28 33 54.5t57 46t67 30t63 5.5q34 -6 74 -29t78 -54.5t69 -66.5t51 -65z" />
<glyph unicode="&#xea;" d="M244 591q-18 19 -40 38t-47 34.5t-53 25t-58 9.5t-64 -8.5t-64 -23.5t-55 -36.5t-35 -46.5l-74 86q8 28 33 54.5t57 46t67 30t63 5.5q34 -6 74 -29t78 -54.5t69 -66.5t51 -65z" />
<glyph unicode="&#xeb;" d="M-244 -275q18 -19 40 -38t47 -34.5t53 -25t58 -9.5t64 8.5t64 23.5t55 36t35 47l74 -86q-8 -28 -33 -54.5t-57 -46t-67 -30t-63 -5.5q-34 6 -74 29t-78 54.5t-69 66.5t-51 65z" />
<glyph unicode="&#xec;" d="M-287 900q11 13 30.5 27t37.5 14q51 0 87 -23.5t61 -59.5t41.5 -80t28.5 -85l14.5 72.5t24.5 81.5t42 66.5t67 27.5q17 0 37 -10.5t39.5 -25.5t36 -32t27.5 -29q-28 13 -54 13q-28 0 -48 -15t-34.5 -39t-23.5 -54t-15 -61t-10 -59t-7 -48l-98 23q-1 22 -9 57.5t-21 73 t-29.5 71.5t-36.5 53t-42 18t-44 -34z" />
<glyph unicode="&#xed;" d="M287 -591q-11 -13 -30.5 -27.5t-36.5 -14.5q-51 0 -87.5 23.5t-61.5 60t-41.5 80.5t-28.5 85l-14.5 -72.5t-24.5 -82t-42 -67t-67 -27.5q-17 0 -37 10.5t-39.5 26t-36 32t-27.5 28.5q13 -5 26.5 -8.5t27.5 -3.5q28 0 48 15t34.5 39t23.5 54t15 61t9.5 59t7.5 48l99 -23 q1 -22 9 -57.5t20.5 -73t29 -71.5t36.5 -53.5t41.5 -18t44.5 34.5z" />
<glyph unicode="&#xee;" d="M286 618q-10 -12 -29 -26.5t-37 -14.5q-52 0 -88 23.5t-61 60t-41 80.5t-28 85q-6 -30 -15 -73t-25 -82t-42 -66.5t-66 -27.5q-18 0 -38 10.5t-39 25.5t-36 32t-27 29q26 -13 52 -13q28 0 49 15t35 39t23 54.5t15 61t10 59t6 48.5l100 -24q2 -22 9 -57.5t20 -73t30 -71.5 t37 -53t41 -17.5t45 34.5z" />
<glyph unicode="&#xef;" d="M-287 -313q11 13 30 27t37 14q51 0 87 -23.5t61 -59.5t41.5 -80t28.5 -85q6 30 15 72.5t25 81.5t41.5 66.5t66.5 27.5q18 0 38 -10.5t39 -25.5t36 -32t28 -29q-28 13 -54 13q-28 0 -48.5 -15t-34.5 -39t-23 -54t-15 -61t-10 -59t-7 -48l-99 23q-2 22 -9.5 57.5t-20 73 t-29.5 71.5t-36.5 53t-41.5 18t-45 -34z" />
<glyph unicode="&#xf0;" d="M-94 695q0 -33 23 -56.5t57 -23.5q22 0 39 9.5t29 25.5t19 36.5t7 42.5q0 19 -8 34t-21 25t-29 15.5t-32 5.5q-22 0 -38 -11.5t-26 -28.5t-15 -37t-5 -37zM50 575q-38 0 -73 15t-62 40.5t-42 58.5t-15 69q0 17 4 32.5t15 27.5t29 19t44 7q40 0 74 -15t61 -40.5t42 -59 t15 -69.5q0 -35 -20 -60t-72 -25z" />
<glyph unicode="&#xf1;" d="M-133 -411q-13 31 -15 57.5t8.5 46t34.5 31t62 11.5q29 0 58.5 -10t55 -28t44 -42.5t26.5 -53.5q7 -24 7.5 -48t-8 -43.5t-29 -31.5t-55.5 -12q-30 0 -59 9t-54 25.5t-44.5 39t-31.5 49.5zM-88 -414q0 -33 23 -56.5t58 -23.5q21 0 38 9.5t29.5 25.5t19 36.5t6.5 42.5 q0 19 -8 34t-20.5 25t-28.5 15.5t-32 5.5q-22 0 -38 -11.5t-26.5 -28.5t-15.5 -37t-5 -37z" />
<glyph unicode="&#xf2;" d="M-309 622q17 -5 57 -8.5t91 -3.5h350q30 -13 55 -28q21 -13 40.5 -28.5t24.5 -29.5q-17 5 -57 8.5t-91 3.5h-350q-30 13 -55 28q-21 13 -40.5 28t-24.5 30z" />
<glyph unicode="&#xf3;" d="M-309 -173q17 -5 57 -8.5t91 -3.5h350q30 -13 55 -28q21 -13 40.5 -28.5t24.5 -29.5q-17 5 -57 8.5t-91 3.5h-350q-30 13 -55 28q-21 13 -40.5 28t-24.5 30z" />
<glyph unicode="&#xf4;" d="M46 770l-48 -180q-18 60 -28 120t-16 121z" />
<glyph unicode="&#xf5;" d="M-46 -451l48 180q18 -60 28 -120t16 -121z" />
<glyph unicode="&#xf6;" d="M-55 224l58 59l52 -53l-58 -58z" />
<glyph unicode="&#xf7;" d="M-299 79q43 27 103 41t124.5 19.5t128.5 3t115 -8.5q25 -4 48.5 -15.5t40.5 -29t27.5 -40.5t10.5 -50q0 -31 -9 -55.5t-23.5 -41t-33.5 -25t-40 -8.5q-24 0 -62.5 9.5t-75 26.5t-64 40.5t-30.5 52.5l88 -32q2 -25 21 -40t42 -15q18 0 38 6t36 17.5t26.5 27.5t10.5 37 q0 39 -30 60t-72.5 31t-87.5 11.5t-75 1.5q-66 0 -130 -5.5t-127 -18.5z" />
<glyph unicode="&#xf8;" d="M-299 65q0 24 9 41.5t24 29t34.5 17.5t41.5 6q29 0 68.5 -3t84.5 -8.5t93 -13.5t92.5 -19t83.5 -24t67 -28q-77 15 -154.5 24t-155.5 9q-24 0 -60 -1t-70 -10t-58 -28.5t-24 -56.5q0 -44 25.5 -71.5t70.5 -27.5q15 0 29 6.5t24.5 17.5t17 25t7.5 29l88 -25 q-1 -24 -13 -41.5t-30 -29t-40 -17.5t-43 -6q-37 0 -75 16.5t-68.5 45t-49.5 65.5t-19 78z" />
<glyph unicode="&#xf9;" d="M-299 2q77 -15 154.5 -24t155.5 -9q24 0 60 1t70 10t58 28.5t24 56.5q0 43 -25 71t-70 28q-16 0 -30 -6.5t-24.5 -17.5t-17 -25t-7.5 -29l-88 25q1 24 13 41.5t30 29t40 17.5t43 6q37 0 75 -16.5t68.5 -45t49.5 -65.5t19 -78q0 -24 -9 -41.5t-24 -29t-34.5 -17.5 t-41.5 -6q-29 0 -68.5 3t-84.5 8.5t-93 13.5t-92.5 19t-83.5 24t-67 28z" />
<glyph unicode="&#xfa;" d="M-223 20q0 -27 12 -45t31.5 -30t43.5 -20t49 -15q-24 -4 -48.5 -9.5t-44 -16t-31.5 -27.5t-12 -43q0 -44 25.5 -66.5t70.5 -22.5q31 0 53.5 19t24.5 49l88 -25q-1 -24 -13 -40t-30 -25.5t-40 -14t-43 -4.5q-37 0 -75 13.5t-68.5 38t-49.5 58.5t-19 75q0 38 21 55t51 25 q-32 29 -52 61.5t-20 74.5q0 34 22 53t58.5 26.5t84.5 5.5t99.5 -10.5t103.5 -21t97.5 -26.5t80.5 -27t52 -22q-20 4 -67 13.5t-105 18.5t-120 14t-113 -1t-84 -26.5t-33 -61.5z" />
<glyph unicode="&#xfb;" d="M223 45q0 27 -12 44.5t-31.5 29.5t-43.5 20t-49 16q24 4 48.5 9.5t44 16t31.5 27.5t12 43q0 44 -25.5 66.5t-70.5 22.5q-31 0 -53.5 -19t-24.5 -49l-88 25q1 24 13 40t30 25.5t40 14t43 4.5q37 0 75 -13.5t68.5 -38t49.5 -58.5t19 -75q0 -38 -21 -55t-51 -25 q32 -29 52 -61.5t20 -74.5q0 -34 -22 -53t-58.5 -26.5t-84.5 -5.5t-99.5 10.5t-103.5 21t-97.5 26.5t-80.5 27t-52 22q20 -4 67 -13.5t105 -18.5t120 -14t113 1t84 26.5t33 61.5z" />
<glyph unicode="&#xfc;" d="M-136 240q36 -17 66 -32.5t60 -29t62 -25t72 -19.5l20 -31q-48 4 -97 6.5t-99 7.5q-26 3 -42 14t-25 27.5t-13 37.5t-4 44zM-150 75q52 -15 105 -23t107 -8q16 0 33 1.5t35 3.5l20 -25q-18 -5 -46 -12.5t-58 -15.5t-57 -13.5t-43 -5.5q-20 0 -35 9.5t-26 24t-20 31.5 t-15 33z" />
<glyph unicode="&#xfd;" d="M-150 198q18 4 46 12t58 16t57 13.5t41 5.5q20 0 35 -9.5t27 -24t21 -31.5t15 -33q-52 15 -105 23t-107 8q-18 0 -34 -1t-34 -4zM-144 119q48 -4 97 -6.5t97 -7.5q28 -3 44 -14t25 -27.5t12 -37.5t5 -44q-36 16 -66 32t-60 29.5t-63 25t-73 19.5z" />
<glyph unicode="&#xfe;" d="M132 -218q-24 -7 -52 -7q-37 0 -75 13.5t-68.5 38t-49.5 58.5t-19 75q0 38 21 55t51 25q-32 29 -52 61.5t-20 74.5q0 46 39 65t99 20q21 0 40.5 -9.5t34.5 -20.5q18 -13 33 -29q-35 0 -66 -5t-54 -15.5t-36.5 -28t-13.5 -42.5q0 -27 12 -45t31.5 -30t43.5 -20t49 -15 q-24 -4 -48.5 -9.5t-44 -16t-31.5 -27.5t-12 -43q0 -44 25.5 -66.5t70.5 -22.5q19 0 37 8z" />
<glyph unicode="&#xff;" d="M-132 254q24 7 52 7q37 0 75 -13.5t68.5 -38t49.5 -58.5t19 -75q0 -38 -21 -55t-51 -25q32 -29 52 -61.5t20 -74.5q0 -46 -39 -65t-99 -20q-22 0 -41 9t-34 20q-18 13 -33 30q35 0 66 5t54 15.5t36.5 27.5t13.5 43q0 27 -12 44.5t-31.5 29.5t-43.5 20t-49 16 q24 4 48.5 9.5t44 16t31.5 27.5t12 43q0 44 -25.5 66.5t-70.5 22.5q-19 0 -37 -8z" />
<glyph unicode="&#x100;" horiz-adv-x="504" d="M199 0q51 0 101 -26t90 -66.5t64.5 -89.5t24.5 -96q0 -28 -13.5 -55.5t-35.5 -49t-50 -35t-56 -13.5q-24 0 -55.5 10.5t-64.5 29t-65.5 42.5t-57.5 51t-40.5 55t-15.5 54q0 8 7 18t15 19q10 11 22 22l65 -57q-13 -17 -22 -36t-9 -40t11 -38.5t27.5 -29.5t37 -19t38.5 -7 q31 0 64 11.5t61 32t46 49t18 62.5q0 78 -37.5 110.5t-115.5 32.5h-228q36 48 77.5 107.5t82 120t76.5 118.5t62 103h-307l-109 90h582l109 -90h-143q-62 -100 -126.5 -201t-129.5 -189z" />
<glyph unicode="&#x101;" horiz-adv-x="617" d="M-93 480h695l109 -90h-205q16 -14 31.5 -30t27.5 -33.5t19.5 -36.5t7.5 -38q0 -71 -25 -121.5t-66 -87t-93 -61.5t-107 -45.5t-107 -40t-93 -44t-66 -58t-25 -82.5l-79 60q0 56 28 93t73.5 63.5t102.5 47t115 43.5q-41 28 -76 70.5t-60.5 85t-40 78.5t-14.5 53 q0 22 5.5 43t14.5 41h-63zM140 232q0 -30 13 -58t33.5 -54t45.5 -48t48 -40q45 19 86.5 44t72.5 60t49.5 81.5t18.5 109.5q0 16 -5 32t-13 31h-326l27 -23q-9 -13 -18 -30t-16 -35t-11.5 -36t-4.5 -34z" />
<glyph unicode="&#x102;" horiz-adv-x="274" d="M-93 480h352l109 -90h-206v-111t-0.5 -73.5t-0.5 -45v-25.5l73 81l1 -161q1 -133 2.5 -214.5t3 -130t4 -73.5l4.5 -45q-14 5 -31 15.5t-33.5 22.5t-32 24.5t-27.5 22.5q4 25 7.5 59.5t6.5 74t5.5 81t4 79t2.5 68.5t1 50l-92 -102v403h-44z" />
<glyph unicode="&#x110;" horiz-adv-x="1071" d="M-93 480h1149l109 -90h-709q12 -23 44.5 -73.5t77 -112.5t96 -128.5t101.5 -121t94.5 -89.5t74.5 -35q18 0 31.5 9.5t20.5 24.5t7.5 32t-5.5 32q37 -23 61 -55.5t24 -56.5q0 -26 -17 -43t-45 -17q-41 0 -96.5 37t-117 96t-125.5 132.5t-121 146.5q18 -45 18 -85 q-2 -29 -15.5 -59t-34.5 -54t-48 -39t-57 -15q-31 0 -73.5 17.5t-85.5 45.5q21 -28 40 -58t33.5 -60t23 -60t8.5 -57q-2 -29 -15.5 -59t-34.5 -54t-48 -39t-57 -15q-24 0 -55.5 10.5t-64.5 29t-65.5 42.5t-57.5 51t-40.5 55t-15.5 54q0 8 7 18t15 19q10 11 22 22l65 -57 q-13 -17 -22 -36t-9 -40t11 -38.5t27.5 -29.5t37 -19t38.5 -7q31 0 64.5 14t61.5 37t45.5 54t17.5 64q0 22 -7 47.5t-19 51t-27.5 51t-31.5 48.5q-4 4 -3.5 8.5t2.5 6.5t6 2t8 -5q17 -19 43 -29.5t49 -10.5q31 0 64.5 14t61.5 37t45.5 54t17.5 64q0 41 -22.5 88.5 t-51.5 92.5l-35 50h-381z" />
<glyph unicode="&#x111;" horiz-adv-x="1071" d="M-93 480h1149l109 -90h-130l11 -8q-5 -18 -24.5 -49t-47.5 -68.5t-61 -78t-65.5 -77.5t-61.5 -66.5t-48 -45.5q30 -35 59.5 -65.5t56 -53t49.5 -35.5t41 -13t31.5 9.5t20.5 24.5t7.5 32t-5.5 32q37 -23 61 -55.5t24 -56.5q0 -26 -17 -43t-45 -17q-41 0 -96.5 37t-117 96 t-125.5 132.5t-121 146.5q18 -45 18 -85q-2 -29 -15.5 -59t-34.5 -54t-48 -39t-57 -15q-31 0 -73.5 17.5t-85.5 45.5q21 -28 40 -58t33.5 -60t23 -60t8.5 -57q-2 -29 -15.5 -59t-34.5 -54t-48 -39t-57 -15q-24 0 -55.5 10.5t-64.5 29t-65.5 42.5t-57.5 51t-40.5 55t-15.5 54 q0 8 7 18t15 19q10 11 22 22l65 -57q-13 -17 -22 -36t-9 -40t11 -38.5t27.5 -29.5t37 -19t38.5 -7q31 0 64.5 14t61.5 37t45.5 54t17.5 64q0 22 -7 47.5t-19 51t-27.5 51t-31.5 48.5q-4 4 -3.5 8.5t2.5 6.5t6 2t8 -5q17 -19 43 -29.5t49 -10.5q31 0 64.5 14t61.5 37t45.5 54 t17.5 64q0 41 -22.5 88.5t-51.5 92.5l-35 50h-381zM684 62q29 26 65 66t72 85.5t68 91.5t53 85h-486q9 -18 31 -53t53 -79.5t68 -95.5t76 -100z" />
<glyph unicode="&#x120;" horiz-adv-x="504" d="M-93 480h582l109 -90h-303q29 -51 61.5 -115.5t59.5 -129.5t45 -124.5t18 -99.5q0 -33 -18 -66q30 -28 58.5 -49.5t57 -38.5t57.5 -32t61 -30q-38 -24 -74 -23t-78 36q-30 24 -52 51.5t-47 57.5q-13 -18 -32 -36q15 -32 35.5 -60.5t44.5 -54t50 -48t51 -43.5 q-17 -4 -36.5 -5t-39 2.5t-37 12.5t-29.5 25q-8 11 -16.5 29.5t-17 39.5t-17 43t-15.5 40q-30 -19 -61 -19q-24 0 -55.5 10.5t-64.5 29t-65.5 42.5t-57.5 51t-40.5 55t-15.5 54q0 8 7 18t15 19q10 11 22 22l65 -57q-13 -17 -22 -36t-9 -40t11 -38.5t27.5 -29.5t37 -19 t38.5 -7q32 0 65.5 14t61 37.5t45 54.5t17.5 64q0 29 -12 78.5t-30.5 106t-40.5 112t-41 96.5h-266z" />
<glyph unicode="&#x121;" horiz-adv-x="967" d="M-93 480h1045l109 -90h-303q29 -51 61.5 -115.5t59.5 -129.5t45 -124.5t18 -99.5q0 -27 -13.5 -57t-35.5 -54.5t-50 -40.5t-56 -16q-24 0 -55.5 10.5t-64.5 29t-65.5 42.5t-57.5 51t-40.5 55t-15.5 54v2h-171q-24 0 -60 -1t-70 -10t-58 -28.5t-24 -56.5q0 -44 25.5 -71.5 t70.5 -27.5q15 0 29 6.5t24.5 17.5t17 25t7.5 29l88 -25q-1 -24 -13 -41.5t-30 -29t-40 -17.5t-43 -6q-37 0 -75 16.5t-68.5 45t-49.5 65.5t-19 78q0 24 9 42t24 30t34.5 18.5t41.5 6.5h384l65 -66q-13 -17 -17 -36t-4 -40t11 -38.5t27.5 -29.5t37 -19t38.5 -7q32 0 65.5 14 t61 37.5t45 54.5t17.5 64q0 29 -12 78.5t-30.5 106t-40.5 112t-41 96.5h-729z" />
<glyph unicode="&#x122;" horiz-adv-x="504" d="M193 -81q0 -23 -4 -45t-10 -40q10 -3 19.5 -5t18.5 -2q32 0 65.5 14t61 37.5t45 54.5t17.5 64q0 29 -12 78.5t-30.5 106t-40.5 112t-41 96.5h-266l-109 90h582l109 -90h-303q29 -51 61.5 -115.5t59.5 -129.5t45 -124.5t18 -99.5q0 -27 -13.5 -57t-35.5 -54.5t-50 -40.5 t-56 -16q-30 0 -71 16.5t-83 43.5q-17 -41 -45.5 -89t-68.5 -89.5t-91.5 -69.5t-112.5 -28q-14 0 -32 2.5t-36 7t-33.5 10.5t-25.5 13q-17 18 -31 33q-12 13 -22 24.5t-12 14.5q4 -2 18.5 -8.5t35 -14t43.5 -13.5t44 -6q55 0 103.5 23.5t90 59.5t74 79.5t55.5 84.5 q-42 35 -70.5 73.5t-28.5 74.5q0 24 16 43.5t36 19.5q29 0 50.5 -12t36 -31.5t22 -44.5t7.5 -51zM103 -79q0 -17 8 -32.5t21 -26.5q11 22 25.5 51.5t14.5 55.5q0 14 -8 28t-22 14q-9 0 -16 -9t-12 -22.5t-8 -29.5t-3 -29z" />
<glyph unicode="&#x123;" horiz-adv-x="504" d="M145 -149q35 -24 72 -24q32 0 65.5 14t61 37.5t45 54.5t17.5 64q0 29 -12 78.5t-30.5 106t-40.5 112t-41 96.5h-266l-109 90h582l109 -90h-303q29 -51 61.5 -115.5t59.5 -129.5t45 -124.5t18 -99.5q0 -27 -13.5 -57t-35.5 -54.5t-50 -40.5t-56 -16q-20 0 -45.5 7.5 t-53 21t-55 31t-52.5 38.5h-268q-30 0 -54.5 10.5t-43.5 27.5t-33 39t-24 45q47 -26 107.5 -38t113.5 -12h136q-13 19 -20 37t-7 35q0 15 5 26t12 19q7 9 17 14q33 11 63 -6t50.5 -47.5t28.5 -66.5t-2 -63q-3 -7 -9.5 -10.5t-14.5 -5.5t-16 -3t-14 -1zM103 -77q14 2 30 8.5 t27 17t13 23.5t-11 28q-8 9 -21 6t-24 -15t-16.5 -30t2.5 -38z" />
<glyph unicode="&#x124;" horiz-adv-x="504" d="M134 -364q-14 -18 -22.5 -37t-8.5 -39q0 -21 11 -38.5t27.5 -29.5t37 -19t38.5 -7q32 0 65.5 14t61 37.5t45 54.5t17.5 64q0 37 -16.5 91.5t-48.5 112t-79.5 112t-109.5 93.5q-2 1 -1 4t5 3q122 0 183.5 55t61.5 150q0 34 -26.5 69t-63.5 64h-295l-109 90h582l109 -90 h-264q28 -23 54.5 -49.5t46.5 -54t32 -54.5t12 -49q0 -87 -57.5 -137.5t-163.5 -53.5q15 -18 37 -48.5t47 -68t49 -79.5t44 -84t32 -81t12 -71q0 -27 -13.5 -57t-35.5 -54.5t-50 -40.5t-56 -16q-24 0 -55.5 10.5t-64.5 29t-65.5 42.5t-57.5 51t-40.5 55t-15.5 54q0 8 7 18 t15 19q10 11 22 22l13 -11q-11 37 -35.5 49.5t-52.5 8.5t-54.5 -21.5t-42.5 -39.5l-75 50q73 51 144.5 45t127.5 -69q-8 43 -33 74t-59 46.5t-72.5 14t-74.5 -23.5l-52 73q70 19 125.5 3.5t96.5 -53t68.5 -91.5t40.5 -112z" />
<glyph unicode="&#x130;" horiz-adv-x="517" d="M-93 480h595l109 -90h-303q29 -51 61.5 -115.5t59.5 -129.5t45 -124.5t18 -99.5q0 -33 -18 -66q30 -28 58.5 -49.5t57 -38.5t57.5 -32t61 -30q-38 -24 -74 -23t-78 36q-30 24 -52 51.5t-47 57.5q-13 -18 -32 -36q15 -32 35.5 -60.5t44.5 -54t50 -48t51 -43.5 q-17 -4 -36.5 -5t-39 2.5t-37 12.5t-29.5 25q-8 11 -16.5 29.5t-17 39.5t-17 43t-15.5 40q-30 -19 -61 -19q-24 0 -55.5 9.5t-65 26.5t-66 39.5t-58 47.5t-41.5 52.5t-16 53.5q0 9 6 18h-16q-15 0 -40 2.5t-51 12.5t-48.5 28.5t-31.5 51.5q70 -15 140.5 -22t141.5 -7h272 q-9 35 -22 78t-29 87t-32 85.5t-31 73.5h-278zM115 -80q0 -21 11 -38.5t28.5 -29.5t37.5 -18.5t38 -6.5q32 0 65.5 14t60.5 37t44.5 54t17.5 65l-4.5 0.5t-30 1t-81.5 1t-159 0.5q-11 -16 -19.5 -38.5t-8.5 -41.5z" />
<glyph unicode="&#x131;" horiz-adv-x="967" d="M25 -31q0 24 9 42t24 30t34.5 18.5t41.5 6.5h724q-9 35 -22 78t-29 87t-32 85.5t-31 73.5h-728l-109 90h1045l109 -90h-303q29 -51 61.5 -115.5t59.5 -129.5t45 -124.5t18 -99.5q0 -27 -13.5 -57t-35.5 -54.5t-50 -40.5t-56 -16q-24 0 -55.5 9.5t-65 26.5t-66 39.5 t-58 47.5t-41.5 52.5t-16 53.5q0 9 6 18h-178q-24 0 -60 -1t-70 -10t-58 -28.5t-24 -56.5q0 -44 25.5 -71.5t70.5 -27.5q15 0 29 6.5t24.5 17.5t17 25t7.5 29l88 -25q-1 -24 -13 -41.5t-30 -29t-40 -17.5t-43 -6q-37 0 -75 16.5t-68.5 45t-49.5 65.5t-19 78zM565 -80 q0 -21 11 -38.5t28.5 -29.5t37.5 -18.5t38 -6.5q32 0 65.5 14t60.5 37t44.5 54t17.5 65l-4.5 0.5t-30 1t-81.5 1t-159 0.5q-11 -16 -19.5 -38.5t-8.5 -41.5z" />
<glyph unicode="&#x140;" horiz-adv-x="568" d="M-93 480h646l109 -90h-184q34 -37 49.5 -80t15.5 -88q0 -56 -23.5 -105.5t-68.5 -82.5q27 -30 53.5 -54t53.5 -43.5t55 -37t58 -35.5q-39 -22 -75.5 -17t-74.5 43q-29 29 -50 61t-45 68q-27 -15 -59 -21q25 -67 69.5 -122t93.5 -104q-17 -2 -36.5 -1t-38.5 6.5 t-35.5 16.5t-27.5 28q-8 13 -15.5 34.5t-14.5 45.5t-13.5 48.5t-11.5 43.5q-7 -1 -13 -1.5t-13 -0.5q-42 0 -81 16t-73 40v-115q0 -63 3 -127.5t12 -125.5q-29 11 -60.5 33.5t-56.5 42.5v634h-39zM220 52q61 0 105.5 17t74 47t44 71t14.5 88q0 55 -18 115h-283v-314 q0 -4 7 -8t17 -7.5t21 -6t18 -2.5z" />
<glyph unicode="&#x152;" horiz-adv-x="796" d="M-90 480h871l109 -90h-313v-324q27 -5 60.5 -28t63.5 -53.5t50 -64.5t20 -61q0 -29 -13 -53t-45 -24q-36 0 -73 13t-67 31q-24 14 -42.5 29t-30.5 33t-18.5 40t-6.5 51v21h-318v-66q0 -63 3 -127.5t12 -125.5q-29 11 -60.5 33.5t-56.5 42.5v633h-36zM157 201v-116 q78 -9 159 -10t159 -1v127h-318zM475 390h-318v-104q78 -9 159.5 -10t158.5 -2v116zM577 -129q0 -41 40 -41q13 0 28.5 5.5t29 15t22.5 22t9 26.5q0 31 -10.5 50.5t-28.5 30.5t-41.5 15.5t-48.5 4.5v-129z" />
<glyph unicode="&#x153;" horiz-adv-x="351" d="M-94 480h430l109 -90h-173l11 -12q-34 -10 -65.5 -25.5t-58.5 -38.5q31 -15 61.5 -44t53.5 -64.5t37.5 -74t14.5 -74.5q0 -38 -15 -76t-40.5 -68.5t-59.5 -51.5t-73 -24l-70 76q68 20 123 67q-32 15 -61.5 43.5t-53 63t-37.5 72.5t-14 74q0 42 17.5 83.5t47.5 73.5h-75z M87 124q6 -21 18.5 -40t27.5 -37t31.5 -34t31.5 -29q31 27 50 61t22 75q-25 0 -50 -1.5t-50 -1.5q-18 0 -40.5 1.5t-40.5 5.5zM84 184q41 -4 89 -6t88 -3q-7 20 -19.5 38.5t-27 35.5t-30 32.5t-29.5 28.5q-28 -25 -47 -57t-24 -69z" />
<glyph unicode="&#x160;" horiz-adv-x="796" d="M-90 480h871l109 -90h-313v-126q41 3 86 7.5t86 4.5q23 0 39 -9t26.5 -24t16.5 -33.5t11 -37.5q-63 14 -132 20.5t-133 8.5v-135q27 -5 60.5 -28t63.5 -53.5t50 -64.5t20 -61q0 -29 -13 -53t-45 -24q-36 0 -73 13t-67 31q-24 14 -42.5 29t-30.5 33t-18.5 40t-6.5 51v21 h-318v-66q0 -63 3 -127.5t12 -125.5q-29 11 -60.5 33.5t-56.5 42.5v633h-36zM475 390h-318v-305q78 -9 159 -10t159 -1v316zM577 -129q0 -41 40 -41q13 0 28.5 5.5t29 15t22.5 22t9 26.5q0 31 -10.5 50.5t-28.5 30.5t-41.5 15.5t-48.5 4.5v-129z" />
<glyph unicode="&#x161;" horiz-adv-x="1043" d="M897 -285q-52 0 -92 17.5t-67 48t-40.5 73t-13.5 92.5v96q-42 2 -85 -3t-77 -22t-55.5 -50t-21.5 -88q0 -18 5 -36.5t15.5 -33t26 -24t36.5 -9.5t40 9t35 21l48 -64q-3 -6 -8.5 -13.5t-12 -14t-14 -11.5t-14.5 -5q-39 0 -80 31.5t-74.5 77t-55 95t-21.5 85.5v9t1 9 q-16 12 -29.5 19.5t-27 11.5t-29 5.5t-34.5 1.5q-32 0 -60.5 -14t-49.5 -36.5t-33 -52t-12 -61.5q0 -18 5 -36t15.5 -33t25.5 -24.5t36 -9.5t39.5 9t34.5 21l47 -64q-3 -6 -8.5 -13.5t-12 -14t-13.5 -11.5t-14 -5q-26 0 -53 15t-52 39t-47.5 55t-39 63t-26 62.5t-9.5 54.5 q0 28 13.5 52t35.5 40.5t49 26t53 9.5q35 0 62 -3.5t50 -12.5t45 -25t48 -41q15 27 40.5 44t56 26.5t62.5 12.5t60.5 3t50.5 -1.5t33 -1.5v101l-444 -11q-26 0 -43.5 8t-29 22t-18.5 33t-13 41q137 -13 273.5 -17.5t274.5 -10.5v108h-670l-109 90h1123l109 -90h-351v-278 q24 -2 50.5 -20t52.5 -44t49 -58t41 -64t28.5 -60t10.5 -46q0 -26 -10.5 -45.5t-27.5 -33t-38.5 -20t-44.5 -6.5zM786 -200q0 -12 6 -23t15.5 -19.5t20.5 -13.5t21 -5q18 0 36.5 9.5t33.5 24.5t24.5 34t9.5 39q0 39 -7.5 72.5t-26.5 59t-51.5 41.5t-81.5 19v-238z" />
<glyph unicode="&#x178;" horiz-adv-x="724" d="M-94 480h803l109 -90h-365v-69q43 -6 87 -22.5t79 -43.5t57.5 -64t22.5 -83q0 -32 -11.5 -54.5t-31 -36.5t-46 -20.5t-57.5 -6.5q-44 0 -87 5t-87 5h-239q-51 0 -77 30t-38 75q81 -16 162 -22t163 -9v316h-335zM524 274q-23 0 -39 -9.5t-32 -24.5v-66q0 -53 3 -86 q1 -19 3 -35q24 3 50.5 12.5t49 25.5t37.5 38.5t15 51.5q0 13 -7.5 29.5t-20 30.5t-28 23.5t-31.5 9.5z" />
<glyph unicode="&#x17d;" horiz-adv-x="682" d="M-94 480h761l109 -90h-397q0 -108 -1 -219.5t11 -218.5q25 -27 48.5 -49t44.5 -38.5t39.5 -25.5t33.5 -9q18 0 31.5 9.5t20.5 24.5t7.5 32t-5.5 32q37 -23 61 -55.5t24 -56.5q0 -26 -17 -43t-45 -17q-40 0 -94.5 36t-115 93.5t-123.5 129.5t-120 144t-104.5 137 t-76.5 108zM292 66v324h-57q0 -61 -1.5 -123t-0.5 -125zM148 390h-81q9 -18 30.5 -51.5t50.5 -76.5v128z" />
<glyph unicode="&#x17e;" horiz-adv-x="864" d="M839 56q0 -28 -11 -55t-29 -49t-42 -37t-49 -19q-9 -23 -27 -43.5t-41.5 -35.5t-50 -24t-52.5 -9q-29 0 -60.5 8.5t-63.5 24t-62 36t-55 44.5q-42 7 -87.5 30.5t-83 57t-62 73.5t-24.5 81q0 36 13 71t37.5 62.5t60.5 44.5t82 17h170v56h-387l-109 90h943l109 -90h-473 v-56h63q49 0 100.5 -26.5t94 -67t69.5 -89.5t27 -95zM767 123q0 31 -9.5 58.5t-28.5 48.5t-48 33t-68 12h-128v-214q0 -16 10.5 -33t25.5 -30.5t32 -22t31 -8.5q31 0 63.5 11.5t59 32.5t43.5 49.5t17 62.5zM316 275q-54 0 -92 -19t-62 -49.5t-34.5 -68t-10.5 -74.5 q0 -45 30 -71t73 -26q30 0 62 12.5t58.5 33.5t44 49t17.5 59v154h-86zM446 -155q23 0 45.5 7.5t41.5 18.5t34 23.5t24 22.5q-32 17 -57.5 43.5t-51.5 60.5q-9 -22 -24.5 -44.5t-35.5 -41t-44.5 -30t-50.5 -11.5q9 -12 23.5 -21t31 -15.5t33.5 -9.5t31 -3z" />
<glyph unicode="&#x192;" horiz-adv-x="671" d="M-94 480h750l109 -90h-313v-324q27 -5 60.5 -28t63.5 -53.5t50 -64.5t20 -61q0 -29 -13 -53t-45 -24q-42 0 -84 14.5t-76.5 40.5t-56 62t-21.5 80v21h-210q-51 0 -77 30t-38 75q81 -16 162 -22t163 -9v142q-40 -3 -79.5 -7.5t-80.5 -4.5q-24 0 -39.5 9t-26 24t-17 33.5 t-11.5 37.5q63 -14 126.5 -20.5t127.5 -8.5v111h-335zM452 -129q0 -41 40 -41q13 0 28.5 5.5t29 15t22.5 22t9 26.5q0 31 -10.5 50.5t-28.5 30.5t-41.5 15.5t-48.5 4.5v-129z" />
<glyph unicode="&#x2c6;" horiz-adv-x="1143" d="M-95 480h1223l109 -90h-313v-324q27 -5 60.5 -28t63.5 -53.5t50 -64.5t20 -61q0 -29 -13 -53t-45 -24q-42 0 -84 14.5t-76.5 40.5t-56 62t-21.5 80v21h-630q-51 0 -77 30t-38 75q81 -16 162 -22t163 -9v133q-53 -2 -97.5 -2.5t-62.5 -0.5q-24 0 -39.5 9t-26 24t-17 33.5 t-11.5 37.5q17 -4 45 -7.5t61.5 -6t71.5 -5t76 -3.5v104h-388zM822 67v323h-111v-321zM924 -129q0 -41 40 -41q13 0 28.5 5.5t29 15t22.5 22t9 26.5q0 31 -10.5 50.5t-28.5 30.5t-41.5 15.5t-48.5 4.5v-129zM609 70v146q-13 -2 -41 -2.5t-64 -2.5v-139zM609 390h-105v-108 q34 -2 61 -2.5t44 -0.5v111z" />
<glyph unicode="&#x2dc;" horiz-adv-x="697" d="M25 -13q0 40 20 65t51.5 39.5t69 20t72.5 6.5t62 -0.5t38 -1.5v101q-62 -3 -122 -7t-121 -4q-24 0 -40.5 8.5t-28 23t-18 33.5t-11.5 39q83 -17 169.5 -21.5t171.5 -6.5v108h-319l-109 90h772l109 -90h-351v-278q24 -2 50.5 -20t52.5 -44t49 -58t41 -64t28.5 -60 t10.5 -46q0 -26 -10.5 -45.5t-27.5 -33t-38.5 -20t-44.5 -6.5q-52 0 -92 17.5t-67 48t-40.5 73t-13.5 92.5v96q-14 1 -33 1h-33q-36 0 -67.5 -12t-55 -33.5t-37 -51.5t-13.5 -67q0 -18 5 -36.5t15.5 -33t26 -24t36.5 -9.5t40 9t35 21l48 -64q-3 -6 -8.5 -13.5t-12 -14 t-14 -11.5t-14.5 -5q-39 0 -80 31.5t-74.5 77t-55 95t-21.5 85.5zM440 -200q0 -12 6 -23t15.5 -19.5t20.5 -13.5t21 -5q17 0 35.5 9.5t33.5 25t25 34.5t10 38q0 39 -7.5 72.5t-26.5 59t-51.5 41.5t-81.5 19v-238z" />
<glyph unicode="&#x2013;" horiz-adv-x="808" d="M-91 480h884l109 -90h-313v-324q27 -5 60.5 -28t63.5 -53.5t50 -64.5t20 -61q0 -29 -13 -53t-45 -24q-36 0 -73 13t-67 31q-24 14 -42.5 29t-30.5 33t-18.5 40t-6.5 51v21h-116l5 -302q0 -63 3 -127.5t12 -125.5q-29 11 -60.5 33.5t-56.5 42.5l5 479h-112q-51 0 -77 30 t-38 75l15 -3v288h-49zM487 74v316h-116v-312zM279 390h-110v-300q26 -2 54.5 -4t55.5 -4v308zM589 -129q0 -41 40 -41q13 0 28.5 5.5t29 15t22.5 22t9 26.5q0 31 -10.5 50.5t-28.5 30.5t-41.5 15.5t-48.5 4.5v-129z" />
<glyph unicode="&#x2014;" horiz-adv-x="697" d="M440 -200q0 -12 6 -23t15.5 -19.5t20.5 -13.5t21 -5q17 0 35.5 9.5t33.5 25t25 34.5t10 38q0 39 -7.5 72.5t-26.5 59t-51.5 41.5t-81.5 19v-238zM25 -13q0 40 20 65t51.5 39.5t69 20t72.5 6.5t62 -0.5t38 -1.5v274h-319l-109 90h772l109 -90h-351v-278q24 -2 50.5 -20 t52.5 -44t49 -58t41 -64t28.5 -60t10.5 -46q0 -26 -10.5 -45.5t-27.5 -33t-38.5 -20t-44.5 -6.5q-52 0 -92 17.5t-67 48t-40.5 73t-13.5 92.5v96q-14 1 -33 1h-33q-36 0 -67.5 -12t-55 -33.5t-37 -51.5t-13.5 -67q0 -18 5 -36.5t15.5 -33t26 -24t36.5 -9.5t40 9t35 21 l48 -64q-3 -6 -8.5 -13.5t-12 -14t-14 -11.5t-14.5 -5q-39 0 -80 31.5t-74.5 77t-55 95t-21.5 85.5z" />
<glyph unicode="&#x2018;" horiz-adv-x="796" d="M-90 480h871l109 -90h-313v-324q27 -5 60.5 -28t63.5 -53.5t50 -64.5t20 -61q0 -29 -13 -53t-45 -24q-36 0 -73 13t-67 31q-24 14 -42.5 29t-30.5 33t-18.5 40t-6.5 51v21h-318v-66q0 -63 3 -127.5t12 -125.5q-29 11 -60.5 33.5t-56.5 42.5v633h-36zM475 390h-116v-316 q29 -1 59 -0.5t57 0.5v316zM267 390h-110v-305q26 -3 55 -5t55 -4v314zM577 -129q0 -41 40 -41q13 0 28.5 5.5t29 15t22.5 22t9 26.5q0 31 -10.5 50.5t-28.5 30.5t-41.5 15.5t-48.5 4.5v-129z" />
<glyph unicode="&#x2019;" horiz-adv-x="796" d="M-90 480h871l109 -90h-313v-324q27 -5 60.5 -28t63.5 -53.5t50 -64.5t20 -61q0 -29 -13 -53t-45 -24q-36 0 -73 13t-67 31q-24 14 -42.5 29t-30.5 33t-18.5 40t-6.5 51v21h-318v-1q46 -39 90.5 -80t89 -82.5t89 -82t91.5 -78.5q10 -8 21 -14t25 -6q16 0 25 6.5t14 17 t6.5 23.5t1.5 25q0 5 -1 9.5t-3 9.5q33 -22 59 -54.5t26 -74.5q0 -22 -11 -36t-34 -14q-29 0 -57.5 18.5t-48.5 36.5l-383 338v-27q0 -63 3 -127.5t12 -125.5q-29 11 -60.5 33.5t-56.5 42.5v633h-36zM475 390h-116v-316q29 -1 59 -0.5t57 0.5v316zM267 390h-110v-305 q26 -3 55 -5t55 -4v314zM577 -129q0 -41 40 -41q13 0 28.5 5.5t29 15t22.5 22t9 26.5q0 31 -10.5 50.5t-28.5 30.5t-41.5 15.5t-48.5 4.5v-129z" />
<glyph unicode="&#x201a;" horiz-adv-x="671" d="M-94 480h750l109 -90h-313v-324q27 -5 60.5 -28t63.5 -53.5t50 -64.5t20 -61q0 -29 -13 -53t-45 -24q-36 0 -73 13t-67 31q-24 14 -42.5 29t-30.5 33t-18.5 40t-6.5 51v21h-210q-51 0 -77 30t-38 75q81 -16 162 -22t163 -9v316h-335zM452 -129q0 -41 40 -41 q13 0 28.5 5.5t29 15t22.5 22t9 26.5q0 31 -10.5 50.5t-28.5 30.5t-41.5 15.5t-48.5 4.5v-129z" />
<glyph unicode="&#x201c;" horiz-adv-x="807" d="M-92 480h884l109 -90h-313v-324q27 -5 60.5 -28t63.5 -53.5t50 -64.5t20 -61q0 -29 -13 -53t-45 -24q-36 0 -73 13t-67 31q-24 14 -42.5 29t-30.5 33t-18.5 40t-6.5 51v21h-320q-51 0 -77 30t-38 75l15 -3v288h-49zM486 390h-318v-300q41 -3 85 -5.5t86 -4.5t80 -3.5 t67 -2.5v316zM588 -129q0 -41 40 -41q13 0 28.5 5.5t29 15t22.5 22t9 26.5q0 31 -10.5 50.5t-28.5 30.5t-41.5 15.5t-48.5 4.5v-129z" />
<glyph unicode="&#x201d;" horiz-adv-x="807" d="M-92 480h884l109 -90h-313v-324q27 -5 60.5 -28t63.5 -53.5t50 -64.5t20 -61q0 -29 -13 -53t-45 -24q-36 0 -73 13t-67 31q-24 14 -42.5 29t-30.5 33t-18.5 40t-6.5 51v21h-320q-51 0 -77 30t-38 75l15 -3v288h-49zM168 201v-116q78 -9 159 -10t159 -1v127h-318zM168 286 q78 -9 159.5 -10t158.5 -2v116h-318v-104zM588 -129q0 -41 40 -41q13 0 28.5 5.5t29 15t22.5 22t9 26.5q0 31 -10.5 50.5t-28.5 30.5t-41.5 15.5t-48.5 4.5v-129z" />
<glyph unicode="&#x201e;" horiz-adv-x="982" d="M-95 480h1062l109 -90h-313v-324q27 -5 60.5 -28t63.5 -53.5t50 -64.5t20 -61q0 -29 -13 -53t-45 -24q-36 0 -73 13t-67 31q-24 14 -42.5 29t-30.5 33t-18.5 40t-6.5 51v21h-540q-51 0 -77 30t-38 75q81 -16 162 -22t163 -9v316h-317zM661 68v322h-228v-318zM763 -129 q0 -41 40 -41q13 0 28.5 5.5t29 15t22.5 22t9 26.5q0 31 -10.5 50.5t-28.5 30.5t-41.5 15.5t-48.5 4.5v-129z" />
<glyph unicode="&#x2020;" horiz-adv-x="1072" d="M-93 480h1150l109 -90h-313v-324q27 -5 60.5 -28t63.5 -53.5t50 -64.5t20 -61q0 -29 -13 -53t-45 -24q-36 0 -73 13t-67 31q-24 14 -42.5 29t-30.5 33t-18.5 40t-6.5 51v21h-630q-51 0 -77 30t-38 75q81 -16 162 -22t163 -9v316h-315zM751 67v323h-111v-321zM538 70v320 h-105v-318zM853 -129q0 -41 40 -41q13 0 28.5 5.5t29 15t22.5 22t9 26.5q0 31 -10.5 50.5t-28.5 30.5t-41.5 15.5t-48.5 4.5v-129z" />
<glyph unicode="&#x2021;" horiz-adv-x="1072" d="M-93 480h1150l109 -90h-313v-324q27 -5 60.5 -28t63.5 -53.5t50 -64.5t20 -61q0 -29 -13 -53t-45 -24q-36 0 -73 13t-67 31q-24 14 -42.5 29t-30.5 33t-18.5 40t-6.5 51v21h-630q-51 0 -77 30t-38 75q81 -16 162 -22t163 -9v142q-40 -3 -79.5 -7.5t-80.5 -4.5 q-24 0 -39.5 9t-26 24t-17 33.5t-11.5 37.5q63 -14 126.5 -20.5t127.5 -8.5v111h-315zM751 67v323h-111v-321zM538 70v320h-105v-318zM853 -129q0 -41 40 -41q13 0 28.5 5.5t29 15t22.5 22t9 26.5q0 31 -10.5 50.5t-28.5 30.5t-41.5 15.5t-48.5 4.5v-129z" />
<glyph unicode="&#x2022;" horiz-adv-x="807" d="M-92 480h884l109 -90h-313v-324q27 -5 60.5 -28t63.5 -53.5t50 -64.5t20 -61q0 -29 -13 -53t-45 -24q-36 0 -73 13t-67 31q-24 14 -42.5 29t-30.5 33t-18.5 40t-6.5 51v21h-320q-51 0 -77 30t-38 75l15 -3v288h-49zM486 74v316h-116v-312zM278 390h-110v-300 q26 -2 54.5 -4t55.5 -4v308zM588 -129q0 -41 40 -41q13 0 28.5 5.5t29 15t22.5 22t9 26.5q0 31 -10.5 50.5t-28.5 30.5t-41.5 15.5t-48.5 4.5v-129z" />
<glyph unicode="&#x2026;" horiz-adv-x="982" d="M-95 480h1062l109 -90h-313v-324q27 -5 60.5 -28t63.5 -53.5t50 -64.5t20 -61q0 -29 -13 -53t-45 -24q-36 0 -73 13t-67 31q-24 14 -42.5 29t-30.5 33t-18.5 40t-6.5 51v21h-540q-51 0 -77 30t-38 75q81 -16 162 -22t163 -9v142q-40 -3 -79.5 -7.5t-80.5 -4.5 q-24 0 -39.5 9t-26 24t-17 33.5t-11.5 37.5q63 -14 126.5 -20.5t127.5 -8.5v111h-317zM661 68v322h-228v-318zM763 -129q0 -41 40 -41q13 0 28.5 5.5t29 15t22.5 22t9 26.5q0 31 -10.5 50.5t-28.5 30.5t-41.5 15.5t-48.5 4.5v-129z" />
<glyph unicode="&#x2030;" horiz-adv-x="796" d="M-90 480h871l109 -90h-313v-324q27 -5 60.5 -28t63.5 -53.5t50 -64.5t20 -61q0 -29 -13 -53t-45 -24q-42 0 -84 14.5t-76.5 40.5t-56 62t-21.5 80v21h-318v-66q0 -63 3 -127.5t12 -125.5q-29 11 -60.5 33.5t-56.5 42.5v633h-36zM475 390h-318v-305q78 -9 159 -10t159 -1 v316zM577 -129q0 -41 40 -41q13 0 28.5 5.5t29 15t22.5 22t9 26.5q0 31 -10.5 50.5t-28.5 30.5t-41.5 15.5t-48.5 4.5v-129z" />
<glyph unicode="&#x2039;" horiz-adv-x="796" d="M-90 480h871l109 -90h-313v-324q27 -5 60.5 -28t63.5 -53.5t50 -64.5t20 -61q0 -29 -13 -53t-45 -24q-42 0 -84 14.5t-76.5 40.5t-56 62t-21.5 80v21h-318v-1q46 -39 90.5 -80t89 -82.5t89 -82t91.5 -78.5q10 -8 21 -14t25 -6q16 0 25 6.5t14 17t6.5 23.5t1.5 25 q0 5 -1 9.5t-3 9.5q33 -22 59 -54.5t26 -74.5q0 -22 -11 -36t-34 -14q-29 0 -57.5 18.5t-48.5 36.5l-383 338v-27q0 -63 3 -127.5t12 -125.5q-29 11 -60.5 33.5t-56.5 42.5v633h-36zM475 390h-318v-305q78 -9 159 -10t159 -1v316zM577 -129q0 -41 40 -41q13 0 28.5 5.5 t29 15t22.5 22t9 26.5q0 31 -10.5 50.5t-28.5 30.5t-41.5 15.5t-48.5 4.5v-129z" />
<glyph unicode="&#x203a;" horiz-adv-x="351" d="M-94 480h430l109 -90h-173l11 -12q-34 -10 -65.5 -25.5t-58.5 -38.5q31 -15 61.5 -44t53.5 -64.5t37.5 -74t14.5 -74.5q0 -38 -15 -76t-40.5 -68.5t-59.5 -51.5t-73 -24l-70 76q68 20 123 67q-32 15 -61.5 43.5t-53 63t-37.5 72.5t-14 74q0 42 17.5 83.5t47.5 73.5h-75z M82 157q0 -26 11.5 -50t28.5 -46t37 -41.5t37 -35.5q33 29 53 67t20 83q0 26 -11 50.5t-28 47t-37 42t-38 36.5q-33 -29 -53 -68.5t-20 -84.5z" />
<glyph unicode="&#x20ac;" horiz-adv-x="504" d="M-94 480h583l109 -90h-265q29 -23 55.5 -49.5t46.5 -54t32 -54.5t12 -49q0 -87 -57.5 -137.5t-163.5 -53.5q15 -18 37 -48.5t47 -68t49 -79.5t44 -84t32 -81t12 -71q0 -27 -13.5 -57t-35.5 -54.5t-50 -40.5t-56 -16q-24 0 -55.5 10.5t-64.5 29t-65.5 42.5t-57.5 51 t-40.5 55t-15.5 54q0 8 7 18t15 19q10 11 22 22l65 -57q-13 -17 -22 -36t-9 -40t11 -38.5t27.5 -29.5t37 -19t38.5 -7q32 0 65.5 14t61 37.5t45 54.5t17.5 64q0 37 -16.5 91.5t-48.5 112t-79.5 112t-109.5 93.5q-2 1 -1 4t5 3q122 0 183.5 55t61.5 150q0 34 -26.5 69 t-63.5 64h-296z" />
<glyph unicode="&#x2122;" horiz-adv-x="1043" d="M-95 480h1123l109 -90h-351v-278q24 -2 50.5 -20t52.5 -44t49 -58t41 -64t28.5 -60t10.5 -46q0 -26 -10.5 -45.5t-27.5 -33t-38.5 -20t-44.5 -6.5q-52 0 -92 17.5t-67 48t-40.5 73t-13.5 92.5v96q-42 2 -85 -3t-77 -22t-55.5 -50t-21.5 -88q0 -18 5 -36.5t15.5 -33 t26 -24t36.5 -9.5t40 9t35 21l48 -64q-3 -6 -8.5 -13.5t-12 -14t-14 -11.5t-14.5 -5q-39 0 -80 31.5t-74.5 77t-55 95t-21.5 85.5v9t1 9q-16 12 -29.5 19.5t-27 11.5t-29 5.5t-34.5 1.5q-32 0 -60.5 -14t-49.5 -36.5t-33 -52t-12 -61.5q0 -18 5 -36t15.5 -33t25.5 -24.5 t36 -9.5t39.5 9t34.5 21l47 -64q-3 -6 -8.5 -13.5t-12 -14t-13.5 -11.5t-14 -5q-26 0 -53 15t-52 39t-47.5 55t-39 63t-26 62.5t-9.5 54.5q0 28 13.5 52t35.5 40.5t49 26t53 9.5q35 0 62 -3.5t50 -12.5t45 -25t48 -41q19 38 55 56t79.5 24.5t88 5t80.5 -2.5v274h-670z M786 -200q0 -12 6 -23t15.5 -19.5t20.5 -13.5t21 -5q18 0 36.5 9.5t33.5 24.5t24.5 34t9.5 39q0 39 -7.5 72.5t-26.5 59t-51.5 41.5t-81.5 19v-238z" />
<glyph unicode="&#x25fc;" horiz-adv-x="480" d="M0 480h480v-480h-480v480z" />
</font>
</defs>
</svg>
