<?xml version="1.0" standalone="no"?>
<!DOCTYPE svg PUBLIC "-//W3C//DTD SVG 1.1//EN" "http://www.w3.org/Graphics/SVG/1.1/DTD/svg11.dtd" >
<svg xmlns="http://www.w3.org/2000/svg" xmlns:xlink="http://www.w3.org/1999/xlink" version="1.1">
<metadata></metadata>
<defs>
<font id="tengwar_parmaite_glaemscrafRg" horiz-adv-x="0" >
<font-face units-per-em="2048" ascent="1638" descent="-410" />
<missing-glyph horiz-adv-x="410" />
<glyph />
<glyph horiz-adv-x="410" />
<glyph unicode=" "  horiz-adv-x="410" />
<glyph unicode="&#x09;" horiz-adv-x="410" />
<glyph unicode="&#xa0;" horiz-adv-x="410" />
<glyph unicode="!" horiz-adv-x="768" d="M200 -452q0 -85 -55 -130q-41 -33 -134 -56q46 202 46 414v1272q0 68 -57 112q46 53 129 153q54 -43 71 -183v-619q75 76 131 107q71 38 164 38q85 0 157 -69.5t72 -154.5q0 -112 -117 -268q-123 -164 -231 -164q-43 0 -90 82l98 128q60 -50 106 -50q81 0 81 110 q0 84 -55 156q-59 79 -140 79q-76 0 -176 -93v-864z" />
<glyph unicode="&#x22;" d="M-1071 -41h954l-103 -133h-953z" />
<glyph unicode="#" d="M-699 1115l107 107l79 -79l-107 -107zM-559 944l107 107l79 -79l-107 -107zM-852 941l107 107l79 -79l-107 -107z" />
<glyph unicode="$" d="M-234 1280l-474 -554l439 604z" />
<glyph unicode="%" d="M-699 941l107 107l79 -79l-107 -107z" />
<glyph unicode="&#x26;" d="M-597 1053q169 273 276 273q29 0 55 -19q42 -31 42 -80q0 -91 -140 -244q-112 -123 -294 -264q184 171 255 301q21 38 21 65t-19 46t-46 19q-62 0 -150 -97z" />
<glyph unicode="'" d="M-600 -41h483l-103 -133h-482z" />
<glyph unicode="(" d="M-799 -330l107 107l79 -79l-107 -107z" />
<glyph unicode=")" d="M-164 1331q-106 -196 -363 -196q-75 0 -222 28t-222 28q-124 0 -182 -54q87 186 369 186q61 0 180.5 -25.5t180.5 -25.5q116 0 259 59z" />
<glyph unicode="*" horiz-adv-x="768" d="M506 233q0 42 -36.5 90.5t-77.5 50.5q120 159 138 159q46 0 80 -47q30 -43 30 -91q0 -109 -55 -196q-8 -13 -128 -160q-32 -39 -146 -39q-146 0 -228 102q-77 95 -77 245q0 243 179 552q177 306 388 432q-161 -122 -293 -380.5t-132 -457.5q0 -115 60 -211 q69 -110 179 -110q32 0 71 16q48 19 48 45z" />
<glyph unicode="+" horiz-adv-x="410" d="M354 1q-44 -95 -90 -180q-84 -154 -188 -154q-22 0 -37.5 23t-15.5 46q0 32 69 152q61 -66 79 -66q61 0 61 29q0 99 -73 130q-44 19 -159 19h-372l214 190h230q101 0 177 -45q88 -51 105 -144z" />
<glyph unicode="," horiz-adv-x="768" d="M497 281q0 90 -69.5 156.5t-159.5 66.5q-27 0 -63 -18q-42 -20 -42 -44q0 -41 36 -88q39 -50 78 -52q-119 -160 -137 -160q-46 0 -79 48q-31 43 -31 91q0 130 63 210q33 40 120 146q33 41 131 41q129 0 212.5 -75t83.5 -203q0 -47 -118 -215q139 -27 139 -192 q0 -210 -141 -386q-150 -187 -355 -187q-29 0 -70 28q-44 29 -44 57l138 115q52 -58 105 -58q92 0 151 86q52 77 52 173q0 94 -54 149q-49 50 -133 50h-15q202 174 202 261z" />
<glyph unicode="-" horiz-adv-x="410" d="M61 491l107 107l79 -79l-107 -107zM61 150l107 107l79 -79l-107 -107z" />
<glyph unicode="." horiz-adv-x="720" d="M249 0q-81 0 -165 79t-84 159q0 154 118 286q122 135 274 135q109 0 203 -70q101 -76 101 -182q0 -61 -64 -167q-88 -145 -148 -187q-76 -53 -235 -53zM554 320q0 72 -111 120q-90 38 -175 38q-63 0 -83 -5q-31 -9 -70 -45q0 -94 80 -163q76 -65 172 -65q60 0 118 30 q69 36 69 90z" />
<glyph unicode="/" d="M-102 -522q-122 -196 -240 -196q-46 0 -135 28t-126 28q-62 0 -120 -55q114 186 246 186q38 0 111 -22t111 -22q70 0 153 53z" />
<glyph unicode="0" d="M-102 1331q-122 -196 -240 -196q-46 0 -135 28t-126 28q-62 0 -120 -54q114 186 246 186q38 0 111 -22.5t111 -22.5q70 0 153 53z" />
<glyph unicode="1" horiz-adv-x="768" d="M200 511q75 76 131 107q71 38 164 38q85 0 157 -69.5t72 -154.5q0 -112 -117 -268q-123 -164 -231 -164q-43 0 -90 82l98 128q60 -50 106 -50q81 0 81 110q0 84 -55 156q-59 79 -140 79q-76 0 -176 -93v-864q0 -85 -55 -130q-41 -33 -134 -56q46 202 46 414v634 q0 68 -57 112q46 53 129 153q54 -43 71 -164z" />
<glyph unicode="2" horiz-adv-x="1260" d="M200 -452q0 -85 -55 -130q-41 -33 -134 -56q46 202 46 414v634q0 68 -57 112q46 53 129 153q54 -43 71 -164q75 76 131 107q71 38 164 38q129 0 201 -130q74 71 126 97q65 33 155 33q86 0 157.5 -69t71.5 -155q0 -111 -117 -268q-122 -164 -231 -164q-43 0 -90 82l98 128 q60 -50 107 -50q81 0 81 110q0 83 -56 156q-60 79 -134 79q-63 0 -141 -58q1 -10 1 -20q0 -107 -117 -263q-123 -164 -231 -164q-43 0 -90 82l98 128q60 -50 106 -50q81 0 81 110q0 83 -55 156q-60 79 -135 79q-81 0 -181 -93v-864z" />
<glyph unicode="3" horiz-adv-x="768" d="M200 186q0 -84 -56 -130q-41 -33 -133 -56q46 202 46 414v634q0 68 -57 112q46 53 129 153q54 -43 71 -183v-619q75 76 131 107q71 38 164 38q85 0 157 -69.5t72 -154.5q0 -112 -117 -268q-123 -164 -231 -164q-43 0 -90 82l98 128q60 -50 106 -50q81 0 81 110 q0 84 -55 156q-59 79 -140 79q-76 0 -176 -93v-226z" />
<glyph unicode="4" horiz-adv-x="1260" d="M200 511q75 76 131 107q71 38 164 38q129 0 201 -130q74 71 126 97q65 33 155 33q86 0 157.5 -69t71.5 -155q0 -111 -117 -268q-122 -164 -231 -164q-43 0 -90 82l98 128q60 -50 107 -50q81 0 81 110q0 83 -55 156q-60 79 -141 79q-57 0 -135 -58q1 -10 1 -20 q0 -107 -117 -263q-123 -164 -231 -164q-43 0 -90 82l98 128q60 -50 106 -50q81 0 81 110q0 84 -55 156q-59 79 -140 79q-76 0 -176 -93v-226q0 -84 -56 -130q-41 -33 -133 -56q46 202 46 414v634q0 68 -57 112q46 53 129 153q54 -43 71 -183v-619z" />
<glyph unicode="5" horiz-adv-x="1260" d="M200 511q75 76 131 107q71 38 164 38q129 0 201 -130q74 71 126 97q65 33 155 33q86 0 157.5 -69t71.5 -155q0 -111 -117 -268q-122 -164 -231 -164q-43 0 -90 82l98 128q60 -50 107 -50q81 0 81 110q0 83 -55 156q-60 79 -141 79q-57 0 -135 -58q1 -10 1 -20 q0 -107 -117 -263q-123 -164 -231 -164q-43 0 -90 82l98 128q60 -50 106 -50q81 0 81 110q0 84 -55 156q-59 79 -140 79q-76 0 -176 -93v-226q0 -84 -56 -130q-41 -33 -133 -56q46 195 46 332v78q0 68 -57 112q46 53 129 153q54 -43 71 -164z" />
<glyph unicode="6" horiz-adv-x="768" d="M200 186q0 -84 -56 -130q-41 -33 -133 -56q46 195 46 332v78q0 68 -57 112q46 53 129 153q54 -43 71 -164q75 76 131 107q71 38 164 38q85 0 157 -69.5t72 -154.5q0 -112 -117 -268q-123 -164 -231 -164q-43 0 -90 82l98 128q60 -50 106 -50q81 0 81 110q0 84 -55 156 q-59 79 -140 79q-76 0 -176 -93v-226z" />
<glyph unicode="7" horiz-adv-x="830" d="M705 334q-21 -34 -238 -303q-173 -215 -192 -299q-4 -16 -4 -32q0 -56 38 -96.5t95 -40.5q27 0 87 27q-30 -52 -78 -127q-58 -71 -109 -71q-73 0 -117.5 50t-44.5 123q0 90 240 440q0 79 -97 264q-103 195 -167 195q-18 0 -88 -47q105 228 179 228q110 0 322 -450 q78 101 80 104q43 66 43 120q0 15 -3 29q-22 24 -59 24q-55 0 -143 -56q62 84 182 211q33 24 65 24q42 0 74 -33.5t32 -75.5q0 -54 -97 -208z" />
<glyph unicode="8" horiz-adv-x="700" d="M577 184q-34 -40 -120 -145q-32 -39 -146 -39q-115 0 -195 68q-86 72 -86 185q0 114 101 261q88 115 176 231q110 153 110 256q0 13 -7 38t-7 37q0 38 113 143q76 -18 76 -95q0 -72 -209.5 -360.5t-209.5 -368.5q0 -89 69.5 -156.5t158.5 -67.5q26 0 63 19q42 21 42 43 q0 43 -36 91t-78 50q120 159 138 159q52 0 84 -56q27 -47 27 -104q0 -103 -64 -189z" />
<glyph unicode="9" horiz-adv-x="878" d="M145 190l213 452q-126 358 -140 358q-20 0 -102 -57q90 111 192 228q5 2 10 2q50 0 67 -45l359 -938q2 -3 6 -3q20 0 82 46q-60 -86 -95 -131q-76 -100 -103 -108q-47 0 -57 29l-193 543l-235 -526q-21 -46 -61 -46q-18 0 -88 45l89 209q41 -59 53 -59q2 0 3 1z" />
<glyph unicode=":" d="M-164 -20q-106 -197 -363 -197q-75 0 -222 28t-222 28q-124 0 -182 -54q87 186 369 186q61 0 180.5 -25.5t180.5 -25.5q116 0 259 60z" />
<glyph unicode=";" d="M-102 -20q-122 -197 -240 -197q-46 0 -135 28t-126 28q-62 0 -120 -54q114 186 246 186q38 0 111 -22t111 -22q70 0 153 53z" />
<glyph unicode="&#x3c;" horiz-adv-x="768" d="M478 480q162 -65 162 -254q0 -98 -111 -252q-86 -112 -172 -225q-105 -151 -105 -247q0 -13 7.5 -38.5t7.5 -37.5q0 -38 -113 -143q-76 18 -76 95q0 75 140 267l202 270q74 115 74 202q0 81 -66 147t-147 66q-32 0 -71 -15q-47 -19 -47 -46q0 -41 36 -88q39 -50 78 -53 q-119 -159 -137 -159q-47 0 -80 47q-30 42 -30 91q0 109 55 196q8 13 128 160q32 39 146 39q33 0 64 -6q74 114 74 193t-68.5 146t-147.5 67q-32 0 -71 -15q-47 -19 -47 -46q0 -41 36 -88q39 -50 78 -53q-119 -159 -137 -159q-47 0 -80 47q-30 42 -30 91q0 109 55 196 q9 15 128 160q34 41 117 41q126 0 212 -61q98 -69 98 -190q0 -134 -162 -345z" />
<glyph unicode="=" horiz-adv-x="410" d="M56 320l107 107l79 -79l-107 -107z" />
<glyph unicode="&#x3e;" d="M-310 -472l106 107l79 -79l-106 -106zM-420 -301l107 107l79 -79l-107 -107zM-188 -298l107 107l79 -79l-107 -107z" />
<glyph unicode="?" d="M-164 -522q-106 -196 -363 -196q-75 0 -222 28t-222 28q-124 0 -182 -55q87 186 369 186q61 0 180.5 -25t180.5 -25q116 0 259 59z" />
<glyph unicode="@" horiz-adv-x="1260" d="M57 1048q0 68 -57 112q46 53 129 153q54 -43 71 -183v-619q75 76 131 107q71 38 164 38q129 0 201 -130q74 71 126 97q65 33 155 33q86 0 157.5 -69t71.5 -155q0 -111 -117 -268q-122 -164 -231 -164q-43 0 -90 82l98 128q60 -50 107 -50q81 0 81 110q0 83 -55 156 q-60 79 -141 79q-57 0 -135 -58q1 -10 1 -20q0 -107 -117 -263q-123 -164 -231 -164q-43 0 -90 82l98 128q60 -50 106 -50q81 0 81 110q0 84 -55 156q-59 79 -140 79q-76 0 -176 -93v-864q0 -143 -189 -186q46 202 46 414v1272z" />
<glyph unicode="A" horiz-adv-x="768" d="M524 1123q65 74 89 99q51 52 100 87q-46 -202 -46 -414v-1268q0 -68 36 -113l-129 -152q-50 79 -50 163v619q-142 -144 -295 -144q-86 0 -157.5 69t-71.5 155q0 114 116 269q122 163 232 163q43 0 90 -82l-98 -128q-60 49 -107 49q-81 0 -81 -109q0 -83 55 -156 q60 -79 141 -79q73 0 176 92v880z" />
<glyph unicode="B" d="M-101 969l-107 -107l-79 79l107 107z" />
<glyph unicode="C" d="M-56 1146l-106 -107l-79 79l106 107zM54 975l-107 -107l-79 79l107 107zM-178 972l-107 -107l-79 79l107 107z" />
<glyph unicode="D" d="M-416 1118l107 107l79 -79l-107 -107zM-307 947l107 107l79 -79l-107 -107zM-559 944l107 107l79 -79l-107 -107z" />
<glyph unicode="E" d="M-484 1115l107 107l79 -79l-107 -107zM-364 944l107 107l79 -79l-107 -107zM-636 941l106 107l79 -79l-106 -107z" />
<glyph unicode="F" d="M-19 1174l-383 -428l348 478z" />
<glyph unicode="G" d="M-440 941l107 107l79 -79l-107 -107z" />
<glyph unicode="H" d="M-101 985q9 21 5 50q-7 51 -44 51q-79 0 -262 -367q164 426 221 488q55 59 89 59q33 0 57 -27t24 -60q0 -79 -90 -194z" />
<glyph unicode="I" horiz-adv-x="768" d="M164 443q0 -42 36 -89q37 -50 78 -52q-120 -159 -138 -159q-46 0 -80 47q-30 43 -30 91q0 109 55 196q8 13 128 160q32 39 146 39q146 0 228 -102q77 -95 77 -245q0 -243 -178 -550.5t-389 -433.5q161 122 293 380.5t132 457.5q0 115 -60 211q-69 110 -179 110 q-32 0 -71 -16q-48 -19 -48 -45z" />
<glyph unicode="J" d="M-349 1067q129 214 222 214q33 0 55.5 -23t22.5 -57q0 -139 -343 -482q207 254 207 351q0 52 -59 52q-65 0 -105 -55z" />
<glyph unicode="K" horiz-adv-x="768" d="M30 655q0 232 526 676q-347 -355 -347 -583q0 -86 155 -93q-191 -173 -191 -260q0 -89 69.5 -156.5t158.5 -67.5q26 0 63 19q42 21 42 43q0 42 -36.5 90.5t-77.5 50.5q120 159 138 159q46 0 80 -47q30 -43 30 -91q0 -109 -55 -196q-8 -13 -128 -160q-32 -39 -146 -39 q-126 0 -203.5 75t-77.5 201q0 47 118 215q-118 56 -118 164z" />
<glyph unicode="L" d="M-737 -28l106 107l79 -79l-106 -107z" />
<glyph unicode="M" d="M-193 1106q61 96 110 159q33 42 88 42q78 0 78 -85q0 -152 -267 -503q171 328 171 388q0 48 -49 48q-67 0 -131 -49z" />
<glyph unicode="N" d="M43 978q13 38 13 73q0 70 -55 70q-66 0 -185 -402q104 569 226 569q74 0 74 -81q0 -93 -73 -229z" />
<glyph unicode="O" d="M-553 -330l107 107l79 -79l-107 -107z" />
<glyph unicode="P" d="M-164 901q-106 -196 -363 -196q-75 0 -222 28t-222 28q-124 0 -182 -55q87 187 369 187q61 0 180.5 -25.5t180.5 -25.5q116 0 259 59z" />
<glyph unicode="Q" horiz-adv-x="768" d="M200 412v-222h355q16 28 16 80q0 84 -55 156q-59 79 -140 79q-76 0 -176 -93zM200 -452q0 -143 -189 -186q46 202 46 414v1272q0 68 -57 112q46 53 129 153q54 -43 71 -183v-619q75 76 131 107q71 38 164 38q85 0 157 -69.5t72 -154.5q0 -103 -93 -242q31 1 92 25v-4v-3 v-3v-3v-3v-2v-2v-2q0 -34 -133 -193h-390v-452z" />
<glyph unicode="R" d="M-214 1154l-341 -408l306 458z" />
<glyph unicode="S" horiz-adv-x="1260" d="M1154 895v-1268q0 -68 37 -113l-130 -152q-49 79 -49 163l-1 619q-140 -144 -295 -144q-131 0 -203 133q-73 -71 -127 -99q-67 -34 -157 -34q-86 0 -157.5 69t-71.5 155q0 117 115 270q121 162 233 162q43 0 90 -82l-98 -128q-60 49 -107 49q-81 0 -81 -109 q0 -83 55 -156q60 -79 141 -79q58 0 140 63v10q0 117 115 270q120 162 232 162q43 0 91 -82l-99 -128q-59 49 -106 49q-81 0 -81 -109q0 -84 55 -156q59 -79 140 -79t177 92v880q64 73 91 102q70 74 98 84q-47 -202 -47 -414z" />
<glyph unicode="T" d="M-553 941l107 107l79 -79l-107 -107z" />
<glyph unicode="U" d="M-534 1106q61 96 110 159q33 42 88 42q82 0 82 -88q0 -91 -108 -258q-16 -26 -173 -242q181 291 181 388q0 48 -49 48q-67 0 -131 -49z" />
<glyph unicode="V" d="M107 1070l-291 -303l256 353z" />
<glyph unicode="W" horiz-adv-x="1260" d="M1054 270q0 83 -55 156q-60 79 -141 79q-57 0 -135 -58q1 -9 1 -19q0 -95 -98 -238h407q21 29 21 80zM200 412v-222h351q20 29 20 80q0 84 -55 156q-59 79 -140 79q-76 0 -176 -93zM57 1048q0 68 -57 112q46 53 129 153q54 -43 71 -183v-619q142 145 293 145 q131 0 203 -130q135 130 279 130q87 0 159 -69t72 -155q0 -99 -98 -242q45 0 103 25q2 -3 2 -8q0 -49 -134 -207h-879v-452q0 -143 -189 -186q46 202 46 414v1272z" />
<glyph unicode="X" horiz-adv-x="1260" d="M602 489l-396 2q-54 -19 -54 -105q0 -83 55 -156q60 -79 141 -79q58 0 140 63v10q0 110 114 265zM1012 682v441q64 73 91 102q70 74 98 84q-47 -202 -47 -414v-1268q0 -68 37 -113l-130 -152q-49 79 -49 163l-1 619q-140 -144 -295 -144q-131 0 -203 133 q-73 -71 -127 -99q-67 -34 -157 -34q-86 0 -157.5 69t-71.5 155q0 111 116 267q-86 0 -116 -18q92 207 156 207zM1012 489l-325 -1q-47 -21 -47 -102q0 -84 55 -156q59 -79 140 -79t177 92v246z" />
<glyph unicode="Y" d="M-298 912q13 38 13 73q0 70 -55 70q-76 0 -195 -336l87 288q79 215 149 215q74 0 74 -81q0 -93 -73 -229z" />
<glyph unicode="Z" horiz-adv-x="768" d="M524 495l-318 -4q-54 -19 -54 -105q0 -83 55 -156q60 -79 141 -79q80 0 176 92v252zM524 682v441q64 73 91 102q70 74 98 84q-46 -202 -46 -414v-1268q0 -68 36 -113l-129 -152q-50 79 -50 163v619q-142 -144 -295 -144q-86 0 -157.5 69t-71.5 155q0 111 116 267 q-86 0 -116 -18q93 207 156 207z" />
<glyph unicode="[" d="M-600 840h483l-103 -134h-482z" />
<glyph unicode="\" horiz-adv-x="768" d="M620 484q-121 -196 -240 -196q-46 0 -134.5 28t-126.5 28q-61 0 -119 -55q114 186 246 186q38 0 110.5 -22t110.5 -22q71 0 153 53z" />
<glyph unicode="]" horiz-adv-x="650" d="M611 309q-63 -172 -153 -270q-36 -39 -182 -39q-119 0 -197.5 80.5t-78.5 200.5q0 144 101 270q107 135 247 135q104 0 204 -80l-119 -158q-4 0 -76 38t-109 38q-75 0 -98 -26q-17 -20 -17 -79q0 -104 69 -171t174 -67q163 0 235 128z" />
<glyph unicode="^" d="M-347 853q63 90 63 160q0 59 -64 59q-108 0 -310 -353q83 179 172 315q147 224 250 224q95 0 95 -92q0 -109 -206 -313z" />
<glyph unicode="_" horiz-adv-x="410" d="M363 -114q-69 -115 -112 -163q-80 -90 -166 -90q-23 0 -38 23t-15 47q0 31 69 111q60 -66 78 -66q61 0 61 29q0 99 -73 130q-44 19 -159 19h-391l114 138h329q107 0 187 -38q99 -47 116 -140z" />
<glyph unicode="`" horiz-adv-x="410" d="M103 491q-73 0 -103 -18q93 206 156 207l179 2v-496q0 -78 -54 -129q-34 -32 -135 -57q47 196 47 332v78q0 44 -27 81h-63z" />
<glyph unicode="a" horiz-adv-x="768" d="M524 144q-142 -144 -295 -144q-86 0 -157.5 69t-71.5 155q0 117 115 270q121 162 233 162q43 0 90 -82l-98 -128q-60 49 -107 49q-81 0 -81 -109q0 -83 55 -156q60 -79 141 -79q73 0 176 92v245q0 101 189 187q-46 -203 -46 -414v-634q0 -68 36 -113l-129 -152 q-50 79 -50 163v619z" />
<glyph unicode="b" horiz-adv-x="1260" d="M1011 489l-324 -1q-47 -21 -47 -102q0 -84 55 -156q59 -79 140 -79q79 0 176 91v247zM716 0q-131 0 -203 133q-73 -71 -127 -99q-67 -34 -157 -34q-86 0 -157.5 69t-71.5 155q0 111 116 267q-86 0 -116 -18q92 207 156 207l1104 2q-24 -66 -91 -190q-16 -89 -16 -149v-78 q0 -68 57 -113q-45 -52 -129 -152q-70 56 -70 102v41q-75 -75 -132 -105q-71 -38 -163 -38zM602 489l-396 2q-54 -19 -54 -105q0 -83 55 -156q60 -79 141 -79q58 0 140 63v10q0 110 114 265z" />
<glyph unicode="c" horiz-adv-x="768" d="M524 495l-317 -4q-54 -19 -54 -105q0 -83 55 -156q60 -79 141 -79q76 0 175 92v252zM523 143q-141 -143 -294 -143q-86 0 -157.5 69t-71.5 155q0 111 116 267q-48 0 -59 -1q-34 -3 -57 -17q93 207 156 207l368 2v444q146 170 189 187q-46 -203 -46 -414v-651 q7 -58 56 -96q-46 -52 -130 -152q-70 56 -70 102v41z" />
<glyph unicode="d" horiz-adv-x="768" d="M523 143q-143 -143 -294 -143q-86 0 -157.5 69t-71.5 155q0 117 115 270q121 162 233 162q43 0 90 -82l-98 -128q-60 49 -107 49q-81 0 -81 -109q0 -83 55 -156q60 -79 141 -79q76 0 175 91v884q146 170 189 187q-47 -203 -47 -414v-634q0 -68 58 -113q-46 -52 -130 -152 q-54 43 -70 121v22z" />
<glyph unicode="e" horiz-adv-x="768" d="M200 186l318 5q53 19 53 79q0 82 -55 155q-60 79 -140 79t-176 -92v-226zM200 511q76 77 131 107q70 37 164 37q85 0 157 -69t72 -154t-117 -241q85 0 117 18q-94 -209 -158 -209h-560q51 202 51 414v634q0 68 -57 112q46 53 129 153q54 -43 71 -183v-619z" />
<glyph unicode="f" horiz-adv-x="1260" d="M1011 144q-158 -144 -295 -144q-131 0 -203 133q-73 -71 -127 -99q-67 -34 -157 -34q-86 0 -157.5 69t-71.5 155q0 117 115 270q121 162 233 162q43 0 90 -82l-98 -128q-60 49 -107 49q-81 0 -81 -109q0 -83 55 -156q60 -79 141 -79q58 0 140 63v10q0 117 115 270 q120 162 232 162q43 0 91 -82l-99 -128q-59 49 -106 49q-81 0 -81 -109q0 -84 55 -156q59 -79 140 -79t177 92v880q152 176 188 190q-46 -203 -46 -414v-634q0 -68 57 -113q-106 -121 -130 -152q-70 56 -70 102v42z" />
<glyph unicode="g" horiz-adv-x="1260" d="M835 151q79 0 176 91v246q0 101 188 187q-46 -196 -46 -332v-78q0 -68 57 -113q-45 -52 -129 -152q-70 56 -70 102v41q-75 -75 -132 -105q-71 -38 -163 -38q-131 0 -203 133q-73 -71 -127 -99q-67 -34 -157 -34q-86 0 -157.5 69t-71.5 155q0 117 115 270q121 162 233 162 q43 0 90 -82l-98 -128q-60 49 -107 49q-81 0 -81 -109q0 -83 55 -156q60 -79 141 -79q58 0 140 63v10q0 117 115 270q120 162 232 162q43 0 91 -82l-99 -128q-59 49 -106 49q-81 0 -81 -109q0 -84 55 -156q59 -79 140 -79z" />
<glyph unicode="h" horiz-adv-x="768" d="M523 143q-141 -143 -294 -143q-86 0 -157.5 69t-71.5 155q0 117 115 270q121 162 233 162q43 0 90 -82l-98 -128q-60 49 -107 49q-81 0 -81 -109q0 -83 55 -156q60 -79 141 -79q77 0 175 92v245q0 101 189 187q-46 -198 -46 -332v-78q0 -68 57 -113q-46 -52 -130 -152 q-70 56 -70 102v41z" />
<glyph unicode="i" horiz-adv-x="768" d="M30 284q0 109 55 196q8 13 128 160q32 39 146 39q126 0 203.5 -75t77.5 -201q0 -98 -101 -240l-186 -244q-101 -143 -101 -241q0 -13 7.5 -38t7.5 -37q0 -38 -113 -143q-76 18 -76 95q0 72 209.5 360.5t209.5 368.5q0 90 -69.5 157t-159.5 67q-26 0 -63 -19 q-42 -21 -42 -43q0 -40 37 -88q38 -51 77 -53q-119 -159 -137 -159q-47 0 -80 47q-30 42 -30 91z" />
<glyph unicode="j" horiz-adv-x="1209" d="M1179 653q-41 -210 -355 -210q-68 0 -203 15.5t-202 15.5q-89 0 -187 -179q-89 -163 -89 -264q0 -160 133 -280q129 -115 291 -115q98 0 219 48q145 58 145 130q0 48 -55 112l114 138q28 0 57 -42.5t29 -71.5q0 -105 -141 -258q-125 -136 -216 -180q-99 -48 -276 -48 q-158 0 -299 127q-144 130 -144 287q0 130 110 320q87 152 204 281q-13 15 -60 15q-60 0 -134 -21q-77 -22 -98 -46q50 238 413 238q93 0 278 -17.5t278 -17.5q116 0 188 23z" />
<glyph unicode="k" horiz-adv-x="768" d="M192 22q-162 65 -162 254q0 92 111 252l176 232q101 137 101 240q0 13 -7.5 38.5t-7.5 37.5q0 38 113 143q76 -18 76 -95q0 -92 -209 -360q-109 -139 -133 -177q-74 -116 -74 -202q0 -81 66 -147t147 -66q32 0 71 15q47 19 47 46q0 41 -36 88q-39 50 -78 53 q119 159 137 159q47 0 80 -47q30 -42 30 -91q0 -109 -55 -196q-8 -13 -128 -160q-32 -39 -146 -39q-33 0 -64 6q-74 -114 -74 -193t68.5 -146t147.5 -67q32 0 71 15q47 19 47 46q0 41 -36 88q-39 50 -78 53q119 159 137 159q47 0 80 -47q30 -42 30 -91q0 -109 -55 -196 q-9 -15 -128 -160q-34 -41 -117 -41q-126 0 -212 61q-98 69 -98 190q0 134 162 345z" />
<glyph unicode="l" horiz-adv-x="821" d="M821 233q-53 -113 -66 -136q-54 -97 -94 -97h-2q-31 0 -85 66l-169 210l-155 -183q-79 -93 -155 -93q-40 0 -95 76l100 143q53 -48 95 -48q21 0 167 158q-35 46 -135 152q-26 17 -57 17q-54 0 -97 -45q28 71 77 131q64 77 122 77t257.5 -230.5t222.5 -230.5q19 0 69 33z " />
<glyph unicode="m" horiz-adv-x="1188" d="M112 88q0 75 64 204q55 110 116 187q-13 15 -60 15q-60 0 -134 -21q-77 -22 -98 -46q50 238 413 238q93 0 278 -17.5t278 -17.5q116 0 188 23q-41 -210 -355 -210q-68 0 -203 15.5t-202 15.5q-55 0 -105 -100q-44 -87 -44 -150q0 -117 151 -117q6 0 127 11q77 7 135 7h3 h3q321 0 321 -256q0 -48 -102.5 -202.5t-140.5 -154.5q-43 0 -127.5 -5.5t-127.5 -5.5q-96 0 -196 32q-135 42 -135 117q0 50 131 195q23 -124 145 -164q70 -23 233 -23q158 0 158 87q0 215 -182 215q-9 -1 -18 -1l-338 -19h-12h-10q-52 0 -99 37q-55 43 -55 111z" />
<glyph unicode="n" horiz-adv-x="768" d="M523 495l-317 -4q-54 -19 -54 -105q0 -83 55 -156q60 -79 141 -79q77 0 175 92v252zM523 143q-141 -143 -294 -143q-86 0 -157.5 69t-71.5 155q0 111 116 267q-86 0 -116 -18q92 207 156 207l603 2q-17 -45 -70 -152q-23 -126 -23 -187v-78q0 -68 57 -113 q-46 -52 -130 -152q-70 56 -70 102v41z" />
<glyph unicode="o" horiz-adv-x="900" d="M523 103q-65 -65 -136 -86q-55 -17 -158 -17q-86 0 -157.5 69t-71.5 155q0 92 84 214q78 113 164 165q72 44 193 44q46 0 82 -22v501q146 170 189 187q-47 -203 -47 -414v-634q0 -43 17.5 -78.5t34.5 -35.5q4 0 6 1q32 15 85 15q25 0 70.5 -6t70.5 -6q47 0 86 14 q-5 -29 -54.5 -97.5t-74.5 -73.5q-7 -1 -17 -1q-23 0 -86 11t-87 11q-20 0 -56.5 -9.5t-55.5 -9.5q-30 0 -55.5 29.5t-25.5 73.5zM318 511q-85 0 -118 -18q-48 -27 -48 -107q0 -83 55 -156q60 -79 141 -79q66 0 82 3q50 9 93 48q0 168 -18 213q-38 96 -187 96z" />
<glyph unicode="p" d="M-102 901q-122 -196 -240 -196q-46 0 -135 28t-126 28q-62 0 -120 -55q114 187 246 187q38 0 111 -22.5t111 -22.5q70 0 153 53z" />
<glyph unicode="q" horiz-adv-x="768" d="M200 190h355q16 28 16 80q0 84 -55 156q-59 79 -140 79q-76 0 -176 -93v-222zM200 511q75 76 131 107q71 38 164 38q85 0 157 -69.5t72 -154.5q0 -103 -93 -242q31 1 92 25v-4q0 -53 -133 -211h-390v-452q0 -143 -189 -186q46 202 46 414v634q0 68 -57 112q46 53 129 153 q54 -43 71 -164z" />
<glyph unicode="r" horiz-adv-x="1260" d="M57 414v634q0 68 -57 112q46 53 129 153q54 -43 71 -183v-619q142 145 293 145q131 0 203 -130q135 130 279 130q87 0 159 -68.5t72 -155.5q0 -99 -98 -242q45 0 103 25q2 -4 2 -10q0 -46 -134 -205h-1079q57 110 57 414zM200 186l351 4q20 29 20 80q0 84 -55 156 q-59 79 -140 79q-76 0 -176 -93v-226zM1054 270q0 83 -55 156q-60 79 -141 79q-57 0 -135 -58q1 -9 1 -19q0 -95 -98 -238h407q21 29 21 80z" />
<glyph unicode="s" horiz-adv-x="1260" d="M835 151q81 0 177 92v245q0 101 189 187q-47 -203 -47 -414v-634q0 -68 37 -113l-130 -152q-49 79 -49 163l-1 619q-140 -144 -295 -144q-131 0 -203 133q-73 -71 -127 -99q-67 -34 -157 -34q-86 0 -157.5 69t-71.5 155q0 117 115 270q121 162 233 162q43 0 90 -82 l-98 -128q-60 49 -107 49q-81 0 -81 -109q0 -83 55 -156q60 -79 141 -79q58 0 140 63v10q0 117 115 270q120 162 232 162q43 0 91 -82l-99 -128q-59 49 -106 49q-81 0 -81 -109q0 -84 55 -156q59 -79 140 -79z" />
<glyph unicode="t" horiz-adv-x="1260" d="M626 190h407q21 29 21 80q0 83 -55 156q-60 79 -141 79q-57 0 -135 -58q1 -9 1 -19q0 -95 -98 -238zM200 511q142 145 293 145q131 0 203 -130q135 130 279 130q87 0 159 -68.5t72 -155.5q0 -99 -98 -242q45 0 103 25q2 -4 2 -10q0 -46 -134 -205h-1079q57 114 57 332v78 q0 68 -57 112q46 53 129 153q54 -43 71 -164zM376 505q-76 0 -176 -93v-226l351 4q20 29 20 80q0 84 -55 156q-59 79 -140 79z" />
<glyph unicode="u" horiz-adv-x="830" d="M705 334q-21 -34 -238 -303q-173 -215 -192 -299q-4 -16 -4 -32q0 -56 38 -96.5t95 -40.5q27 0 87 27q-30 -52 -78 -127q-58 -71 -109 -71q-73 0 -117.5 50t-44.5 123q0 90 240 440q0 48 -55 173q-135 -170 -135 -194q0 -39 31 -58l-122 -165q-46 51 -46 96q0 30 19 64 q28 50 232 302q-116 241 -188 241q-18 0 -88 -47q105 228 179 228q110 0 322 -450q78 101 80 104q43 66 43 120q0 15 -3 29q-22 24 -59 24q-55 0 -143 -56q62 84 182 211q33 24 65 24q42 0 74 -33.5t32 -75.5q0 -54 -97 -208z" />
<glyph unicode="v" horiz-adv-x="1260" d="M1011 1126q146 170 189 187q-46 -203 -46 -414v-634q0 -68 57 -113q-46 -52 -129 -152q-71 57 -71 121v23q-140 -144 -295 -144q-131 0 -203 133q-73 -71 -127 -99q-67 -34 -157 -34q-86 0 -157.5 69t-71.5 155q0 111 116 267q-86 0 -116 -18q92 207 156 207l855 2v444z M687 488q-47 -21 -47 -102q0 -84 55 -156q59 -79 140 -79t177 92v246zM602 489l-396 2q-54 -19 -54 -105q0 -83 55 -156q60 -79 141 -79q58 0 140 63q0 120 114 275z" />
<glyph unicode="w" horiz-adv-x="1260" d="M200 511q142 145 293 145q131 0 203 -130q135 130 279 130q87 0 159 -69t72 -155q0 -99 -98 -242q45 0 103 25q2 -3 2 -8q0 -49 -134 -207h-879v-452q0 -143 -189 -186q46 202 46 414v634q0 68 -57 112q46 53 129 153q54 -43 71 -164zM376 505q-76 0 -176 -93v-222h351 q20 29 20 80q0 84 -55 156q-59 79 -140 79zM1054 270q0 83 -55 156q-60 79 -141 79q-57 0 -135 -58q1 -9 1 -19q0 -95 -98 -238h407q21 29 21 80z" />
<glyph unicode="x" horiz-adv-x="1260" d="M602 489l-396 2q-54 -19 -54 -105q0 -83 55 -156q60 -79 141 -79q58 0 140 63q0 120 114 275zM1163 489q-9 -73 -9 -228v-634q0 -68 37 -113l-130 -152q-49 79 -49 163l-1 619q-140 -144 -295 -144q-131 0 -203 133q-73 -71 -127 -99q-67 -34 -157 -34q-86 0 -157.5 69 t-71.5 155q0 111 116 267q-86 0 -116 -18q92 207 156 207l1104 2q-25 -68 -93 -193h-4zM1012 489l-325 -1q-47 -21 -47 -102q0 -84 55 -156q59 -79 140 -79t177 92v246z" />
<glyph unicode="y" horiz-adv-x="768" d="M200 186l312 5q54 19 54 79q0 83 -56 156q-60 78 -140 78q-74 0 -170 -87v-231zM195 512q75 76 131 106q69 37 163 37q86 0 157.5 -68.5t71.5 -154.5q0 -85 -116 -241q86 0 116 18q-94 -209 -158 -209h-560q57 195 57 332v78q0 68 -57 112q46 53 129 153q37 -29 66 -163z " />
<glyph unicode="z" horiz-adv-x="768" d="M679 513q-12 -73 -12 -252v-634q0 -68 36 -113l-129 -152q-50 79 -50 163v619q-142 -144 -295 -144q-86 0 -157.5 69t-71.5 155q0 111 116 267q-86 0 -116 -18q92 207 156 207l603 2q-20 -54 -80 -169zM524 495l-318 -4q-54 -19 -54 -105q0 -83 55 -156q60 -79 141 -79 q80 0 176 92v252z" />
<glyph unicode="{" d="M-1071 840h954l-103 -134h-953z" />
<glyph unicode="|" d="M-349 -234q-170 -274 -272 -274q-40 0 -68.5 28t-28.5 68q0 126 252 375q143 142 322 281q-415 -399 -415 -519q0 -56 60 -56q62 0 150 97z" />
<glyph unicode="}" d="M-128 -276q-18 -155 -38 -222q-45 -150 -132 -150q-105 0 -105 142q0 244 259 750q-167 -433 -167 -582q0 -96 61 -96q73 0 122 158z" />
<glyph unicode="~" horiz-adv-x="410" d="M166 491h-63q-73 0 -103 -18q93 206 156 207l179 2v-1134q0 -143 -189 -186q47 202 47 414v634q0 44 -27 81z" />
<glyph unicode="&#xa1;" horiz-adv-x="610" d="M554 179q-71 -155 -106 -208q-83 -126 -172 -126q-22 0 -37.5 23t-15.5 46q0 32 69 152q61 -66 79 -66q61 0 61 29q0 80 -27 113q-30 36 -105 36q-46 0 -137.5 -89t-162.5 -89h-392l184 190h208q43 0 143.5 89t156.5 89q220 0 254 -189z" />
<glyph unicode="&#xa2;" horiz-adv-x="410" d="M354 483q-71 -155 -106 -208q-83 -126 -172 -126q-22 0 -37.5 23t-15.5 46q0 32 69 152q61 -66 79 -66q61 0 61 29q0 99 -73 130q-44 19 -159 19h-222l134 190h160q101 0 177 -45q88 -51 105 -144z" />
<glyph unicode="&#xa3;" horiz-adv-x="600" d="M-466 -421q0 -39 44 -68q40 -26 81 -26q34 0 65 15q110 53 336 500h-452l184 190h340q128 271 350 271q79 0 79 -79q0 -110 -97 -257q-52 -79 -132 -106q-57 -19 -170 -19q-183 -332 -201 -362q-157 -264 -243 -315q-35 -21 -88 -21q-75 0 -137 40q-70 46 -70 117 q0 105 133 206q0 -4 -11 -25t-11 -61zM234 190h161q37 0 37 37q0 29 -21 51.5t-50 22.5q-64 0 -127 -111z" />
<glyph unicode="&#xa4;" horiz-adv-x="768" d="M391 393q67 0 114 47t47 114t-47 114t-114 47t-114 -47t-47 -114t47 -114t114 -47zM518 710l43 43l29 -29l-43 -43q45 -55 45 -127t-45 -127l43 -43l-29 -29l-42 43q-56 -45 -128 -45t-127 45l-43 -43l-29 29l43 43q-45 55 -45 127t45 128l-43 43l29 28l43 -43 q55 45 127 45t127 -45z" />
<glyph unicode="&#xa5;" horiz-adv-x="700" d="M-153 -577q33 0 64 12q83 32 247 491h-521l94 138h480q94 281 310 281q96 0 96 -105q0 -131 -70 -220q-76 -97 -203 -95l-84 1q-64 -187 -150 -364q-122 -249 -215 -304q-39 -23 -93 -23q-73 0 -129 37q-63 42 -63 112q0 74 103 216q-7 -80 3 -105q30 -72 131 -72z M313 64h161q33 0 33 38q0 35 -24 68.5t-57 33.5q-64 0 -113 -140z" />
<glyph unicode="&#xa6;" horiz-adv-x="1240" d="M524 495l-318 -4q-54 -19 -54 -105q0 -83 55 -156q60 -79 141 -79q80 0 176 92v252zM843 505q-76 0 -176 -93v-785q0 -68 36 -113l-129 -152q-50 79 -50 163v619q-142 -144 -295 -144q-86 0 -157.5 69t-71.5 155q0 111 116 267q-86 0 -116 -18q93 207 156 207l368 2v441 q64 74 93 104q68 72 96 82q-46 -202 -46 -414v-384q75 76 131 107q71 38 164 38q85 0 157 -69.5t72 -154.5q0 -115 -116 -269q-122 -163 -232 -163q-43 0 -90 82l98 128q60 -50 106 -50q81 0 81 110q0 84 -55 156q-59 79 -140 79z" />
<glyph unicode="&#xa7;" horiz-adv-x="1240" d="M843 505q-76 0 -176 -93v-785q0 -68 36 -113l-129 -152q-50 79 -50 163v619q-142 -144 -295 -144q-86 0 -157.5 69t-71.5 155q0 117 115 270q121 162 233 162q43 0 90 -82l-98 -128q-60 49 -107 49q-81 0 -81 -109q0 -83 55 -156q60 -79 141 -79q73 0 176 92v880 q61 70 89 99q52 53 100 87q-46 -202 -46 -414v-384q75 76 131 107q71 38 164 38q85 0 157 -69.5t72 -154.5q0 -115 -116 -269q-122 -163 -232 -163q-43 0 -90 82l98 128q60 -50 106 -50q81 0 81 110q0 84 -55 156q-59 79 -140 79z" />
<glyph unicode="&#xa8;" d="M-202 -406q-69 -86 -159 -86q-67 0 -108 64q-35 53 -35 100q0 57 56 131q66 88 144 88q51 0 101 -40q59 -46 59 -115q0 -71 -58 -142zM-225 -359q0 61 -44 111q-40 46 -88 46q-27 0 -45 -18t-18 -42q0 -46 44 -91q38 -39 82 -39q39 0 69 33z" />
<glyph unicode="&#xa9;" d="M-100 -406q-70 -86 -159 -86q-68 0 -109 64q-34 53 -34 100q0 57 55 131q67 88 145 88q50 0 100 -40q59 -46 59 -115q0 -71 -57 -142zM-123 -359q0 61 -44 111q-40 46 -89 46q-26 0 -46 -19q-16 -17 -16 -41q0 -46 44 -91q38 -39 82 -39q38 0 69 33z" />
<glyph unicode="&#xaa;" d="M-526 969l-107 -107l-79 79l107 107zM-666 1140l-107 -107l-79 79l107 107zM-373 1143l-107 -107l-79 79l107 107z" />
<glyph unicode="&#xab;" horiz-adv-x="592" d="M223 881l-117 -113q58 78 58 194v189q0 16 -29 16q-8 0 -19 -1l168 172l1 -228q0 -88 -6 -122q-12 -65 -56 -107zM422 911l-117 -113q58 78 58 194v189q0 16 -29 16q-8 0 -19 -1l168 172l1 -228q0 -88 -6 -122q-12 -65 -56 -107z" />
<glyph unicode="&#xac;" horiz-adv-x="768" d="M620 354q-121 -196 -240 -196q-46 0 -134.5 28t-126.5 28q-61 0 -119 -55q114 186 246 186q38 0 110.5 -22t110.5 -22q71 0 153 53zM650 594q-121 -196 -240 -196q-46 0 -134.5 28t-126.5 28q-61 0 -119 -55q114 186 246 186q38 0 110.5 -22t110.5 -22q71 0 153 53z" />
<glyph unicode="&#xad;" d="M-330 969l-107 -107l-79 79l107 107zM-450 1140l-107 -107l-79 79l107 107zM-178 1143l-106 -107l-79 79l106 107z" />
<glyph unicode="&#xae;" horiz-adv-x="768" d="M45 -447l375 461q-61 -14 -141 -14q-81 0 -165 79t-84 159q0 154 118 286q122 135 274 135q91 0 187 -56q108 -65 108 -149q0 -188 -158 -365l-474 -530zM584 320q0 76 -123 123q-95 37 -187 37q-72 0 -129 -52q0 -100 79 -164q73 -61 175 -61q61 0 117 28q68 34 68 89z " />
<glyph unicode="&#xaf;" d="M-264 972l-107 -107l-79 79l107 107zM-373 1143l-107 -107l-79 79l107 107zM-121 1146l-107 -107l-79 79l107 107z" />
<glyph unicode="&#xb0;" d="M-312 296q-152 -196 -270 -196q-52 0 -153.5 28t-152.5 28q-77 0 -135 -55q144 187 276 187q45 0 132.5 -22.5t132.5 -22.5q87 0 170 53z" />
<glyph unicode="&#xb1;" horiz-adv-x="240" d="M230 1143q-88 -77 -88 -163q0 -81 88 -140l-145 -174q-74 44 -74 141q0 96 65.5 197t153.5 139z" />
<glyph unicode="&#xb2;" horiz-adv-x="240" d="M10 666q88 78 88 164q0 80 -88 140l145 173q74 -44 74 -141q0 -96 -65.5 -197t-153.5 -139z" />
<glyph unicode="&#xb3;" horiz-adv-x="768" d="M322 496q-27 0 -63 -18q-42 -20 -42 -44q0 -41 36 -88q39 -50 78 -52q-119 -160 -137 -160q-46 0 -79 48q-31 43 -31 91q0 111 54 197q4 5 129 159q33 41 131 41q129 0 212.5 -75t83.5 -203q0 -95 -231 -433q-159 -219 -317 -439q78 26 183 26q61 0 180.5 -25t180.5 -25 q116 0 259 59q-106 -196 -363 -196q-75 0 -222 28t-222 28q-105 0 -182 -55q35 75 333 469q258 341 258 444q0 90 -69.5 156.5t-159.5 66.5z" />
<glyph unicode="&#xb4;" d="M-669 -28l107 107l79 -79l-107 -107zM-922 -31l107 107l79 -79l-107 -107z" />
<glyph unicode="&#xb5;" d="M-254 944l106 107l79 -79l-106 -107zM-364 1115l107 107l79 -79l-107 -107zM-132 1118l107 107l79 -79l-107 -107z" />
<glyph unicode="&#xb6;" horiz-adv-x="1260" d="M1016 1368q-24 -68 -92 -193h-5q-8 -73 -8 -228v-1320q0 -68 37 -113l-130 -152q-50 79 -50 163v1650h-93q-8 -73 -8 -228v-1320q0 -68 36 -113l-129 -152q-50 79 -50 163v1305q-142 -144 -295 -144q-86 0 -157.5 69t-71.5 155q0 74 111 266t159 192h746zM206 1177 q-54 -19 -54 -105q0 -83 55 -156q60 -79 141 -79q80 0 176 92v246q-36 0 -159 2q-99 1 -159 0z" />
<glyph unicode="&#xb7;" horiz-adv-x="410" d="M121 340l87 87l79 -79l-87 -87z" />
<glyph unicode="&#xb8;" d="M-861 235h483l-103 -134h-482z" />
<glyph unicode="&#xb9;" horiz-adv-x="410" d="M237 122l-237 -218l199 262z" />
<glyph unicode="&#xba;" horiz-adv-x="410" d="M61 59l107 107l79 -79l-107 -107z" />
<glyph unicode="&#xbb;" horiz-adv-x="592" d="M223 -457l-117 -113q58 78 58 194v189q0 16 -29 16q-8 0 -19 -1l168 172l1 -228q0 -88 -6 -122q-12 -65 -56 -107zM422 -427l-117 -113q58 78 58 194v189q0 16 -29 16q-8 0 -19 -1l168 172l1 -228q0 -88 -6 -122q-12 -65 -56 -107z" />
<glyph unicode="&#xbc;" horiz-adv-x="768" d="M103 491q-73 0 -103 -18q93 206 156 207l179 2v-22q42 21 102 21q-1 0 263 0l197 1l-79 -187q-135 0 -483 -2v-307q0 -78 -54 -129q-34 -32 -135 -57q47 196 47 332v78q0 44 -27 81h-63z" />
<glyph unicode="&#xbd;" horiz-adv-x="297" d="M200 186q0 -79 -54 -130t-135 -56q46 202 46 414v634q0 68 -57 112q46 53 129 153q54 -43 71 -183v-944z" />
<glyph unicode="&#xbe;" horiz-adv-x="768" d="M147 -195zM768 0q-122 -197 -240 -197q-46 0 -135 28t-126 28q-57 0 -120 -54q47 100 240 247q164 125 164 221q0 90 -69.5 156.5t-159.5 66.5q-27 0 -63 -18q-42 -20 -42 -44q0 -41 36 -88q39 -50 78 -52q-119 -160 -137 -160q-46 0 -79 48q-31 43 -31 91q0 111 54 197 q4 5 129 159q33 41 131 41q129 0 212.5 -75t83.5 -203q0 -119 -91 -231q-58 -72 -187 -171q29 -3 99 -24q63 -19 100 -19q70 0 153 53z" />
<glyph unicode="&#xbf;" horiz-adv-x="768" d="M0 0l345 506q186 273 186 367q0 90 -69.5 156.5t-159.5 66.5q-27 0 -63 -18q-42 -20 -42 -44q0 -41 36 -88q39 -50 78 -52q-119 -160 -137 -160q-46 0 -79 48q-31 43 -31 91q0 111 54 197q4 5 129 159q33 41 131 41q129 0 212.5 -75t83.5 -203q0 -94 -160 -334 q-117 -163 -233 -325q16 11 39 11q52 0 189 -81.5t171 -81.5q18 0 88 47q-135 -228 -179 -228q-42 0 -186.5 82.5t-195.5 82.5q-29 0 -46 -17l-117 -118q-8 -8 -44 -30z" />
<glyph unicode="&#xc0;" horiz-adv-x="600" d="M195 301v-145q9 -2 19 -2q52 0 104.5 43t52.5 94q0 46 -83 46q-61 0 -93 -36zM195 589v-139q64 9 118 44q66 42 66 96q0 29 -27 49t-57 20q-59 0 -100 -70zM195 -225q0 -101 -189 -186q46 202 46 414v613q0 68 -57 113q81 90 200 191v-213q118 126 203 126 q36 0 70.5 -34.5t34.5 -70.5q0 -65 -105 -214q105 -42 105 -129q0 -45 -103 -190q-94 -134 -145 -178q-16 -14 -60 -17v-225z" />
<glyph unicode="&#xc1;" horiz-adv-x="284" d="M219 295q0 -156 -145 -295q31 114 31 137q0 64 -52.5 192t-52.5 204q0 57 61 155q58 93 109 129q-17 -27 -36.5 -84t-19.5 -86q0 -40 52.5 -162.5t52.5 -189.5z" />
<glyph unicode="&#xc2;" horiz-adv-x="1260" d="M1020 484q-147 -193 -391 -193q-77 0 -230 28.5t-226 28.5q-111 0 -173 -59q144 184 381 183q70 0 212 -22t214 -22q127 0 213 56z" />
<glyph unicode="&#xc3;" horiz-adv-x="410" d="M329 403q0 -107 -85 -241q-91 -143 -190 -162q120 123 120 253q0 179 -174 219q15 44 145 174q67 0 128 -90q56 -82 56 -153z" />
<glyph unicode="&#xc4;" horiz-adv-x="880" d="M800 370q0 -82 -97 -253q-94 -165 -165 -223q-137 114 -232 114q-86 0 -142 -81q-50 -72 -50 -162q0 -134 85 -216t220 -82q59 0 115 19q76 26 76 74q0 20 -48 57l100 143q33 0 57 -28t24 -62q0 -86 -121 -234q-125 -152 -208 -152q-202 0 -296 61q-118 77 -118 268 q0 185 156 476q-4 147 -11 307q-11 33 -68 80l118 170q66 -43 97 -105q100 124 213 124q124 0 209.5 -85.5t85.5 -209.5zM657 236q0 101 -61 172q-64 76 -163 76q-87 0 -137 -89v-215q48 15 89 15q56 0 125 -31q58 -31 116 -61q31 66 31 133z" />
<glyph unicode="&#xc5;" horiz-adv-x="410" d="M-392 0l184 190h391q42 0 42 51q0 35 -21 64.5t-54 29.5q-53 0 -110 -85q73 156 118 197q37 34 112 34q87 0 87 -78q0 -57 -105 -249q-84 -154 -188 -154h-456z" />
<glyph unicode="&#xc6;" horiz-adv-x="410" d="M-222 482l134 190h251q65 0 65 61q0 32 -21.5 58t-54.5 26q-55 0 -112 -85q73 156 118 197q37 34 112 34q87 0 87 -78q0 -57 -105 -249q-84 -154 -188 -154h-286z" />
<glyph unicode="&#xc7;" horiz-adv-x="330" d="M284 -233q0 -68 -107 -223q-111 -160 -172 -160q-52 0 -102 33q-56 37 -56 86q0 41 102 169q18 -56 33 -73q32 -36 113 -36q40 0 40 60q0 178 -497 377l170 140q476 -231 476 -373z" />
<glyph unicode="&#xc8;" d="M-799 -369l107 107l79 -79l-107 -107z" />
<glyph unicode="&#xc9;" d="M-583 -369l107 107l79 -79l-107 -107z" />
<glyph unicode="&#xca;" d="M-490 -369l107 107l79 -79l-107 -107z" />
<glyph unicode="&#xcb;" d="M-101 -341l-107 -107l-79 79l107 107z" />
<glyph unicode="&#xcc;" d="M-649 -348l107 107l79 -79l-107 -107zM-942 -351l107 107l79 -79l-107 -107z" />
<glyph unicode="&#xcd;" d="M-484 -348l107 107l79 -79l-107 -107zM-716 -351l106 107l79 -79l-106 -107z" />
<glyph unicode="&#xce;" d="M-301 -348l107 107l79 -79l-107 -107zM-533 -351l106 107l79 -79l-106 -107z" />
<glyph unicode="&#xcf;" d="M-420 -351l107 107l79 -79l-107 -107zM-188 -348l107 107l79 -79l-107 -107z" />
<glyph unicode="&#xd0;" d="M-526 -444l-107 -107l-79 79l107 107zM-666 -273l-107 -107l-79 79l107 107zM-373 -270l-107 -107l-79 79l107 107z" />
<glyph unicode="&#xd1;" d="M-386 -447l-107 -107l-79 79l107 107zM-506 -276l-107 -107l-79 79l107 107zM-234 -273l-106 -107l-79 79l106 107z" />
<glyph unicode="&#xd2;" d="M-264 -444l-107 -107l-79 79l107 107zM-373 -273l-107 -107l-79 79l107 107zM-121 -270l-107 -107l-79 79l107 107z" />
<glyph unicode="&#xd3;" d="M-310 -472l106 107l79 -79l-106 -107zM-420 -301l107 107l79 -79l-107 -107zM-188 -298l107 107l79 -79l-107 -107z" />
<glyph unicode="&#xd4;" d="M-579 944l107 107l79 -79l-107 -107zM-892 941l107 107l79 -79l-107 -107z" />
<glyph unicode="&#xd5;" d="M-706 941l106 107l79 -79l-106 -107zM-254 969l-107 -107l-79 79l107 107z" />
<glyph unicode="&#xd6;" d="M-321 944l107 107l79 -79l-107 -107zM-579 944l107 107l79 -79l-107 -107z" />
<glyph unicode="&#xd7;" d="M-2 972l-107 -107l-79 79l107 107zM-254 969l-107 -107l-79 79l107 107z" />
<glyph unicode="&#xd8;" d="M-433 1146l-237 -284l-191 191l107 107l150 -150l153 153z" />
<glyph unicode="&#xd9;" d="M-258 1125l-237 -263l-171 171l107 107l131 -132l152 135z" />
<glyph unicode="&#xda;" d="M-145 1125l-237 -263l-171 171l107 107l132 -132l151 135z" />
<glyph unicode="&#xdb;" d="M29 1125l-237 -263l-171 171l107 107l132 -132l151 135z" />
<glyph unicode="&#xdc;" d="M-861 880l236 283l192 -191l-107 -107l-150 150l-154 -153z" />
<glyph unicode="&#xdd;" d="M-686 880l237 263l171 -171l-107 -107l-132 132l-151 -135z" />
<glyph unicode="&#xde;" d="M-553 880l237 263l171 -171l-107 -107l-131 132l-152 -135z" />
<glyph unicode="&#xdf;" d="M-400 880l237 263l171 -171l-107 -107l-131 132l-152 -135z" />
<glyph unicode="&#xe0;" d="M-324 1062q-90 -191 -145 -191h-1q-43 2 -77 50l-92 130l-80 -96q-70 -84 -130 -84q-54 0 -96 59l90 129q48 -43 86 -43q14 0 91 82q-11 17 -92 108q-24 28 -70 28q-27 0 -49 -24q63 158 160 158q53 0 187.5 -168t155.5 -168q17 0 62 30z" />
<glyph unicode="&#xe1;" d="M-154 1062q-90 -191 -145 -191h-1q-43 2 -77 50l-92 130l-80 -96q-70 -84 -130 -84q-54 0 -96 59l90 129q48 -43 86 -43q14 0 91 82q-11 17 -92 108q-24 28 -70 28q-27 0 -49 -24q63 158 160 158q53 0 187.5 -168t155.5 -168q17 0 62 30z" />
<glyph unicode="&#xe2;" d="M0 1062q-91 -193 -146 -191q-43 2 -77 50l-92 130l-80 -96q-70 -84 -130 -84q-54 0 -96 59l90 129q48 -43 86 -43q14 0 91 82q-11 17 -92 108q-24 28 -70 28q-27 0 -49 -24q63 158 160 158q53 0 188 -168t155 -168q17 0 62 30z" />
<glyph unicode="&#xe3;" d="M140 1062q-91 -193 -146 -191q-43 2 -77 50l-92 130l-80 -96q-70 -84 -130 -84q-54 0 -96 59l90 129q48 -43 86 -43q14 0 91 82q-11 17 -92 108q-24 28 -70 28q-27 0 -49 -24q63 158 160 158q53 0 188 -168t155 -168q17 0 62 30z" />
<glyph unicode="&#xe4;" d="M-714 -446q-170 -274 -272 -274q-40 0 -69.5 29t-29.5 69q0 173 432 510q-276 -257 -276 -367q0 -64 65 -64q62 0 150 97z" />
<glyph unicode="&#xe5;" d="M-365 -469q-61 -96 -110 -159q-33 -42 -88 -42q-82 0 -82 88q0 91 108 258q16 26 173 242q-181 -291 -181 -388q0 -48 49 -48q67 0 131 49z" />
<glyph unicode="&#xe6;" d="M-297 -430q-129 -214 -222 -214q-33 0 -55.5 23t-22.5 57q0 139 343 482q-207 -254 -207 -351q0 -52 59 -52q65 0 105 55z" />
<glyph unicode="&#xe7;" d="M-115 -469q-61 -96 -110 -159q-33 -42 -88 -42q-78 0 -78 85q0 152 267 503q-171 -328 -171 -388q0 -48 49 -48q67 0 131 49z" />
<glyph unicode="&#xe8;" d="M-287 1135q15 -36 -281 -409l157 254q7 11 -95 11h-431q-64 0 -64 92q0 40 162 267q-46 -106 -46 -126q0 -60 149 -60q50 0 151 7.5t151 7.5q128 0 147 -44z" />
<glyph unicode="&#xe9;" d="M-284 1135q15 -36 -261 -389l137 234q6 11 -95 11h-201q-64 0 -64 92q0 40 162 267q-46 -106 -46 -126q0 -60 87 -60q30 0 91 7.5t91 7.5q80 0 99 -44z" />
<glyph unicode="&#xea;" d="M-131 1135q15 -36 -261 -389l137 234q6 11 -95 11h-231q-64 0 -64 92q0 40 162 267q-46 -106 -46 -126q0 -60 95 -60q33 0 99 7.5t99 7.5q86 0 105 -44z" />
<glyph unicode="&#xeb;" d="M0 1052q0 -18 -184 -285l59 126q7 15 -104 15h-120q-65 0 -65 92q0 40 152 247q-35 -85 -35 -106q0 -68 103 -68q23 0 69 4.5t69 4.5q56 0 56 -30z" />
<glyph unicode="&#xec;" d="M-1071 1331h954l-103 -134h-953z" />
<glyph unicode="&#xed;" d="M-1071 -583h954l-103 -134h-953z" />
<glyph unicode="&#xee;" d="M-600 1331h483l-103 -134h-482z" />
<glyph unicode="&#xef;" d="M-600 -583h483l-103 -134h-482z" />
<glyph unicode="&#xf0;" horiz-adv-x="778" d="M0 377q62 171 153 269q37 40 182 40q119 0 197.5 -80.5t78.5 -200.5q0 -143 -101 -270q-107 -135 -246 -135q-105 0 -205 79l119 159q1 0 87 -39.5t131 -39.5q82 0 82 108q0 104 -69 171t-174 67q-162 0 -235 -128z" />
<glyph unicode="&#xf1;" horiz-adv-x="768" d="M103 491q-72 0 -103 -18q92 207 156 207l542 2q-25 -64 -92 -185l-337 -4q-1 -55 -1 -169q0 -134 148 -134q85 0 150 73q-148 -263 -245 -263q-183 0 -188 210q-2 81 0 281h-30z" />
<glyph unicode="&#xf2;" horiz-adv-x="1078" d="M1078 682q-25 -64 -92 -185l-367 -4q-1 -55 -1 -169q0 -134 148 -134q85 0 150 73q-148 -263 -245 -263q-150 0 -181 141q-98 -141 -169 -141q-183 0 -188 210q-2 81 0 281h-30q-72 0 -103 -18q92 207 156 207zM269 493q-1 -55 -1 -169q0 -134 148 -134q35 0 67 13 q-1 35 -1 107q0 71 1 181q-71 2 -214 2z" />
<glyph unicode="&#xf3;" horiz-adv-x="1382" d="M269 493q-1 -55 -1 -169q0 -134 148 -134q35 0 67 13q-1 35 -1 107q0 71 1 181q-71 2 -214 2zM1382 682q-25 -64 -92 -185l-321 -4q-1 -55 -1 -169q0 -134 148 -134q85 0 150 73q-148 -263 -245 -263q-150 0 -181 141q-98 -141 -169 -141q-150 0 -181 141 q-98 -141 -169 -141q-183 0 -188 210q-2 81 0 281h-30q-72 0 -103 -18q92 207 156 207zM619 493q-1 -55 -1 -169q0 -134 148 -134q35 0 67 13q-1 35 -1 107q0 71 1 181q-71 2 -214 2z" />
<glyph unicode="&#xf4;" horiz-adv-x="798" d="M112 -589q-92 80 -92 239q0 63 18.5 187t18.5 173v1038q0 68 -57 112q46 53 129 153q54 -43 71 -183v-970q0 -52 -14 -187.5t-14 -202.5q0 -158 62 -220q84 -84 257 -84q26 0 94 32.5t83 52.5q11 94 -13 154q16 27 68 111q75 -15 75 -111q0 -115 -137 -259t-253 -144 q-170 0 -296 109z" />
<glyph unicode="&#xf5;" horiz-adv-x="1050" d="M755 93q14 -65 28 -129q15 -74 15 -259q0 -115 -137 -259t-253 -144q-170 0 -296 109q-92 80 -92 239q0 63 18.5 187t18.5 173v1038q0 68 -57 112q46 53 129 153q54 -43 71 -183v-485q31 35 57 35l742 2q-25 -64 -92 -185l-337 -4q-1 -55 -1 -169q0 -134 148 -134 q85 0 150 73q-60 -107 -112 -170zM622 0q-183 0 -188 210q-2 81 0 281h-234v-331q0 -52 -14 -187.5t-14 -202.5q0 -158 62 -220q84 -84 257 -84q26 0 94 32.5t83 52.5q0 285 -20 377z" />
<glyph unicode="&#xf6;" horiz-adv-x="1379" d="M622 0q-183 0 -188 210q-2 81 0 281h-234v-331q0 -55 -17.5 -197t-17.5 -211q0 -144 59 -202q84 -84 257 -84q27 0 94.5 28t82.5 47q0 286 -15 382q-11 39 -21 77zM1379 682q-25 -64 -92 -185l-367 -4q-1 -55 -1 -169q0 -134 148 -134q85 0 150 73q-148 -263 -245 -263 q-150 0 -181 141q-18 -27 -36 -48q12 -67 23 -134q10 -74 10 -264q0 -115 -136.5 -254t-253.5 -139q-170 0 -296 109q-88 76 -88 225q0 66 21.5 194t21.5 179v1039q0 68 -57 112q46 53 129 153q54 -43 71 -183v-485q31 35 57 35zM570 493q-1 -55 -1 -169q0 -134 148 -134 q35 0 67 13q-1 35 -1 107q0 71 1 181q-71 2 -214 2z" />
<glyph unicode="&#xf7;" horiz-adv-x="798" d="M398 -545q80 0 142 52q71 59 71 156q0 65 -8.5 184t-8.5 153v1048q0 68 -57 112q46 53 129 153q54 -43 71 -183v-1130q0 -686 -477 -698h-9q-110 0 -179 71q-72 74 -72 189q79 126 129 153q41 -260 269 -260z" />
<glyph unicode="&#xf8;" horiz-adv-x="1260" d="M737 412v-222h355q16 28 16 80q0 84 -55 156q-59 79 -140 79q-76 0 -176 -93zM398 -545q80 0 142 52q71 59 71 156q0 65 -8.5 184t-8.5 153v1048q0 68 -57 112q46 53 129 153q54 -43 71 -183v-619q75 76 131 107q71 38 164 38q85 0 157 -69.5t72 -154.5q0 -103 -93 -242 q31 1 92 25q6 -50 -133 -215h-390q0 -686 -477 -698q-116 -3 -188 71t-72 189q79 126 129 153q41 -260 269 -260z" />
<glyph unicode="&#xf9;" horiz-adv-x="1748" d="M1163 190h407q21 29 21 80q0 83 -55 156q-60 79 -141 79q-57 0 -135 -58q1 -9 1 -19q0 -95 -98 -238zM737 412v-226l351 4q20 29 20 80q0 84 -55 156q-59 79 -140 79q-76 0 -176 -93zM398 -545q80 0 142 52q71 59 71 156q0 65 -8.5 184t-8.5 153v1048q0 68 -57 112 q46 53 129 153q54 -43 71 -183v-619q142 145 293 145q131 0 203 -130q135 130 279 130q87 0 159 -68.5t72 -155.5q0 -99 -98 -242q45 0 103 25q1 -2 1 -4q0 -54 -133 -211h-879q0 -686 -477 -698q-116 -3 -188 71t-72 189q79 126 129 153q41 -260 269 -260z" />
<glyph unicode="&#xfa;" horiz-adv-x="768" d="M248 0q-94 0 -171 79.5t-77 172.5q0 67 48 137q4 6 94 115q0 -15 -13 -52.5t-13 -48.5q0 -87 89 -155q84 -64 174 -64q58 0 103 51q43 48 43 106q0 126 -359 854q0 28 49 89.5t77 61.5q369 -741 369 -874q0 -68 -59 -214l-144 -180q-77 -78 -210 -78z" />
<glyph unicode="&#xfb;" horiz-adv-x="768" d="M520 156q141 -310 141 -402q0 -68 -59 -214l-144 -180q-77 -78 -210 -78q-94 0 -171 79.5t-77 172.5q0 67 48 137q4 6 94 115q0 -15 -13 -52.5t-13 -48.5q0 -87 89 -155q84 -64 174 -64q58 0 103 51q43 48 43 106q0 90 -143 404q-63 -27 -134 -27q-94 0 -171 79.5 t-77 172.5q0 67 48 137q4 6 94 115q0 -15 -13 -52.5t-13 -48.5q0 -87 89 -155q84 -64 174 -64q58 0 103 51q43 48 43 106q0 126 -359 854q0 28 49 89.5t77 61.5q369 -741 369 -874q0 -68 -59 -214z" />
<glyph unicode="&#xfc;" d="M-761 -224v144l142 50v-422q0 -148 -169 -186q27 202 27 414z" />
<glyph unicode="&#xfd;" d="M-521 -224v144l142 50v-422q0 -148 -169 -186q27 202 27 414z" />
<glyph unicode="&#xfe;" d="M-391 -224v144l142 50v-422q0 -148 -169 -186q27 202 27 414z" />
<glyph unicode="&#xff;" d="M-251 -224v144l142 50v-422q0 -148 -169 -186q27 202 27 414z" />
<glyph unicode="&#x109;" d="M-330 969l-107 -107l-79 79l107 107zM-450 1140l-107 -107l-79 79l107 107zM-178 1143l-106 -107l-79 79l106 107z" />
<glyph unicode="&#x125;" horiz-adv-x="900" d="M554 320q0 72 -111 120q-90 38 -175 38q-63 0 -83 -5q-31 -9 -70 -45q0 -96 74 -167t168 -71q59 0 123 35q74 41 74 95zM586 167q118 -11 245 -11q116 0 188 23q-41 -210 -355 -210q-68 0 -208 15.5t-207 15.5q-81 0 -165 79t-84 159q0 154 118 286q122 135 274 135 q109 0 203 -70q101 -76 101 -182q0 -61 -64 -167q-28 -46 -46 -73z" />
<glyph unicode="&#x152;" horiz-adv-x="768" d="M157 1048q0 68 -57 112q46 53 129 153q54 -43 71 -183q0 -134 -4 -403t-4 -403t148 -134q85 0 150 73q-148 -263 -245 -263q-183 0 -188 210v838z" />
<glyph unicode="&#x153;" horiz-adv-x="1360" d="M532 492l-332 -1v-22q0 -127 95.5 -220.5t222.5 -93.5q16 0 52 10q-38 75 -38 170v157zM968 494q-140 -1 -293 -2v-23q0 -127 95.5 -220.5t222.5 -93.5q115 0 115 115q0 66 -40.5 133t-99.5 91zM1268 497h-20q12 -34 12 -134q0 -116 -116 -248q-119 -135 -233 -135 q-173 0 -278 100q-105 -100 -198 -100q-168 0 -271 93q-107 96 -107 262v713q0 68 -57 112q46 53 129 153q54 -43 71 -183v-450l1160 2q-25 -64 -92 -185z" />
<glyph unicode="&#x160;" d="M-669 -496l335 414l-306 -458z" />
<glyph unicode="&#x161;" horiz-adv-x="1305" d="M626 190h407q21 29 21 80q0 83 -55 156q-60 79 -141 79q-57 0 -135 -58q1 -9 1 -19q0 -95 -98 -238zM376 505q-76 0 -176 -93v-226l351 4q20 29 20 80q0 84 -55 156q-59 79 -140 79zM1108 190q60 0 123 -64.5t63 -125.5q0 -120 -130 -290q-136 -176 -250 -176 q-53 0 -100 82l128 158q60 -50 107 -50q91 0 91 110q0 78 -75 125q-64 41 -147 41h-918q57 114 57 332v78q0 68 -57 112q46 53 129 153q54 -43 71 -164q142 145 293 145q131 0 203 -130q135 130 279 130q87 0 159 -68.5t72 -155.5q0 -99 -98 -242z" />
<glyph unicode="&#x178;" d="M-405 -400l281 318l-256 -353z" />
<glyph unicode="&#x181;" horiz-adv-x="726" d="M407 337l107 107l79 -79l-107 -107zM66 321l107 107l79 -79l-107 -107zM236 491l107 107l79 -79l-107 -107zM236 150l107 107l79 -79l-112 -107z" />
<glyph unicode="&#x182;" horiz-adv-x="836" d="M521 339l107 107l79 -79l-107 -107zM61 339l107 107l79 -79l-107 -107zM291 559l107 107l79 -79l-107 -107zM291 119l107 107l79 -79l-107 -107zM291 339l107 107l79 -79l-107 -107z" />
<glyph unicode="&#x192;" d="M-474 -90l-474 -554l439 604zM-634 -90l-474 -554l439 604z" />
<glyph unicode="&#x200;" d="M-430 -41h483l-103 -133h-482z" />
<glyph unicode="&#x201;" d="M48 -20q-122 -197 -240 -197q-46 0 -135 28t-126 28q-62 0 -120 -54q114 186 246 186q38 0 111 -22t111 -22q70 0 153 53z" />
<glyph unicode="&#x202;" d="M-380 840h483l-103 -134h-482z" />
<glyph unicode="&#x203;" d="M128 881q-122 -196 -240 -196q-46 0 -135 28t-126 28q-62 0 -120 -55q114 187 246 187q38 0 111 -22.5t111 -22.5q70 0 153 53z" />
<glyph unicode="&#x2c6;" horiz-adv-x="410" d="M61 559l107 107l79 -79l-107 -107zM61 119l107 107l79 -79l-107 -107zM61 339l107 107l79 -79l-107 -107z" />
<glyph unicode="&#x2dc;" d="M-547 -406q-70 -86 -159 -86q-68 0 -109 64q-34 53 -34 100q0 57 55 131q67 88 145 88q50 0 100 -40q59 -46 59 -115q0 -71 -57 -142zM-570 -359q0 61 -44 111q-40 46 -89 46q-26 0 -46 -19q-16 -17 -16 -41q0 -46 44 -91q38 -39 82 -39q38 0 69 33z" />
<glyph unicode="&#x10fb;" horiz-adv-x="524" d="M237 337l107 107l79 -79l-107 -107zM66 491l107 107l79 -79l-107 -107zM66 150l107 107l79 -79l-112 -107z" />
<glyph unicode="&#x2013;" horiz-adv-x="1260" d="M1200 1313q-46 -203 -46 -414v-634q0 -68 57 -113q-106 -121 -130 -152q-70 56 -70 102v42q-158 -144 -295 -144q-131 0 -203 133q-73 -71 -127 -99q-67 -34 -157 -34q-86 0 -157.5 69t-71.5 155q0 243 327 538q217 195 541 384q286 167 332 167zM1011 1126 q-59 0 -264 -113q-219 -120 -373 -258q-222 -199 -222 -369q0 -83 55 -156q60 -79 141 -79q58 0 140 63v10q0 117 115 270q120 162 232 162q43 0 91 -82l-99 -128q-59 49 -106 49q-81 0 -81 -109q0 -84 55 -156q59 -79 140 -79t177 92z" />
<glyph unicode="&#x2014;" horiz-adv-x="768" d="M523 410q0 44 -27 81h-363q-73 0 -103 -18q93 207 156 207l479 2v-682q0 -315 -130 -495q-147 -203 -442 -203q-23 0 -48 23t-25 46q22 36 89 152q93 -100 185 -100q112 0 176 127q53 103 53 226v634z" />
<glyph unicode="&#x2018;" d="M-1124 -495q67 90 160 182q-62 -89 -62 -160q0 -59 63 -59q108 0 310 353q-83 -179 -172 -315q-147 -224 -250 -224q-95 0 -95 92q0 69 46 131z" />
<glyph unicode="&#x2019;" d="M-531 -275q-13 -37 -13 -73q0 -70 55 -70q76 0 195 336l-87 -288q-79 -215 -149 -215q-74 0 -74 94q0 81 73 216z" />
<glyph unicode="&#x201a;" d="M-407 334l-376 -434l348 478zM-527 334l-376 -434l348 478z" />
<glyph unicode="&#x201c;" d="M-525 -348q-9 -21 -5 -50q7 -51 44 -51q79 0 262 367q-48 -125 -88 -220q-61 -146 -83 -187q-76 -140 -139 -140q-33 0 -57 27t-24 60q0 79 90 194z" />
<glyph unicode="&#x201d;" d="M-266 -235q-2 -105 49 -117q52 -12 93 270q-18 -180 -44 -382q-24 -61 -77 -61q-64 0 -64 86q0 80 43 204z" />
<glyph unicode="&#x201e;" d="M-320 -124l-335 -414l306 458zM-400 -84l-335 -414l306 458z" />
<glyph unicode="&#x2020;" d="M0 -145l-281 -318l256 353zM-40 -65l-281 -318l256 353z" />
<glyph unicode="&#x2021;" horiz-adv-x="778" d="M305 -211l102 224q-47 -13 -131 -13q-119 0 -197.5 80.5t-78.5 200.5q0 144 101 270q107 135 247 135q104 0 204 -80l-119 -158q-4 0 -76 38t-109 38q-66 0 -88 -17q-27 -22 -27 -88q0 -104 69 -171t174 -67q163 0 235 128q-74 -204 -306 -520z" />
<glyph unicode="&#x2022;" horiz-adv-x="768" d="M13 -368q44 197 44 404v1012q0 68 -57 112q46 53 129 153q54 -43 71 -183v-619q157 151 300 151q158 0 158 -107q0 -118 -227 -395q-144 -176 -178 -221q-123 -168 -123 -236q0 -59 36.5 -99.5t95.5 -40.5q27 0 87 27q-30 -52 -78 -127q-58 -71 -109 -71q-73 0 -117.5 50 t-44.5 123q0 28 13 67zM200 429v-487q92 126 185 252q134 196 124 254q-46 50 -117 50q-84 0 -192 -69z" />
<glyph unicode="&#x2026;" d="M-166 -124l-376 -434l348 478zM-246 -84l-376 -434l348 478z" />
<glyph unicode="&#x2030;" d="M-1087 -636l474 554l-439 -604z" />
<glyph unicode="&#x2039;" d="M-530 -516l376 434l-348 -478z" />
<glyph unicode="&#x203a;" horiz-adv-x="592" d="M483 331l-167 -265l-3 -56q-2 -36 -142.5 -237.5t-170.5 -210.5l100 224q54 137 54 234l1 1063q0 39 -23 39q-9 0 -55 -19l202 265q37 -18 37 -262l218 262l1 -728q0 -226 -52 -309zM414 572v599l-98 -109v-934q98 263 98 444z" />
<glyph unicode="&#x2122;" d="M-302 -406q-69 -86 -159 -86q-67 0 -108 64q-35 53 -35 100q0 57 56 131q66 88 144 88q51 0 101 -40q59 -46 59 -115q0 -71 -58 -142zM-325 -359q0 61 -44 111q-40 46 -88 46q-27 0 -45 -18t-18 -42q0 -46 44 -91q38 -39 82 -39q39 0 69 33z" />
<glyph unicode="&#x25fc;" horiz-adv-x="680" d="M0 680h680v-680h-680v680z" />
<glyph unicode="&#x2e2c;" horiz-adv-x="723" d="M406 491l107 107l79 -79l-107 -107zM406 150l107 107l79 -79l-112 -107zM66 491l107 107l79 -79l-107 -107zM66 150l107 107l79 -79l-112 -107z" />
<glyph unicode="&#x2ffc;" d="M-708 726l-474 554l35 50z" />
<glyph unicode="&#x2ffd;" d="M-242 746l-331 365l35 50z" />
<glyph unicode="&#x2ffe;" d="M-555 746l-341 408l35 50z" />
<glyph unicode="&#x2fff;" d="M-184 767l-291 303l35 50z" />
<glyph unicode="&#x3020;" horiz-adv-x="410" />
<glyph unicode="&#x3023;" d="M-561 1114l107 107l79 -79l-107 -107zM-461 943l107 107l79 -79l-107 -107zM-789 1115l107 107l79 -79l-107 -107zM-699 944l107 107l79 -79l-107 -107zM-922 941l107 107l79 -79l-107 -107z" />
<glyph unicode="&#x3024;" d="M-74 1280l-474 -554l439 604zM-234 1280l-474 -554l439 604z" />
<glyph unicode="&#x3026;" d="M-413 1327q155 165 272 165q31 0 60 -12q101 -42 101 -128q0 -104 -143 -271q-149 -174 -484 -361q443 328 443 519q0 48 -28 88q-29 42 -85 42q-55 0 -136 -42zM-597 1053q169 273 276 273q29 0 55 -19q42 -31 42 -80q0 -91 -140 -244q-112 -123 -294 -264 q184 171 255 301q21 38 21 65t-19 46t-46 19q-62 0 -150 -97z" />
<glyph unicode="&#x302e;" horiz-adv-x="900" d="M554 320q0 72 -111 120q-90 38 -175 38q-63 0 -83 -5q-31 -9 -70 -45q0 -96 74 -167t168 -71q59 0 123 35q74 41 74 95zM586 167q118 -11 245 -11q116 0 188 23q-41 -210 -355 -210q-68 0 -208 15.5t-207 15.5q-81 0 -165 79t-84 159q0 154 118 286q122 135 274 135 q109 0 203 -70q101 -76 101 -182q0 -61 -64 -167q-28 -46 -46 -73z" />
<glyph unicode="&#x3033;" horiz-adv-x="2048" />
<glyph unicode="&#x303c;" horiz-adv-x="768" d="M759 191q-12 -33 -136 -191h-507q-48 0 -59 -1q-34 -3 -57 -17q28 63 54 107q-54 62 -54 135q0 114 116 269q122 163 232 163q94 0 175 -52v522q146 170 189 187q-47 -203 -47 -414v-634q0 -41 21 -74h73zM523 190v149q-17 65 -125 114q-93 42 -165 42q-81 0 -81 -109 q0 -118 95 -197z" />
<glyph unicode="&#x3043;" d="M-123 1114l107 107l79 -79l-107 -107zM-23 943l107 107l79 -79l-107 -107zM-351 1115l107 107l79 -79l-107 -107zM-261 944l107 107l79 -79l-107 -107zM-484 941l107 107l79 -79l-107 -107z" />
<glyph unicode="&#x3044;" d="M-282 1114l107 107l79 -79l-107 -107zM-182 943l107 107l79 -79l-107 -107zM-510 1115l107 107l79 -79l-107 -107zM-420 944l107 107l79 -79l-107 -107zM-643 941l107 107l79 -79l-107 -107z" />
<glyph unicode="&#x3045;" d="M-356 1114l107 107l79 -79l-107 -107zM-256 943l107 107l79 -79l-107 -107zM-584 1115l107 107l79 -79l-107 -107zM-494 944l107 107l79 -79l-107 -107zM-717 941l107 107l79 -79l-107 -107z" />
<glyph unicode="&#x3046;" d="M121 1174l-383 -428l348 478zM-19 1174l-383 -428l348 478z" />
<glyph unicode="&#x3048;" d="M39 1137q7 181 -94 200q-240 45 -359 -568q23 337 107 525q164 370 343 209q109 -99 3 -366zM-101 985q9 21 5 50q-7 51 -44 51q-79 0 -262 -367q164 426 221 488q55 59 89 59q33 0 57 -27t24 -60q0 -79 -90 -194z" />
<glyph unicode="&#x304a;" d="M-245 1283q143 205 269 205q19 0 37 -5q122 -31 122 -137q0 -99 -105 -264q-65 -102 -376 -340q311 311 311 475q0 58 -39 98q-30 30 -72 30q-61 0 -147 -62zM-349 1067q129 214 222 214q33 0 55.5 -23t22.5 -57q0 -139 -343 -482q207 254 207 351q0 52 -59 52 q-65 0 -105 -55z" />
<glyph unicode="&#x304d;" d="M-123 1309q121 241 258 241q8 0 17 -1q141 -15 141 -149q0 -94 -69 -246q-82 -180 -336 -437q263 343 263 521q0 86 -62 133q-27 21 -60 21q-66 0 -152 -83zM-193 1106q61 96 110 159q33 42 88 42q78 0 78 -85q0 -152 -267 -503q171 328 171 388q0 48 -49 48 q-67 0 -131 -49z" />
<glyph unicode="&#x304e;" d="M164 1158q1 16 1 30q0 171 -76 189q-16 4 -31 4q-188 0 -260 -568q29 423 78 534q95 215 203 215q52 0 107 -49q39 -36 39 -110q0 -92 -61 -245zM43 978q13 38 13 73q0 70 -55 70q-66 0 -185 -402q104 569 226 569q74 0 74 -81q0 -93 -73 -229z" />
<glyph unicode="&#x3052;" d="M-54 1154l-341 -408l306 458zM-214 1154l-341 -408l306 458z" />
<glyph unicode="&#x3055;" d="M-463 1309q121 241 258 241q8 0 17 -1q141 -15 141 -149q0 -94 -69 -246q-82 -180 -336 -437q263 343 263 521q0 86 -62 133q-27 21 -60 21q-66 0 -152 -83zM-534 1106q61 96 110 159q33 42 88 42q82 0 82 -88q0 -91 -108 -258q-16 -26 -173 -242q181 291 181 388 q0 48 -49 48q-67 0 -131 -49z" />
<glyph unicode="&#x3056;" d="M237 1070l-291 -303l256 353zM107 1070l-291 -303l256 353z" />
<glyph unicode="&#x3059;" d="M-176 1108q1 16 1 31q0 173 -76 188q-12 2 -24 2q-186 0 -293 -561q24 348 104 529q95 215 203 215q52 0 107 -49q39 -36 39 -110q0 -92 -61 -245zM-298 912q13 38 13 73q0 70 -55 70q-76 0 -195 -336l87 288q79 215 149 215q74 0 74 -81q0 -93 -73 -229z" />
<glyph unicode="&#x305e;" d="M-98 1092q25 69 25 118q0 71 -53 101q-42 23 -86 23q-209 0 -461 -530q162 399 294 545q160 177 267 177q75 0 124 -86q21 -36 21 -80q0 -110 -131 -268zM-347 853q63 90 63 160q0 59 -64 59q-108 0 -310 -353q83 179 172 315q147 224 250 224q95 0 95 -92 q0 -109 -206 -313z" />
<glyph unicode="&#x3061;" horiz-adv-x="768" d="M1088 684q-122 -197 -240 -197q-43 0 -163 37q-18 -130 -18 -263v-634q0 -68 36 -113l-129 -152q-50 79 -50 163v619q-142 -144 -295 -144q-86 0 -157.5 69t-71.5 155q0 117 115 270q121 162 233 162q43 0 90 -82l-98 -128q-60 49 -107 49q-81 0 -81 -109q0 -83 55 -156 q60 -79 141 -79q73 0 176 92v245q0 101 189 187q38 0 111 -22t111 -22q70 0 153 53z" />
<glyph unicode="&#x3062;" d="M-234 1280l-474 -554l439 604z" />
<glyph unicode="&#x3067;" horiz-adv-x="1260" d="M1574 684q-122 -197 -240 -197q-43 0 -165 37q-16 -101 -16 -181v-78q0 -68 57 -113q-45 -52 -129 -152q-70 56 -70 102v41q-75 -75 -132 -105q-71 -38 -163 -38q-131 0 -203 133q-73 -71 -127 -99q-67 -34 -157 -34q-86 0 -157.5 69t-71.5 155q0 117 115 270 q121 162 233 162q43 0 90 -82l-98 -128q-60 49 -107 49q-81 0 -81 -109q0 -83 55 -156q60 -79 141 -79q58 0 140 63v10q0 117 115 270q120 162 232 162q43 0 91 -82l-99 -128q-59 49 -106 49q-81 0 -81 -109q0 -84 55 -156q59 -79 140 -79q79 0 176 91v247l-1 -1l1 2 q2 100 188 185q38 0 111 -22t111 -22q70 0 153 53z" />
<glyph unicode="&#x3068;" horiz-adv-x="768" d="M1087 684q-122 -197 -240 -197q-43 0 -165 37q-16 -102 -16 -181v-78q0 -68 57 -113q-46 -52 -130 -152q-70 56 -70 102v41q-141 -143 -294 -143q-86 0 -157.5 69t-71.5 155q0 117 115 270q121 162 233 162q43 0 90 -82l-98 -128q-60 49 -107 49q-81 0 -81 -109 q0 -83 55 -156q60 -79 141 -79q77 0 175 92v245q0 101 189 187q38 0 111 -22t111 -22q70 0 153 53z" />
<glyph unicode="&#x306c;" horiz-adv-x="821" d="M821 233q-56 -119 -66 -136q-55 -99 -96 -97q-33 2 -85 66l-169 210l-135 -183q-69 -93 -145 -93q-70 0 -125 76q55 76 120 133q46 -58 95 -58q53 0 147 178q-53 70 -90 109q-68 72 -107 76q-1 -8 -1 -16q0 -78 71 -116q-11 -20 -77 -61t-74 -36q-38 23 -38 85 q0 35 14 67q30 73 84 139q70 85 128 85t257.5 -230.5t222.5 -230.5q19 0 69 33z" />
<glyph unicode="&#x3073;" horiz-adv-x="1260" d="M1574 684q-122 -197 -240 -197q-44 0 -161 36q-19 -129 -19 -262v-634q0 -68 37 -113l-130 -152q-49 79 -49 163l-1 619q-140 -144 -295 -144q-131 0 -203 133q-73 -71 -127 -99q-67 -34 -157 -34q-86 0 -157.5 69t-71.5 155q0 117 115 270q121 162 233 162q43 0 90 -82 l-98 -128q-60 49 -107 49q-81 0 -81 -109q0 -83 55 -156q60 -79 141 -79q58 0 140 63v10q0 117 115 270q120 162 232 162q43 0 91 -82l-99 -128q-59 49 -106 49q-81 0 -81 -109q0 -84 55 -156q59 -79 140 -79t177 92v247l-2 -2l2 3q3 97 180 180l7 4h2q38 0 110 -22t110 -22 q70 0 153 53z" />
<glyph unicode="&#x30a0;" horiz-adv-x="410" />
<glyph unicode="&#x30a4;" horiz-adv-x="768" d="M592 554q0 -72 -45 -127l43 -43l-29 -29l-42 43q-56 -45 -128 -45t-127 45l-43 -43l-29 29l43 43q-45 55 -45 127t45 128l-43 43l29 28l43 -43q55 45 127 45t127 -45l43 43l29 -29l-43 -43q45 -55 45 -127zM552 554q0 67 -47 114t-114 47t-114 -47t-47 -114t47 -114 t114 -47t114 47t47 114z" />
<glyph unicode="&#x30ae;" horiz-adv-x="650" d="M611 805q0 -110 -64 -217q-61 -100 -157 -165q19 -22 52 -31l-145 -163q-54 32 -54 141l119 158q55 0 87 45q29 39 29 94q0 104 -69 171t-174 67q-76 0 -120 -32q-36 -26 -75 -96q58 157 100 214q72 95 195 95q119 0 197.5 -80.5t78.5 -200.5zM427 87l-107 -107l-79 79 l107 107z" />
<glyph unicode="&#x30b6;" horiz-adv-x="1260" d="M1016 1368q-24 -68 -92 -193h-5q-8 -73 -8 -228v-1320q0 -68 37 -113l-130 -152q-50 79 -50 163v1650h-93q-8 -73 -8 -228v-1320q0 -68 36 -113l-129 -152q-50 79 -50 163v1305q-142 -144 -295 -144q-86 0 -157.5 69t-71.5 155q0 74 111 266t159 192h746zM524 929v246 q-36 0 -159 2q-99 1 -159 0q-54 -19 -54 -105q0 -83 55 -156q60 -79 141 -79q80 0 176 92z" />
<glyph unicode="&#x30b7;" horiz-adv-x="410" d="M287 348l-87 -87l-79 79l87 87z" />
<glyph unicode="&#x30bf;" horiz-adv-x="830" d="M802 234q-105 -228 -179 -228q-110 0 -322 450q-78 -101 -79 -104q-44 -66 -44 -120q0 -15 3 -29q22 -24 59 -24q55 0 143 56q-62 -84 -182 -211q-33 -24 -65 -24q-42 0 -74 33.5t-32 75.5q0 83 137 265l256 320q137 179 137 254q0 59 -36.5 99.5t-95.5 40.5 q-27 0 -87 -27q30 52 78 127q58 71 109 71q73 0 117.5 -50t44.5 -123q0 -90 -240 -440q0 -79 97 -264q103 -195 167 -195q18 0 88 47z" />
<glyph unicode="&#x30c3;" horiz-adv-x="410" d="M247 487l-107 -107l-79 79l107 107zM237 122l-237 -218l189 272z" />
<glyph unicode="&#x30c4;" horiz-adv-x="768" d="M713 675q-46 -203 -46 -414v-634q0 -68 36 -113l-129 -152q-50 79 -50 163v475h-408q-48 0 -59 -1q-34 -3 -57 -17q28 63 54 107q-54 62 -54 135q0 114 116 269q122 163 232 163q114 0 214 -80q47 52 151 99zM524 190v145q-15 67 -124 117q-93 43 -167 43q-81 0 -81 -109 q0 -83 56 -156q18 -24 38 -41z" />
<glyph unicode="&#x30c7;" horiz-adv-x="410" d="M255 1082l-30 -666q-5 -114 -109 -186q-10 206 -20 357q-23 363 -40 393zM247 87l-107 -107l-79 79l107 107z" />
<glyph unicode="&#x30d8;" d="M-433 1146q-32 -72 -67 -125q-84 -125 -170 -129q-138 -6 -191 171l107 97q22 -144 150 -140q98 3 153 143z" />
<glyph unicode="&#x30d9;" d="M-258 1125q-29 -72 -62 -125q-79 -125 -165 -129q-138 -6 -191 171l107 97q12 -144 140 -140q98 3 153 143z" />
<glyph unicode="&#x30da;" d="M-135 1125q-32 -72 -67 -125q-84 -125 -170 -129q-138 -6 -191 171l107 97q22 -144 150 -140q98 3 153 143z" />
<glyph unicode="&#x30db;" d="M39 1125q-32 -72 -67 -125q-84 -125 -170 -129q-138 -6 -191 171l107 97q22 -144 150 -140q98 3 153 143z" />
<glyph unicode="&#x30e0;" d="M-653 719q-108 188 -172 265q-74 88 -138 88q-91 0 -91 -189q-36 85 -72 215q20 160 151 160q90 0 210 -248q98 -202 112 -291z" />
<glyph unicode="&#x30e1;" d="M-294 719q-74 132 -147 265q-56 88 -113 88q-68 0 -68 -114q0 -37 7 -75q-32 85 -72 215q-2 18 -2 34q0 126 123 126q89 0 185 -248q69 -179 87 -291z" />
<glyph unicode="&#x30e2;" d="M-224 719q-74 132 -147 265q-56 88 -113 88q-68 0 -68 -114q0 -37 7 -75q-32 85 -72 215q-2 18 -2 34q0 126 123 126q89 0 185 -248q69 -179 87 -291z" />
<glyph unicode="&#x30e3;" d="M-124 719q-4 408 -160 408q-91 0 -108 -167q-17 184 -13 227q8 55 27 79q35 44 121 44q155 0 155 -327q0 -127 -22 -264z" />
<glyph unicode="&#x30e8;" d="M-617 1135q15 -36 -261 -389l137 234q6 11 -95 11h-201q-64 0 -64 92q0 40 162 267q-46 -106 -46 -126q0 -60 87 -60q30 0 91 7.5t91 7.5q80 0 99 -44z" />
<glyph unicode="&#x30e9;" d="M-417 1135q15 -36 -261 -389l137 234q6 11 -95 11h-201q-64 0 -64 92q0 40 162 267q-46 -106 -46 -126q0 -60 87 -60q30 0 91 7.5t91 7.5q80 0 99 -44z" />
<glyph unicode="&#x30ea;" d="M-308 1052q0 -18 -184 -285l59 126q7 15 -104 15h-120q-65 0 -65 92q0 40 152 247q-35 -85 -35 -106q0 -68 103 -68q23 0 69 4.5t69 4.5q56 0 56 -30z" />
<glyph unicode="&#x30eb;" d="M-140 1052q0 -18 -184 -285l59 126q7 15 -104 15h-120q-65 0 -65 92q0 40 152 247q-35 -85 -35 -106q0 -68 103 -68q23 0 69 4.5t69 4.5q56 0 56 -30z" />
<glyph unicode="&#x3152;" horiz-adv-x="410" d="M387 172q-23 -91 -76 -172q-92 0 -192 182q-103 188 -103 385q0 266 74 442q85 204 283 322q-138 -132 -189 -311q-36 -127 -36 -327q0 -130 59 -287q71 -192 180 -234z" />
<glyph unicode="&#x3153;" horiz-adv-x="410" d="M16 1159q23 91 76 172q92 0 192 -181q103 -189 103 -386q0 -266 -74 -442q-85 -204 -283 -322q138 132 189 311q36 127 36 327q0 130 -59 287q-71 192 -180 234z" />
<glyph unicode="&#x3161;" horiz-adv-x="768" d="M788 1q0 -113 -119 -272q-145 -194 -261 -194q-53 0 -100 82l128 158q60 -50 107 -50q91 0 91 110q0 74 -48 118q-51 47 -145 47h-441q57 195 57 332v78q0 68 -57 112q46 53 129 153q37 -29 66 -163q76 77 132 107q69 36 162 36q85 0 157 -69t72 -154t-116 -241 q74 -22 127 -73q59 -56 59 -117zM566 270q0 81 -56 155q-61 79 -140 79q-74 0 -170 -87v-231l312 5q54 19 54 79z" />
<glyph unicode="&#x5219;" horiz-adv-x="410" d="M287 348l-87 -87l-79 79l87 87z" />
<glyph horiz-adv-x="410" />
<glyph horiz-adv-x="410" />
<glyph horiz-adv-x="410" />
<glyph horiz-adv-x="410" />
</font>
</defs>
</svg>
